<?xml version="1.0" encoding="UTF-8"?> <svg xmlns="http://www.w3.org/2000/svg" width="194" height="33" viewBox="0 0 194 33" fill="none"> <path d="M4.16 15.752C5.58133 14.4693 7.24533 13.3427 9.152 12.372C11.3707 11.2627 13.2773 10.708 14.872 10.708C16.744 10.708 17.68 12.3373 17.68 15.596C17.68 16.7747 17.472 17.78 17.056 18.612C16.3973 19.964 15.08 21.6453 13.104 23.656C11.752 25.0427 10.4 26.2907 9.048 27.4C6.93333 29.1333 5.33867 30 4.264 30C3.224 30 2.236 29.2027 1.3 27.608C0.433333 26.152 0 24.852 0 23.708C0 22.148 0.398667 20.172 1.196 17.78C3.484 10.916 7.02 6.35733 11.804 4.104C12.532 3.75733 13.676 3.39333 15.236 3.012C16.796 2.63066 17.888 2.284 18.512 1.972C18.8587 1.72933 19.3093 1.36533 19.864 0.88C20.1413 0.637332 20.3493 0.515998 20.488 0.515998C20.696 0.515998 20.852 0.654665 20.956 0.931999C21.06 1.20933 21.1467 1.608 21.216 2.128V3.636C21.216 4.468 21.06 5.05733 20.748 5.404C20.1933 6.028 19.0147 6.496 17.212 6.808C13.676 7.432 10.9893 8.264 9.152 9.304C6.48267 10.7947 4.81867 12.944 4.16 15.752ZM4.94 25.58C5.11333 25.58 5.59867 25.3893 6.396 25.008C7.78267 24.3493 9.568 22.9973 11.752 20.952C14.248 18.6293 15.496 16.896 15.496 15.752C15.496 15.1973 15.132 14.92 14.404 14.92C12.4627 14.92 10.2267 15.8907 7.696 17.832C6.79467 18.5253 6.032 19.2707 5.408 20.068C4.472 21.2467 4.004 22.4253 4.004 23.604C4.004 24.9213 4.316 25.58 4.94 25.58ZM20.9674 22.824C20.9674 25.5627 21.99 26.932 24.0354 26.932C25.2834 26.932 27.034 26.204 29.2874 24.748C31.5754 23.2573 32.6847 22.512 32.6154 22.512C32.8234 22.512 32.9274 22.772 32.9274 23.292C32.9274 23.5693 32.338 24.3147 31.1594 25.528C27.2074 29.584 23.9314 31.612 21.3314 31.612C19.7367 31.612 18.4714 31.0053 17.5354 29.792C16.738 28.6827 16.3394 27.296 16.3394 25.632C16.3394 22.4427 17.7607 19.1493 20.6034 15.752C23.5847 12.216 26.6354 10.448 29.7554 10.448C30.6914 10.448 31.4367 10.6387 31.9914 11.02C32.546 11.4013 32.8234 12.06 32.8234 12.996C32.8234 15.0413 31.3327 17.156 28.3514 19.34C25.7167 21.2813 23.2554 22.4427 20.9674 22.824ZM20.9674 20.9C22.2847 20.588 23.81 19.7733 25.5434 18.456C27.5194 16.9653 28.5074 15.6653 28.5074 14.556C28.5074 13.6547 28.1434 13.204 27.4154 13.204C26.1327 13.204 24.7807 14.192 23.3594 16.168C22.1807 17.7627 21.3834 19.34 20.9674 20.9ZM32.4248 23.552C32.4248 21.0907 33.9848 18.3173 37.1048 15.232C40.3982 12.008 43.5702 10.396 46.6208 10.396C47.2102 10.396 47.6955 10.5173 48.0768 10.76C48.4928 11.0027 48.7008 11.4013 48.7008 11.956C48.7008 12.8227 48.0248 14.2613 46.6728 16.272C45.3555 18.2827 44.3502 19.288 43.6568 19.288C43.3102 19.288 43.0848 19.0107 42.9808 18.456C42.9462 18.3173 42.8595 18.1267 42.7208 17.884C42.6168 17.6413 42.4608 17.5027 42.2528 17.468H41.5768C40.5368 17.7453 39.3235 18.5947 37.9368 20.016C36.3768 21.6453 35.5968 23.0493 35.5968 24.228C35.5968 25.268 36.0822 26.0827 37.0528 26.672C37.8502 27.1227 38.8208 27.348 39.9648 27.348C41.1088 27.348 42.2355 27.1053 43.3448 26.62C44.6622 26.0653 46.2568 25.06 48.1288 23.604C48.8915 23.0147 49.3768 22.72 49.5848 22.72L49.8968 22.876C50.0008 22.9107 50.0528 23.032 50.0528 23.24C50.0528 23.8987 48.5448 25.5107 45.5288 28.076C44.2115 29.22 43.1195 30.0347 42.2528 30.52C40.8315 31.352 39.5315 31.768 38.3528 31.768C36.3075 31.768 34.7475 30.676 33.6728 28.492C32.8408 26.828 32.4248 25.1813 32.4248 23.552ZM53.5819 24.332C58.1233 19.444 62.4913 15.7693 66.6859 13.308C67.7953 12.6493 68.6793 12.32 69.3379 12.32C70.2046 12.32 70.6379 12.9787 70.6379 14.296C70.6379 15.5093 70.0313 16.8613 68.8179 18.352C68.4366 18.768 67.8646 19.4267 67.1019 20.328C65.7846 21.9573 65.1259 23.344 65.1259 24.488C65.1259 25.528 65.6633 26.048 66.7379 26.048C67.5006 26.048 68.3499 25.7187 69.2859 25.06C70.0139 24.4707 70.7419 23.8813 71.4699 23.292C71.7473 23.084 71.9726 22.98 72.1459 22.98C72.4233 22.98 72.5619 23.2053 72.5619 23.656C72.5619 23.864 72.4926 24.0373 72.3539 24.176C72.1806 24.4187 71.9379 24.696 71.6259 25.008C70.3779 26.3253 68.9566 27.5907 67.3619 28.804C65.1433 30.5373 63.4446 31.404 62.2659 31.404C60.6019 31.404 59.7699 30.4507 59.7699 28.544C59.7699 27.296 60.2033 25.996 61.0699 24.644L62.7339 22.512C63.4966 21.5413 63.8779 20.9 63.8779 20.588C63.8779 20.0333 63.5139 19.756 62.7859 19.756C61.5379 19.756 59.4753 21.264 56.5979 24.28C55.8006 25.112 54.7953 26.412 53.5819 28.18C52.7499 29.3933 52.0913 30 51.6059 30C50.2193 30 49.5259 28.3707 49.5259 25.112V23.708C49.5259 22.564 50.0113 21.2813 50.9819 19.86C51.6059 18.6467 52.8193 17.052 54.6219 15.076C55.5233 14.1053 56.4939 13.62 57.5339 13.62C58.7819 13.62 59.4059 13.9667 59.4059 14.66C59.4059 14.9373 59.3019 15.2147 59.0939 15.492C58.9899 15.5613 58.7646 15.7693 58.4179 16.116C57.9673 16.6013 57.0313 17.6587 55.6099 19.288C54.0153 21.1253 53.2179 22.2173 53.2179 22.564C53.2179 23.2573 53.3393 23.8467 53.5819 24.332ZM86.5686 19.444C84.4886 20.3453 81.4553 22.928 77.4686 27.192C76.914 27.7813 76.3073 28.4053 75.6486 29.064C74.99 29.688 74.4353 30 73.9846 30C73.43 30 72.962 29.6013 72.5806 28.804C72.234 28.1453 72.0606 27.5213 72.0606 26.932C72.0606 25.9267 72.4766 24.54 73.3086 22.772C74.21 20.8307 75.094 19.86 75.9606 19.86C76.2033 19.86 76.3766 19.912 76.4806 20.016C76.4806 20.0507 76.498 20.1027 76.5326 20.172L76.2726 20.9C75.8913 21.9747 75.7006 23.2227 75.7006 24.644C75.7006 25.5107 75.822 25.944 76.0646 25.944C76.2726 25.944 77.434 24.748 79.5486 22.356C82.0446 19.5133 84.7486 17.052 87.6606 14.972C89.5326 13.62 90.7633 12.944 91.3526 12.944C91.7686 12.944 92.1153 13.3253 92.3926 14.088C92.6353 14.6773 92.7566 15.232 92.7566 15.752C92.7566 16.168 91.9593 17.26 90.3646 19.028C89.2206 20.6227 88.4926 21.7147 88.1806 22.304C87.7646 23.1013 87.5566 23.7773 87.5566 24.332C87.5566 25.1987 88.094 25.632 89.1686 25.632C89.7233 25.632 90.4686 25.3027 91.4046 24.644C92.1326 24.124 92.826 23.5347 93.4846 22.876C93.866 22.4947 94.1606 22.304 94.3686 22.304C94.646 22.304 94.7846 22.4947 94.7846 22.876C94.7846 23.0493 94.0046 24.0547 92.4446 25.892C91.578 26.8973 90.5206 27.9027 89.2726 28.908C87.47 30.364 86.1353 31.092 85.2686 31.092C84.3326 31.092 83.622 30.6413 83.1366 29.74C82.7206 29.012 82.5126 28.128 82.5126 27.088C82.5126 26.2907 82.634 25.632 82.8766 25.112C82.9113 24.9387 83.4313 24.072 84.4366 22.512C84.61 22.2347 84.8353 21.8707 85.1126 21.42C85.5286 20.796 86.014 20.1373 86.5686 19.444ZM113.324 13.152C114.052 14.4693 114.416 15.388 114.416 15.908C114.416 16.2547 113.775 17.4333 112.492 19.444C112.215 19.86 111.816 20.484 111.296 21.316C110.672 22.356 110.36 23.24 110.36 23.968C110.36 25.32 110.984 25.996 112.232 25.996C112.752 25.996 113.22 25.8747 113.636 25.632C113.636 25.632 114.468 25.1467 116.132 24.176C116.305 24.072 116.704 23.7773 117.328 23.292C117.605 23.084 117.831 22.98 118.004 22.98L118.264 23.292C118.264 23.5693 117.189 24.7653 115.04 26.88C114.069 27.816 113.359 28.4747 112.908 28.856C111.14 30.2773 109.667 30.988 108.488 30.988C107.691 30.988 107.015 30.728 106.46 30.208C105.94 29.688 105.68 29.0293 105.68 28.232C105.68 26.7413 106.079 25.1987 106.876 23.604C107.084 23.2227 107.396 22.564 107.812 21.628C102.404 27.2093 98.8852 30 97.2558 30C96.2852 30 95.5052 29.1507 94.9158 27.452C94.4652 26.1693 94.2398 24.9213 94.2398 23.708C94.2398 20.5533 96.6318 17.3467 101.416 14.088C103.08 12.944 104.831 11.956 106.668 11.124C109.095 10.0147 110.949 9.46 112.232 9.46C112.891 9.46 113.48 9.668 114 10.084C114.52 10.4653 114.78 10.8813 114.78 11.332C114.78 11.5747 114.676 11.8347 114.468 12.112C114.468 12.112 114.277 12.2853 113.896 12.632L113.324 13.152ZM97.2038 24.124C97.2732 24.54 97.3252 24.8693 97.3598 25.112C97.4292 25.32 97.6025 25.476 97.8798 25.58C97.9145 25.6147 98.0012 25.632 98.1398 25.632C98.6598 25.632 99.4745 25.3373 100.584 24.748C103.219 23.3613 105.715 21.2813 108.072 18.508C109.077 17.3293 109.58 16.4973 109.58 16.012C109.58 15.8387 109.493 15.6827 109.32 15.544C109.181 15.4053 108.904 15.336 108.488 15.336C106.339 15.336 103.964 16.2547 101.364 18.092C98.5905 20.068 97.2038 22.0787 97.2038 24.124ZM121.795 24.28C122.489 23.5867 123.581 22.5293 125.071 21.108C126.354 19.964 127.81 18.6987 129.439 17.312C133.391 13.984 135.974 12.32 137.187 12.32C138.262 12.32 138.799 12.9787 138.799 14.296C138.799 14.6773 138.747 15.0067 138.643 15.284C138.539 15.5267 138.349 15.908 138.071 16.428C137.205 17.9533 136.373 19.2187 135.575 20.224C134.917 21.056 134.587 21.6107 134.587 21.888C134.587 21.9573 134.691 22.096 134.899 22.304C135.073 22.304 135.714 21.8013 136.823 20.796C139.562 18.3 142.11 16.3587 144.467 14.972C144.883 14.7293 145.629 14.296 146.703 13.672C147.154 13.4293 147.553 13.308 147.899 13.308C148.35 13.308 148.749 13.6893 149.095 14.452C149.442 15.18 149.615 15.804 149.615 16.324C149.615 16.6013 149.563 16.8093 149.459 16.948C149.355 17.052 149.13 17.26 148.783 17.572C145.698 20.4147 144.155 22.72 144.155 24.488C144.155 25.528 144.675 26.048 145.715 26.048C146.686 26.048 147.795 25.5453 149.043 24.54C150.291 23.5 151.002 22.98 151.175 22.98L151.539 23.188V23.656C151.297 24.7307 149.806 26.2907 147.067 28.336C144.329 30.3813 142.405 31.404 141.295 31.404C140.637 31.404 140.065 31.196 139.579 30.78C139.094 30.3987 138.851 29.896 138.851 29.272C138.851 28.4747 138.955 27.712 139.163 26.984C139.441 26.048 139.753 25.268 140.099 24.644L141.347 22.408C141.798 21.6107 142.023 21.0907 142.023 20.848C142.023 20.64 141.867 20.536 141.555 20.536C141.313 20.536 140.411 21.1427 138.851 22.356C137.742 23.2227 136.841 23.9853 136.147 24.644C135.246 25.5107 133.911 26.7933 132.143 28.492C131.103 29.4973 130.219 30 129.491 30C129.11 30 128.798 29.8093 128.555 29.428C128.347 29.012 128.243 28.6133 128.243 28.232C128.243 27.296 128.746 26.0653 129.751 24.54C130.202 23.8813 130.774 23.032 131.467 21.992C131.883 21.368 132.091 20.9 132.091 20.588C132.091 20.0333 131.71 19.756 130.947 19.756C129.803 19.756 127.758 21.264 124.811 24.28C124.083 25.0427 123.078 26.3427 121.795 28.18C120.963 29.3933 120.305 30 119.819 30C118.433 30 117.739 28.3707 117.739 25.112C117.739 23.24 118.086 21.68 118.779 20.432C119.022 20.016 119.715 19.0627 120.859 17.572C121.726 16.4627 122.35 15.7 122.731 15.284C123.806 14.14 125.019 13.568 126.371 13.568C126.753 13.568 127.047 13.672 127.255 13.88C127.498 14.088 127.619 14.3133 127.619 14.556C127.619 14.7987 127.498 15.0933 127.255 15.44C126.423 16.272 125.279 17.5547 123.823 19.288C122.229 21.1947 121.431 22.356 121.431 22.772C121.431 22.98 121.483 23.2573 121.587 23.604C121.587 23.6733 121.657 23.8987 121.795 24.28ZM132.195 11.592C131.849 11.2453 131.675 10.5347 131.675 9.46C131.675 7.62267 133.807 5.88933 138.071 4.26C141.677 2.87333 144.623 2.18 146.911 2.18C148.229 2.18 149.13 2.45733 149.615 3.012C149.893 3.324 150.031 3.61866 150.031 3.896C150.031 3.96533 149.997 4.104 149.927 4.312L148.419 6.808C147.899 6.56533 147.31 6.392 146.651 6.288C145.75 6.21866 144.901 6.184 144.103 6.184C142.266 6.184 140.203 6.652 137.915 7.588C135.211 8.69733 133.305 10.032 132.195 11.592ZM157.904 19.34L161.7 12.216C161.318 12.528 160.816 12.944 160.192 13.464C160.018 13.568 159.845 13.6893 159.672 13.828L158.736 14.452C157.349 15.388 155.668 16.376 153.692 17.416H153.38L153.224 17.208C153.501 16.9307 154.333 16.22 155.72 15.076C157.557 13.5853 159.273 12.0253 160.868 10.396L163.572 7.64C163.953 7.224 164.334 6.79067 164.716 6.34C164.958 6.16667 165.305 6.08 165.756 6.08C166.622 6.08 167.194 6.21867 167.472 6.496C167.61 6.63467 167.68 6.87733 167.68 7.224C167.68 8.784 166.952 10.5867 165.496 12.632C163.45 15.4747 162.306 17.1733 162.064 17.728C163.45 17.5547 164.334 17.468 164.716 17.468C165.548 17.468 166.241 17.52 166.796 17.624C167.974 15.6133 168.91 14.14 169.604 13.204C170.921 11.4013 171.961 10.5 172.724 10.5C173.417 10.5 173.764 11.4533 173.764 13.36C173.764 13.984 173.712 14.4 173.608 14.608C173.504 14.816 173.192 15.1453 172.672 15.596C169.898 18.0573 168.338 20.3453 167.992 22.46V23.292C168.096 23.7427 168.286 24.072 168.564 24.28C168.841 24.4533 169.17 24.54 169.552 24.54C170.904 24.54 172.186 23.9853 173.4 22.876C174.37 21.9747 175.029 21.524 175.376 21.524C175.618 21.524 175.74 21.6453 175.74 21.888V22.096C175.636 22.8587 174.284 24.332 171.684 26.516C168.945 28.8387 166.882 30 165.496 30C163.762 30 162.896 29.22 162.896 27.66C162.896 25.892 163.918 23.1707 165.964 19.496C165.86 19.4613 165.582 19.444 165.132 19.444C163.329 19.444 161.7 19.9467 160.244 20.952L158.476 24.124C156.742 27.2093 155.564 29.2027 154.94 30.104C153.796 31.6987 152.86 32.496 152.132 32.496C151.404 32.496 151.04 31.924 151.04 30.78C151.04 28.908 151.785 26.776 153.276 24.384C154.697 22.1653 156.24 20.484 157.904 19.34ZM190.643 13.776C191.753 14.1227 192.307 15.076 192.307 16.636C192.307 17.1907 192.221 17.7973 192.047 18.456C191.562 20.2587 190.921 21.784 190.123 23.032C190.019 23.2053 189.967 23.344 189.967 23.448C189.967 24.0373 190.366 24.332 191.163 24.332C191.614 24.332 192.151 24.124 192.775 23.708C193.087 23.5 193.295 23.396 193.399 23.396C193.781 23.396 193.971 23.5173 193.971 23.76C193.971 24.488 193.087 25.216 191.319 25.944C189.794 26.5333 188.581 26.828 187.679 26.828C185.634 29.3587 183.363 30.624 180.867 30.624C179.099 30.624 177.678 29.792 176.603 28.128C175.667 26.672 175.199 25.008 175.199 23.136C175.199 20.64 176.707 17.988 179.723 15.18C182.739 12.372 185.513 10.968 188.043 10.968C188.737 10.968 189.378 11.1413 189.967 11.488C190.591 11.8347 190.903 12.164 190.903 12.476L190.799 13.256L190.643 13.776ZM185.911 25.268C185.53 24.5053 185.339 23.7253 185.339 22.928C185.339 22.096 185.53 21.1947 185.911 20.224C186.466 18.8027 186.917 17.7107 187.263 16.948C187.402 16.6013 187.489 16.376 187.523 16.272C187.523 15.9253 187.263 15.752 186.743 15.752C186.258 15.752 185.426 16.168 184.247 17C183.311 17.6933 182.549 18.3347 181.959 18.924C180.919 19.964 180.157 20.9 179.671 21.732C179.082 22.7373 178.787 23.8987 178.787 25.216C178.787 25.944 178.995 26.4987 179.411 26.88C179.827 27.2613 180.486 27.452 181.387 27.452C182.739 27.452 184.247 26.724 185.911 25.268Z" fill="white"></path> </svg> 