<?xml version="1.0" encoding="UTF-8"?> <svg xmlns="http://www.w3.org/2000/svg" width="40" height="40" viewBox="0 0 40 40" fill="none"> <path d="M21.6391 22.7045C32.451 15.9785 36.0653 8.52407 35.7162 7.91944C35.1378 6.91765 30.2453 15.4784 20.6617 21.0115C11.0781 26.5446 6.23123 25.271 6.23123 25.271C6.23123 25.271 1.23963 26.5392 1.05822 27.768C1.21492 29.9348 12.0555 28.2376 21.6391 22.7045Z" fill="#E75D5C"></path> <path d="M15.6655 7.53954C13.2436 8.31146 11.0819 9.77811 9.5007 11.7079C7.89945 13.6377 6.85863 15.9921 6.49835 18.4236C6.13806 20.8745 6.45831 23.4025 7.51915 25.6411C8.03955 26.7603 8.7401 27.8024 9.56075 28.7287C10.4014 29.655 11.3822 30.4656 12.443 31.141C14.1844 32.2603 16.206 32.9743 18.2876 33.1866C20.3692 33.3989 22.4909 33.1287 24.4725 32.434C28.4356 31.0638 31.7982 28.0147 33.2193 24.1744C34.6605 20.3534 34.02 15.857 31.6181 12.4798C31.0176 11.6307 30.3371 10.8395 29.5364 10.1448C28.7758 9.43075 27.8952 8.83251 26.9744 8.29217C25.113 7.26937 23.0313 6.57465 20.8696 6.42026C19.7488 6.34307 19.7287 6.0536 20.8897 6.0729C23.1114 6.13079 25.2931 6.76763 27.2547 7.77112C28.2354 8.29217 29.1762 8.8904 29.9968 9.62373C30.8575 10.3185 31.5981 11.1483 32.2586 12.0167C34.9207 15.5289 35.7613 20.3148 34.2602 24.5025C33.9199 25.6025 33.3995 26.5867 32.799 27.5323C32.1985 28.4779 31.458 29.327 30.6573 30.0989C30.257 30.5042 29.8167 30.8515 29.3963 31.1989C28.936 31.5269 28.4956 31.8743 27.9952 32.1638C27.5149 32.4725 27.0145 32.7234 26.5141 32.9936L25.7335 33.341C25.4733 33.4567 25.193 33.5532 24.9328 33.6497C22.7911 34.4216 20.4493 34.7304 18.1475 34.5181C15.8457 34.2866 13.6039 33.5146 11.7024 32.2796C10.5415 31.5269 9.46067 30.6585 8.53995 29.6357C7.61922 28.6129 6.85863 27.4551 6.27817 26.22C5.11726 23.7499 4.75698 20.9516 5.15729 18.2692C5.5576 15.5868 6.6985 13.0202 8.45989 10.9167C10.2013 8.79391 12.6031 7.15358 15.2852 6.30447C16.5663 5.89921 17.7872 5.80273 18.6479 5.84132C19.5286 5.89922 20.049 6.0729 20.049 6.24658C20.049 6.43956 19.5286 6.61324 18.748 6.76762C17.9073 6.9606 16.8265 7.17288 15.6655 7.53954Z" fill="#E75D5C"></path> </svg> 