<?xml version="1.0" encoding="UTF-8"?> <svg xmlns="http://www.w3.org/2000/svg" width="74" height="36" viewBox="0 0 74 36" fill="none"> <path d="M6.38449 10.568V8.888C7.08849 8.376 8.65649 7.464 11.0885 6.152C14.0005 4.552 15.7125 3.752 16.2245 3.752C16.7685 3.752 17.2165 4.072 17.5685 4.712C17.9205 5.32 18.0965 5.928 18.0965 6.536C18.0965 7.208 17.3445 8.776 15.8405 11.24C13.0245 15.848 11.0565 19.16 9.93649 21.176C8.36849 24.024 7.23249 26.312 6.52849 28.04C5.72849 29.992 5.32849 31.816 5.32849 33.512V34.232C5.39249 34.68 5.42449 34.936 5.42449 35C2.25649 34.648 0.672488 32.984 0.672488 30.008C0.672488 27.832 1.85649 24.744 4.22449 20.744C6.04849 17.64 8.09649 14.712 10.3685 11.96C11.5845 10.488 12.1925 9.56 12.1925 9.176C12.1925 8.92 11.9845 8.792 11.5685 8.792C11.4405 8.824 11.2485 8.856 10.9925 8.888C10.5765 8.984 9.74449 9.272 8.49649 9.752L6.38449 10.568ZM41.4545 9.08H31.0385C30.0145 9.816 29.1185 10.648 28.3505 11.576C27.3905 12.792 26.9105 13.88 26.9105 14.84C27.3585 14.744 28.0625 14.616 29.0225 14.456C31.3585 14.104 33.0385 13.928 34.0625 13.928C38.5105 13.928 40.7345 16.28 40.7345 20.984C40.7345 25.048 38.3505 28.6 33.5825 31.64C29.3265 34.36 25.0385 35.72 20.7185 35.72C19.6945 35.72 18.8625 35.496 18.2225 35.048C17.2305 34.344 16.7345 33.144 16.7345 31.448C16.7345 30.264 17.6465 29.096 19.4705 27.944C21.1345 26.888 22.6065 26.36 23.8865 26.36C24.2065 26.36 24.3665 26.52 24.3665 26.84C24.2385 26.904 24.1585 26.952 24.1265 26.984C23.8385 27.144 23.5505 27.288 23.2625 27.416C22.7185 27.64 22.2225 27.88 21.7745 28.136C21.3265 28.392 21.1025 28.632 21.1025 28.856C21.1025 29.24 21.4865 29.512 22.2545 29.672C22.5745 29.736 22.8305 29.768 23.0225 29.768C23.4385 29.768 23.6785 29.752 23.7425 29.72C26.7825 29.528 29.9825 28.248 33.3425 25.88C36.5105 23.64 38.0945 21.752 38.0945 20.216C38.0945 18.84 36.6705 18.152 33.8225 18.152C31.7425 18.152 29.7425 18.488 27.8225 19.16C26.6385 19.576 25.7105 19.784 25.0385 19.784C24.5585 19.784 24.2545 19.672 24.1265 19.448C23.9025 19.224 23.6945 18.712 23.5025 17.912L22.7345 14.792C24.2065 11.176 27.2945 7.464 31.9985 3.656H37.0865C40.7665 3.656 43.5345 3.496 45.3905 3.176C44.7505 5.192 43.4385 7.16 41.4545 9.08ZM54.8795 18.536C52.3515 15.464 51.0875 12.696 51.0875 10.232C51.0875 6.648 53.1995 3.96 57.4235 2.168C60.4315 0.887999 64.3995 0.247998 69.3275 0.247998C70.8635 0.247998 71.6795 0.247998 71.7755 0.247998C72.9275 0.407998 73.5035 0.823998 73.5035 1.496C73.5035 2.52 73.1035 3.576 72.3035 4.664C71.5035 5.752 70.6235 6.36 69.6635 6.488C69.6955 6.552 69.7115 6.648 69.7115 6.776C69.7115 7.384 69.2475 8.248 68.3195 9.368C67.3915 10.488 64.7035 13.24 60.2555 17.624C61.6955 20.056 62.4155 22.104 62.4155 23.768C62.4155 27.096 61.3755 29.832 59.2955 31.976C57.3435 33.992 54.9595 35 52.1435 35C50.7035 35 49.3755 34.632 48.1595 33.896C46.7515 33.032 46.0475 31.928 46.0475 30.584C46.0475 28.184 48.9915 24.168 54.8795 18.536ZM58.4795 15.56C59.6315 14.536 60.2075 13.992 60.2075 13.928C60.3675 13.736 60.9915 13.176 62.0795 12.248C65.8235 9.016 67.6955 7.304 67.6955 7.112C67.6955 6.504 66.2395 6.2 63.3275 6.2C61.6635 6.2 60.1595 6.456 58.8155 6.968C56.9915 7.672 56.0795 8.728 56.0795 10.136C56.0795 11 56.1595 11.672 56.3195 12.152C56.6075 13.08 57.3275 14.216 58.4795 15.56ZM56.3195 21.608C55.0075 22.792 53.6635 24.184 52.2875 25.784C50.6235 27.736 49.7915 29.128 49.7915 29.96C49.7915 30.92 50.4795 31.4 51.8555 31.4C53.4235 31.4 54.7995 30.68 55.9835 29.24C57.0715 27.896 57.6155 26.424 57.6155 24.824C57.6155 23.736 57.1835 22.664 56.3195 21.608Z" fill="#333333"></path> </svg> 