<?xml version="1.0" encoding="UTF-8"?> <svg xmlns="http://www.w3.org/2000/svg" width="251" height="41" viewBox="0 0 251 41" fill="none"> <path d="M4.056 22.332C8.59733 17.444 12.9653 13.7693 17.16 11.308C18.2693 10.6493 19.1533 10.32 19.812 10.32C20.6787 10.32 21.112 10.9787 21.112 12.296C21.112 13.5093 20.5053 14.8613 19.292 16.352C18.9107 16.768 18.3387 17.4267 17.576 18.328C16.2587 19.9573 15.6 21.344 15.6 22.488C15.6 23.528 16.1373 24.048 17.212 24.048C17.9747 24.048 18.824 23.7187 19.76 23.06C20.488 22.4707 21.216 21.8813 21.944 21.292C22.2213 21.084 22.4467 20.98 22.62 20.98C22.8973 20.98 23.036 21.2053 23.036 21.656C23.036 21.864 22.9667 22.0373 22.828 22.176C22.6547 22.4187 22.412 22.696 22.1 23.008C20.852 24.3253 19.4307 25.5907 17.836 26.804C15.6173 28.5373 13.9187 29.404 12.74 29.404C11.076 29.404 10.244 28.4507 10.244 26.544C10.244 25.296 10.6773 23.996 11.544 22.644L13.208 20.512C13.9707 19.5413 14.352 18.9 14.352 18.588C14.352 18.0333 13.988 17.756 13.26 17.756C12.012 17.756 9.94933 19.264 7.072 22.28C6.27467 23.112 5.26933 24.412 4.056 26.18C3.224 27.3933 2.56533 28 2.08 28C0.693333 28 0 26.3707 0 23.112V21.708C0 20.564 0.485333 19.2813 1.456 17.86C2.08 16.6467 3.29333 15.052 5.096 13.076C5.99733 12.1053 6.968 11.62 8.008 11.62C9.256 11.62 9.88 11.9667 9.88 12.66C9.88 12.9373 9.776 13.2147 9.568 13.492C9.464 13.5613 9.23867 13.7693 8.892 14.116C8.44133 14.6013 7.50533 15.6587 6.084 17.288C4.48933 19.1253 3.692 20.2173 3.692 20.564C3.692 21.2573 3.81333 21.8467 4.056 22.332ZM31.4267 13.7L23.3667 20.772C23.0547 21.0493 22.7774 21.2573 22.5347 21.396C22.4654 21.396 22.3787 21.4307 22.2747 21.5C22.032 21.4653 21.8934 21.396 21.8587 21.292V20.876C21.8934 20.7027 22.5694 19.9573 23.8867 18.64C25.204 17.3227 27.0587 15.4853 29.4507 13.128C31.496 11.1867 33.6454 8.604 35.8987 5.38C37.0427 3.75067 38.2387 2.936 39.4867 2.936C39.764 2.936 40.1107 3.04 40.5267 3.248C40.9427 3.42133 41.1507 3.59467 41.1507 3.768L41.0467 3.924C40.0067 5.31067 38.516 7.356 36.5747 10.06C35.4654 11.6893 34.5467 13.0933 33.8187 14.272L32.2587 16.872C33.5414 15.5893 35.1534 14.272 37.0947 12.92C39.4867 11.256 41.2027 10.424 42.2427 10.424C43.9414 10.424 44.7907 11.3773 44.7907 13.284C44.7907 15.1213 43.7334 17.2187 41.6187 19.576C40.0934 21.2747 38.256 22.8867 36.1067 24.412C37.0427 24.828 38.152 25.036 39.4347 25.036C41.9307 25.036 43.9934 23.996 45.6227 21.916C45.9694 21.5693 46.1947 21.396 46.2987 21.396C46.6107 21.396 46.7667 21.5 46.7667 21.708C46.7667 21.9507 46.6974 22.1933 46.5587 22.436C46.2814 22.8867 45.6227 23.6147 44.5827 24.62C43.0574 26.076 41.1507 27.2373 38.8627 28.104C36.6094 29.0053 34.4254 29.456 32.3107 29.456C30.4387 29.456 28.5667 28.78 26.6947 27.428L22.2227 37.672C21.5294 39.232 20.836 40.012 20.1427 40.012C19.7614 40.012 19.4667 39.7693 19.2587 39.284C19.016 38.8333 18.8947 38.3133 18.8947 37.724C18.8947 36.9267 19.4147 34.6733 20.4547 30.964C21.6334 28.7453 23.2627 26.7347 25.3427 24.932L31.4267 13.7ZM28.8787 23.476C29.5027 23.1293 30.2654 22.956 31.1667 22.956C31.756 22.956 32.328 23.06 32.8827 23.268L33.8187 23.736C34.8587 23.008 35.9334 22.0027 37.0427 20.72C38.3947 19.2293 39.1747 18.016 39.3827 17.08C39.4174 16.976 39.4347 16.8373 39.4347 16.664C39.4347 16.4907 39.4174 16.3693 39.3827 16.3C39.1747 15.7453 38.7414 15.468 38.0827 15.468C36.9387 15.468 35.2747 16.56 33.0907 18.744C31.6 20.2 30.196 21.7773 28.8787 23.476ZM60.5373 17.444C62.132 17.028 64.0907 16.0573 66.4133 14.532C66.5173 14.844 66.5693 15.052 66.5693 15.156V16.04C66.5693 16.976 66.5 17.5307 66.3613 17.704C66.188 18.016 65.8067 18.3453 65.2173 18.692C63.0333 20.044 61.9413 21.4827 61.9413 23.008C61.9413 23.736 62.3227 24.1 63.0853 24.1C63.5707 24.1 64.628 23.58 66.2573 22.54C67.02 22.0547 67.5053 21.812 67.7133 21.812C68.0947 21.812 68.2853 22.0373 68.2853 22.488C68.2853 22.9387 67.488 23.7187 65.8933 24.828C62.808 26.9427 60.7627 28 59.7573 28C58.3707 28 57.5907 27.532 57.4173 26.596C57.348 26.18 57.3133 25.868 57.3133 25.66C57.3133 24.6547 57.6253 23.5627 58.2493 22.384C58.7693 21.3787 59.272 20.5987 59.7573 20.044C58.6827 20.7373 57.9373 21.1187 57.5213 21.188C52.3907 28.9187 48.144 32.784 44.7813 32.784C43.3253 32.784 42.5973 32.524 42.5973 32.004C42.5973 31.276 42.9613 30.392 43.6893 29.352C44.1053 28.728 44.816 27.844 45.8213 26.7C46.064 26.9773 46.324 27.1853 46.6013 27.324C46.9133 27.428 47.2253 27.48 47.5373 27.48C48.404 27.48 49.548 26.804 50.9693 25.452C51.5587 24.8627 52.616 23.736 54.1413 22.072C52.6507 22.8 51.2467 23.164 49.9293 23.164C48.8547 23.164 48.196 22.9907 47.9533 22.644C47.572 22.0893 47.3813 20.72 47.3813 18.536C47.3813 16.6987 49.028 14.376 52.3213 11.568C53.6387 10.424 55.1293 9.36667 56.7933 8.396C58.9427 7.148 60.624 6.524 61.8373 6.524C63.3627 6.524 64.1253 8.24 64.1253 11.672C64.1253 13.232 62.9293 15.156 60.5373 17.444ZM57.2093 18.224C59.7053 15.5547 60.9533 13.6653 60.9533 12.556C60.9533 12.2787 60.832 12.088 60.5893 11.984C60.2427 11.9147 59.9653 11.88 59.7573 11.88C58.44 11.88 56.6373 12.5213 54.3493 13.804C51.8533 15.156 50.6053 16.4213 50.6053 17.6C50.6053 18.016 50.796 18.328 51.1773 18.536C51.5587 18.7093 52.0093 18.796 52.5293 18.796C54.5053 18.796 56.0653 18.6053 57.2093 18.224ZM84.5524 21.448L86.4764 19.576C87.6551 18.432 89.4231 16.8893 91.7804 14.948C94.8657 12.4173 96.7377 11.152 97.3964 11.152C97.8817 11.152 98.2804 11.4987 98.5924 12.192C98.9391 12.8507 99.1124 13.4573 99.1124 14.012C99.1124 14.636 98.5751 15.4507 97.5004 16.456C96.6684 17.2187 95.8884 18.1373 95.1604 19.212C94.2244 20.564 93.7564 21.6733 93.7564 22.54C93.7564 23.7533 94.2937 24.36 95.3684 24.36C96.0271 24.36 96.6857 24.1 97.3444 23.58C97.5177 23.4067 97.7604 23.1813 98.0724 22.904C98.4191 22.6267 98.6791 22.4013 98.8524 22.228C99.7884 21.292 100.308 20.824 100.412 20.824C100.759 20.824 100.932 20.98 100.932 21.292C100.932 21.7427 100.655 22.28 100.1 22.904L98.9044 24.256C97.8991 25.3653 96.7377 26.4053 95.4204 27.376C93.6177 28.728 92.1444 29.404 91.0004 29.404C90.0644 29.404 89.3711 29.1613 88.9204 28.676C88.4697 28.1907 88.2444 27.5147 88.2444 26.648C88.2444 25.6773 88.5044 24.6893 89.0244 23.684C89.4057 22.956 90.1337 21.8293 91.2084 20.304C91.9711 19.2293 92.5084 18.2933 92.8204 17.496C89.9777 19.2987 87.6551 21.1013 85.8524 22.904C84.8124 24.0133 83.7724 25.1227 82.7324 26.232C81.1377 27.8613 80.0284 28.676 79.4044 28.676C79.0924 28.676 78.8497 28.3813 78.6764 27.792C78.5031 27.168 78.4164 26.4053 78.4164 25.504C78.4164 24.7413 79.1617 23.268 80.6524 21.084C82.1777 18.8653 82.9404 17.34 82.9404 16.508C82.6631 16.6467 82.2297 16.8893 81.6404 17.236C81.0511 17.548 80.6177 17.7907 80.3404 17.964C80.0977 18.1373 78.2951 20.0093 74.9324 23.58C72.1591 26.5267 70.4604 28 69.8364 28C68.4497 28 67.7564 26.7867 67.7564 24.36C67.7564 23.32 68.2244 21.968 69.1604 20.304C70.1657 18.5013 71.1017 17.6 71.9684 17.6C72.1071 17.6 72.1937 17.6347 72.2284 17.704C72.2977 17.7733 72.3671 17.8427 72.4364 17.912C71.8471 19.5413 71.5524 21.0667 71.5524 22.488C71.5524 23.424 71.6564 23.892 71.8644 23.892C71.9684 23.892 73.1471 22.5747 75.4004 19.94C76.8911 18.2067 78.2257 16.7853 79.4044 15.676C80.3404 14.8093 81.6577 13.6827 83.3564 12.296C85.5404 10.528 86.9097 9.644 87.4644 9.644C88.5391 9.644 89.0764 10.6147 89.0764 12.556C89.0764 12.9373 88.9551 13.3533 88.7124 13.804C88.4697 14.22 88.1577 14.6533 87.7764 15.104C87.0137 16.0053 86.3551 16.8893 85.8004 17.756C84.9684 19.0733 84.5524 20.1307 84.5524 20.928V21.448ZM115.841 11.776C116.95 12.1227 117.505 13.076 117.505 14.636C117.505 15.1907 117.418 15.7973 117.245 16.456C116.759 18.2587 116.118 19.784 115.321 21.032C115.217 21.2053 115.165 21.344 115.165 21.448C115.165 22.0373 115.563 22.332 116.361 22.332C116.811 22.332 117.349 22.124 117.973 21.708C118.285 21.5 118.493 21.396 118.597 21.396C118.978 21.396 119.169 21.5173 119.169 21.76C119.169 22.488 118.285 23.216 116.517 23.944C114.991 24.5333 113.778 24.828 112.877 24.828C110.831 27.3587 108.561 28.624 106.065 28.624C104.297 28.624 102.875 27.792 101.801 26.128C100.865 24.672 100.397 23.008 100.397 21.136C100.397 18.64 101.905 15.988 104.921 13.18C107.937 10.372 110.71 8.968 113.241 8.968C113.934 8.968 114.575 9.14133 115.165 9.488C115.789 9.83467 116.101 10.164 116.101 10.476L115.997 11.256L115.841 11.776ZM111.109 23.268C110.727 22.5053 110.537 21.7253 110.537 20.928C110.537 20.096 110.727 19.1947 111.109 18.224C111.663 16.8027 112.114 15.7107 112.461 14.948C112.599 14.6013 112.686 14.376 112.721 14.272C112.721 13.9253 112.461 13.752 111.941 13.752C111.455 13.752 110.623 14.168 109.445 15C108.509 15.6933 107.746 16.3347 107.157 16.924C106.117 17.964 105.354 18.9 104.869 19.732C104.279 20.7373 103.985 21.8987 103.985 23.216C103.985 23.944 104.193 24.4987 104.609 24.88C105.025 25.2613 105.683 25.452 106.585 25.452C107.937 25.452 109.445 24.724 111.109 23.268ZM136.376 21.552C136.376 19.0907 137.936 16.3173 141.056 13.232C144.349 10.008 147.521 8.396 150.572 8.396C151.161 8.396 151.647 8.51733 152.028 8.76C152.444 9.00267 152.652 9.40133 152.652 9.956C152.652 10.8227 151.976 12.2613 150.624 14.272C149.307 16.2827 148.301 17.288 147.608 17.288C147.261 17.288 147.036 17.0107 146.932 16.456C146.897 16.3173 146.811 16.1267 146.672 15.884C146.568 15.6413 146.412 15.5027 146.204 15.468H145.528C144.488 15.7453 143.275 16.5947 141.888 18.016C140.328 19.6453 139.548 21.0493 139.548 22.228C139.548 23.268 140.033 24.0827 141.004 24.672C141.801 25.1227 142.772 25.348 143.916 25.348C145.06 25.348 146.187 25.1053 147.296 24.62C148.613 24.0653 150.208 23.06 152.08 21.604C152.843 21.0147 153.328 20.72 153.536 20.72L153.848 20.876C153.952 20.9107 154.004 21.032 154.004 21.24C154.004 21.8987 152.496 23.5107 149.48 26.076C148.163 27.22 147.071 28.0347 146.204 28.52C144.783 29.352 143.483 29.768 142.304 29.768C140.259 29.768 138.699 28.676 137.624 26.492C136.792 24.828 136.376 23.1813 136.376 21.552ZM158.105 20.824C158.105 23.5627 159.128 24.932 161.173 24.932C162.421 24.932 164.172 24.204 166.425 22.748C168.713 21.2573 169.823 20.512 169.753 20.512C169.961 20.512 170.065 20.772 170.065 21.292C170.065 21.5693 169.476 22.3147 168.297 23.528C164.345 27.584 161.069 29.612 158.469 29.612C156.875 29.612 155.609 29.0053 154.673 27.792C153.876 26.6827 153.477 25.296 153.477 23.632C153.477 20.4427 154.899 17.1493 157.741 13.752C160.723 10.216 163.773 8.448 166.893 8.448C167.829 8.448 168.575 8.63867 169.129 9.02C169.684 9.40133 169.961 10.06 169.961 10.996C169.961 13.0413 168.471 15.156 165.489 17.34C162.855 19.2813 160.393 20.4427 158.105 20.824ZM158.105 18.9C159.423 18.588 160.948 17.7733 162.681 16.456C164.657 14.9653 165.645 13.6653 165.645 12.556C165.645 11.6547 165.281 11.204 164.553 11.204C163.271 11.204 161.919 12.192 160.497 14.168C159.319 15.7627 158.521 17.34 158.105 18.9ZM180.899 21.24C179.581 22.9387 178.333 24.36 177.155 25.504C175.317 27.272 173.896 28.156 172.891 28.156C171.677 28.156 170.776 27.22 170.187 25.348C169.771 24.0653 169.563 22.6613 169.563 21.136C169.563 19.8533 169.788 18.7267 170.239 17.756C170.447 17.3053 171.053 16.352 172.059 14.896C173.307 13.0587 174.277 11.7933 174.971 11.1C176.08 9.956 177.207 9.384 178.351 9.384C178.767 9.384 179.2 9.47067 179.651 9.644C180.24 9.88667 180.535 10.1813 180.535 10.528C180.535 11.2907 179.859 12.4 178.507 13.856C177.155 15.312 175.82 16.4213 174.503 17.184L173.255 17.912C173.047 18.4667 172.943 19.056 172.943 19.68C172.943 20.3733 173.081 20.98 173.359 21.5C173.671 21.9853 174.052 22.228 174.503 22.228C175.681 22.228 177.484 21.032 179.911 18.64L189.167 9.488C189.548 9.10667 189.843 8.916 190.051 8.916C190.467 8.916 190.779 9.19333 190.987 9.748C191.229 10.268 191.351 10.944 191.351 11.776V12.244C191.351 12.5213 191.281 12.7293 191.143 12.868L186.515 17.912C185.371 19.16 184.799 20.46 184.799 21.812C184.799 22.436 184.903 22.956 185.111 23.372C185.353 23.7533 185.717 23.944 186.203 23.944C186.931 23.944 188.213 23.372 190.051 22.228L191.559 21.292C191.836 21.4653 191.975 21.604 191.975 21.708C191.975 21.8813 191.559 22.436 190.727 23.372C189.999 24.1693 188.751 25.244 186.983 26.596C184.729 28.2947 183.152 29.144 182.251 29.144C180.829 29.144 180.119 28.1733 180.119 26.232C180.119 25.504 180.379 23.84 180.899 21.24ZM192.859 2.26C192.859 2.26 192.893 2.416 192.963 2.728C192.963 3.352 191.871 4.40933 189.687 5.9C187.503 7.356 186.029 8.084 185.267 8.084C183.291 8.084 182.303 6.71467 182.303 3.976C182.303 3.31733 182.719 2.624 183.551 1.896C184.417 1.168 185.18 0.804 185.839 0.804C186.255 0.804 186.463 0.994666 186.463 1.376C186.463 1.48 186.428 1.77467 186.359 2.26C186.255 2.60667 186.203 2.84933 186.203 2.988C186.203 3.82 186.723 4.236 187.763 4.236C188.109 4.236 188.941 3.88933 190.259 3.196C190.293 3.196 190.64 2.95333 191.299 2.468C191.784 2.156 192.131 2 192.339 2C192.581 2 192.755 2.08667 192.859 2.26ZM193.181 19.16C193.181 18.848 193.406 18.2413 193.857 17.34C194.446 16.1613 194.758 15.5373 194.793 15.468C194.931 15.1213 195.001 14.792 195.001 14.48C195.001 14.4453 194.879 14.2893 194.637 14.012C194.394 13.7347 194.273 13.4747 194.273 13.232C194.273 12.192 194.966 10.9267 196.353 9.436C197.739 7.91067 198.935 7.148 199.941 7.148C200.287 7.148 200.461 7.33867 200.461 7.72C200.357 7.96267 200.305 8.22267 200.305 8.5C200.305 8.74267 200.391 8.968 200.565 9.176C200.738 9.34933 201.033 9.436 201.449 9.436L203.581 9.176C204.551 9.072 205.47 8.916 206.337 8.708C206.891 8.63867 207.186 8.604 207.221 8.604C207.602 8.604 207.931 8.79467 208.209 9.176C208.59 9.83467 208.781 10.424 208.781 10.944C208.781 11.7413 208.261 12.6253 207.221 13.596C206.181 14.5667 205.158 15.7973 204.153 17.288C202.905 19.0907 202.281 20.4947 202.281 21.5C202.281 22.124 202.471 22.6093 202.853 22.956C203.234 23.3027 203.719 23.476 204.309 23.476C205.175 23.476 206.649 22.644 208.729 20.98C209.075 20.7027 209.37 20.564 209.613 20.564C209.959 20.564 210.133 20.7373 210.133 21.084C210.133 21.3613 209.509 22.0893 208.261 23.268C206.909 24.5507 205.869 25.452 205.141 25.972C203.927 26.908 202.714 27.532 201.501 27.844C200.842 28.0173 200.114 28.104 199.317 28.104C197.549 28.104 196.665 26.9947 196.665 24.776C196.665 23.736 197.063 22.5573 197.861 21.24C198.311 20.512 199.143 19.42 200.357 17.964C200.946 17.34 201.795 16.352 202.905 15C203.182 14.6187 203.321 14.3067 203.321 14.064C203.321 13.5093 202.679 13.232 201.397 13.232C199.49 13.232 198.259 13.4053 197.705 13.752C197.358 13.96 196.977 14.584 196.561 15.624C196.006 17.0107 195.278 18.0507 194.377 18.744C194.099 18.8133 193.701 18.952 193.181 19.16ZM228.689 11.152C229.417 12.4693 229.781 13.388 229.781 13.908C229.781 14.2547 229.139 15.4333 227.857 17.444C227.579 17.86 227.181 18.484 226.661 19.316C226.037 20.356 225.725 21.24 225.725 21.968C225.725 23.32 226.349 23.996 227.597 23.996C228.117 23.996 228.585 23.8747 229.001 23.632C229.001 23.632 229.833 23.1467 231.497 22.176C231.67 22.072 232.069 21.7773 232.693 21.292C232.97 21.084 233.195 20.98 233.369 20.98L233.629 21.292C233.629 21.5693 232.554 22.7653 230.405 24.88C229.434 25.816 228.723 26.4747 228.273 26.856C226.505 28.2773 225.031 28.988 223.853 28.988C223.055 28.988 222.379 28.728 221.825 28.208C221.305 27.688 221.045 27.0293 221.045 26.232C221.045 24.7413 221.443 23.1987 222.241 21.604C222.449 21.2227 222.761 20.564 223.177 19.628C217.769 25.2093 214.25 28 212.621 28C211.65 28 210.87 27.1507 210.281 25.452C209.83 24.1693 209.605 22.9213 209.605 21.708C209.605 18.5533 211.997 15.3467 216.781 12.088C218.445 10.944 220.195 9.956 222.033 9.124C224.459 8.01467 226.314 7.46 227.597 7.46C228.255 7.46 228.845 7.668 229.365 8.084C229.885 8.46533 230.145 8.88133 230.145 9.332C230.145 9.57467 230.041 9.83467 229.833 10.112C229.833 10.112 229.642 10.2853 229.261 10.632L228.689 11.152ZM212.569 22.124C212.638 22.54 212.69 22.8693 212.725 23.112C212.794 23.32 212.967 23.476 213.245 23.58C213.279 23.6147 213.366 23.632 213.505 23.632C214.025 23.632 214.839 23.3373 215.949 22.748C218.583 21.3613 221.079 19.2813 223.437 16.508C224.442 15.3293 224.945 14.4973 224.945 14.012C224.945 13.8387 224.858 13.6827 224.685 13.544C224.546 13.4053 224.269 13.336 223.853 13.336C221.703 13.336 219.329 14.2547 216.729 16.092C213.955 18.068 212.569 20.0787 212.569 22.124ZM233.104 21.552C233.104 19.0907 234.664 16.3173 237.784 13.232C241.078 10.008 244.25 8.396 247.3 8.396C247.89 8.396 248.375 8.51733 248.756 8.76C249.172 9.00267 249.38 9.40133 249.38 9.956C249.38 10.8227 248.704 12.2613 247.352 14.272C246.035 16.2827 245.03 17.288 244.336 17.288C243.99 17.288 243.764 17.0107 243.66 16.456C243.626 16.3173 243.539 16.1267 243.4 15.884C243.296 15.6413 243.14 15.5027 242.932 15.468H242.256C241.216 15.7453 240.003 16.5947 238.616 18.016C237.056 19.6453 236.276 21.0493 236.276 22.228C236.276 23.268 236.762 24.0827 237.732 24.672C238.53 25.1227 239.5 25.348 240.644 25.348C241.788 25.348 242.915 25.1053 244.024 24.62C245.342 24.0653 246.936 23.06 248.808 21.604C249.571 21.0147 250.056 20.72 250.264 20.72L250.576 20.876C250.68 20.9107 250.732 21.032 250.732 21.24C250.732 21.8987 249.224 23.5107 246.208 26.076C244.891 27.22 243.799 28.0347 242.932 28.52C241.511 29.352 240.211 29.768 239.032 29.768C236.987 29.768 235.427 28.676 234.352 26.492C233.52 24.828 233.104 23.1813 233.104 21.552Z" fill="white"></path> </svg> 