<?xml version="1.0" encoding="UTF-8"?> <svg xmlns="http://www.w3.org/2000/svg" width="128" height="52" viewBox="0 0 128 52" fill="none"> <path d="M12.116 38.756L10.92 40.94C8.32 45.724 6.53467 48.688 5.564 49.832C4.48933 51.1147 3.51867 51.756 2.652 51.756C1.404 51.756 0.78 50.3173 0.78 47.44C0.78 44.32 1.54267 41.928 3.068 40.264C3.796 39.4667 5.28667 38.6173 7.54 37.716L9.88 36.78C10.8853 34.8387 12.272 32.3947 14.04 29.448C12.7227 30.592 11.284 31.788 9.724 33.036C7.36667 34.908 5.668 35.844 4.628 35.844C3.62267 35.844 2.58267 34.9253 1.508 33.088C0.502667 31.3893 0 29.9853 0 28.876C0 26.172 2.51333 23.3813 7.54 20.504C12.1507 17.8693 15.964 16.552 18.98 16.552C20.956 16.552 21.944 18.2853 21.944 21.752C21.944 22.4453 21.7707 23.0693 21.424 23.624L13.624 35.896L22.516 31.788C22.7587 31.6493 23.0013 31.58 23.244 31.58C23.6253 31.58 23.816 31.736 23.816 32.048C23.816 32.2213 23.7293 32.4293 23.556 32.672C23.4867 32.7413 23.4 32.8107 23.296 32.88L12.116 38.756ZM4.836 31.632C5.876 31.632 8.35467 30.2107 12.272 27.368C16.3627 24.3867 18.408 22.324 18.408 21.18C18.408 21.1107 18.3733 21.0413 18.304 20.972C18.1307 20.7987 17.9573 20.712 17.784 20.712C16.9867 20.712 15.4093 21.232 13.052 22.272C11.0067 23.208 9.48133 24.0053 8.476 24.664C7.02 25.6 5.98 26.432 5.356 27.16C4.42 28.2347 3.952 29.396 3.952 30.644C3.952 31.3027 4.24667 31.632 4.836 31.632ZM8.632 39.64C4.54133 40.992 2.496 43.7653 2.496 47.96C3.50133 47.8213 4.45467 47.0413 5.356 45.62C5.564 45.2733 6.188 44.1467 7.228 42.24L8.632 39.64ZM28.4444 28.824C28.4444 31.5627 29.4671 32.932 31.5124 32.932C32.7604 32.932 34.5111 32.204 36.7644 30.748C39.0524 29.2573 40.1617 28.512 40.0924 28.512C40.3004 28.512 40.4044 28.772 40.4044 29.292C40.4044 29.5693 39.8151 30.3147 38.6364 31.528C34.6844 35.584 31.4084 37.612 28.8084 37.612C27.2137 37.612 25.9484 37.0053 25.0124 35.792C24.2151 34.6827 23.8164 33.296 23.8164 31.632C23.8164 28.4427 25.2377 25.1493 28.0804 21.752C31.0617 18.216 34.1124 16.448 37.2324 16.448C38.1684 16.448 38.9137 16.6387 39.4684 17.02C40.0231 17.4013 40.3004 18.06 40.3004 18.996C40.3004 21.0413 38.8097 23.156 35.8284 25.34C33.1937 27.2813 30.7324 28.4427 28.4444 28.824ZM28.4444 26.9C29.7617 26.588 31.2871 25.7733 33.0204 24.456C34.9964 22.9653 35.9844 21.6653 35.9844 20.556C35.9844 19.6547 35.6204 19.204 34.8924 19.204C33.6097 19.204 32.2577 20.192 30.8364 22.168C29.6577 23.7627 28.8604 25.34 28.4444 26.9ZM50.3539 30.592C47.4765 34.1973 45.3099 36 43.8539 36C42.8832 36 42.0339 35.1853 41.3059 33.556C40.7165 32.1693 40.4219 30.9213 40.4219 29.812C40.4219 27.3507 41.4965 24.6813 43.6459 21.804C45.5525 19.2733 47.2165 17.8173 48.6379 17.436C48.7765 17.4013 48.9672 17.384 49.2099 17.384C49.6259 17.384 49.8859 17.4013 49.9899 17.436C50.2672 17.436 50.6139 17.4707 51.0299 17.54C51.3419 17.644 51.4979 17.9733 51.4979 18.528C51.4979 19.6373 50.5792 21.024 48.7419 22.688C46.9045 24.352 45.3965 25.3053 44.2179 25.548C43.9405 26.9347 43.8019 27.8533 43.8019 28.304C43.8019 29.3787 44.1485 29.916 44.8419 29.916C45.5699 29.916 47.5805 28.3907 50.8739 25.34C53.9592 22.4973 55.7445 20.7813 56.2299 20.192C56.7499 19.568 57.1659 19.1347 57.4779 18.892C57.8939 18.4067 58.3272 17.9387 58.7779 17.488C59.4365 16.7947 59.9219 16.448 60.2339 16.448C60.6152 16.448 60.9619 16.6733 61.2739 17.124C61.6205 17.54 61.7939 17.9387 61.7939 18.32C61.7939 18.944 61.6032 19.5507 61.2219 20.14C61.0832 20.348 60.5979 20.8333 59.7659 21.596C55.8832 25.1667 53.9419 27.628 53.9419 28.98C53.9419 29.188 54.0112 29.448 54.1499 29.76C54.3232 30.0373 54.5139 30.176 54.7219 30.176C55.4845 30.176 57.4779 28.876 60.7019 26.276C63.6139 23.9533 66.2832 21.1453 68.7099 17.852C69.0912 17.4707 69.4379 17.28 69.7499 17.28C70.2699 17.28 70.6859 17.5227 70.9979 18.008C71.3445 18.4587 71.5179 18.9613 71.5179 19.516C71.5179 19.8973 71.3965 20.2267 71.1539 20.504L70.3219 21.336C68.4845 23.1733 67.3059 24.404 66.7859 25.028C65.2259 26.9 64.4459 28.4253 64.4459 29.604C64.4459 31.1987 65.1739 31.996 66.6299 31.996C67.4619 31.996 68.7619 31.2507 70.5299 29.76C71.1885 29.2053 71.5699 28.928 71.6739 28.928C72.1939 28.928 72.4539 29.0493 72.4539 29.292C72.4539 30.332 71.1885 31.892 68.6579 33.972C66.1272 36.052 64.2899 37.092 63.1459 37.092C61.0312 37.092 59.9739 35.9133 59.9739 33.556C59.9739 32.5853 60.1992 31.3547 60.6499 29.864C59.7832 31.1467 58.7085 32.3947 57.4259 33.608C55.7272 35.2027 54.3579 36 53.3179 36C52.4165 36 51.6712 35.428 51.0819 34.284C50.5619 33.348 50.3019 32.3947 50.3019 31.424C50.3019 30.9733 50.3192 30.696 50.3539 30.592ZM77.0928 28.824C77.0928 31.5627 78.1155 32.932 80.1608 32.932C81.4088 32.932 83.1595 32.204 85.4128 30.748C87.7008 29.2573 88.8102 28.512 88.7408 28.512C88.9488 28.512 89.0528 28.772 89.0528 29.292C89.0528 29.5693 88.4635 30.3147 87.2848 31.528C83.3328 35.584 80.0568 37.612 77.4568 37.612C75.8622 37.612 74.5968 37.0053 73.6608 35.792C72.8635 34.6827 72.4648 33.296 72.4648 31.632C72.4648 28.4427 73.8862 25.1493 76.7288 21.752C79.7102 18.216 82.7608 16.448 85.8808 16.448C86.8168 16.448 87.5622 16.6387 88.1168 17.02C88.6715 17.4013 88.9488 18.06 88.9488 18.996C88.9488 21.0413 87.4582 23.156 84.4768 25.34C81.8422 27.2813 79.3808 28.4427 77.0928 28.824ZM77.0928 26.9C78.4102 26.588 79.9355 25.7733 81.6688 24.456C83.6448 22.9653 84.6328 21.6653 84.6328 20.556C84.6328 19.6547 84.2688 19.204 83.5408 19.204C82.2582 19.204 80.9062 20.192 79.4848 22.168C78.3062 23.7627 77.5088 25.34 77.0928 26.9ZM109.714 28.096V30.28C108.189 31.216 106.854 31.684 105.71 31.684C105.086 31.684 104.618 31.6147 104.306 31.476C104.029 31.4413 103.578 31.2507 102.954 30.904C101.117 32.984 99.817 34.3707 99.0543 35.064C97.1476 36.7627 95.449 37.612 93.9583 37.612C92.849 37.612 91.9303 37.1613 91.2023 36.26C90.2663 35.0813 89.7983 33.2787 89.7983 30.852C89.7983 25.8253 91.5663 20.7293 95.1023 15.564C97.4943 12.0627 100.874 8.40533 105.242 4.592C108.536 1.71466 110.685 0.275998 111.69 0.275998C112.072 0.275998 112.384 0.501332 112.626 0.951999C112.904 1.368 113.042 1.784 113.042 2.2C113.042 4.14133 110.91 7.88533 106.646 13.432C103.457 17.5227 100.493 20.972 97.7543 23.78C96.437 25.132 95.3103 26.1027 94.3743 26.692C94.2356 27.94 94.1663 29.4133 94.1663 31.112C94.1663 32.672 94.7903 33.452 96.0383 33.452C96.801 33.452 97.581 33.036 98.3783 32.204C99.037 31.5107 99.5396 30.748 99.8863 29.916C99.4356 29.3613 99.2103 28.6853 99.2103 27.888C99.2103 26.5013 100.077 24.8547 101.81 22.948C103.578 21.0067 105.138 20.036 106.49 20.036C107.08 20.036 107.374 20.8333 107.374 22.428C107.374 23.0173 106.889 24.248 105.918 26.12C105.606 26.7093 105.364 27.16 105.19 27.472C104.878 28.0267 104.584 28.46 104.306 28.772C104.93 29.084 105.606 29.24 106.334 29.24C107.201 29.24 108.328 28.8587 109.714 28.096ZM95.1543 23.26C96.7836 21.7 97.945 20.5387 98.6383 19.776C100.406 17.8347 102.365 15.46 104.514 12.652C105.485 11.404 106.352 10.1907 107.114 9.012C108.362 7.10533 108.986 5.892 108.986 5.372C108.986 4.99067 108.813 4.8 108.466 4.8C107.912 4.8 106.75 5.71866 104.982 7.556C99.7476 12.9987 96.4716 18.2333 95.1543 23.26ZM124.116 19.776C125.225 20.1227 125.78 21.076 125.78 22.636C125.78 23.1907 125.693 23.7973 125.52 24.456C125.035 26.2587 124.393 27.784 123.596 29.032C123.492 29.2053 123.44 29.344 123.44 29.448C123.44 30.0373 123.839 30.332 124.636 30.332C125.087 30.332 125.624 30.124 126.248 29.708C126.56 29.5 126.768 29.396 126.872 29.396C127.253 29.396 127.444 29.5173 127.444 29.76C127.444 30.488 126.56 31.216 124.792 31.944C123.267 32.5333 122.053 32.828 121.152 32.828C119.107 35.3587 116.836 36.624 114.34 36.624C112.572 36.624 111.151 35.792 110.076 34.128C109.14 32.672 108.672 31.008 108.672 29.136C108.672 26.64 110.18 23.988 113.196 21.18C116.212 18.372 118.985 16.968 121.516 16.968C122.209 16.968 122.851 17.1413 123.44 17.488C124.064 17.8347 124.376 18.164 124.376 18.476L124.272 19.256L124.116 19.776ZM119.384 31.268C119.003 30.5053 118.812 29.7253 118.812 28.928C118.812 28.096 119.003 27.1947 119.384 26.224C119.939 24.8027 120.389 23.7107 120.736 22.948C120.875 22.6013 120.961 22.376 120.996 22.272C120.996 21.9253 120.736 21.752 120.216 21.752C119.731 21.752 118.899 22.168 117.72 23C116.784 23.6933 116.021 24.3347 115.432 24.924C114.392 25.964 113.629 26.9 113.144 27.732C112.555 28.7373 112.26 29.8987 112.26 31.216C112.26 31.944 112.468 32.4987 112.884 32.88C113.3 33.2613 113.959 33.452 114.86 33.452C116.212 33.452 117.72 32.724 119.384 31.268Z" fill="#333333"></path> </svg> 