<?xml version="1.0" encoding="UTF-8"?> <svg xmlns="http://www.w3.org/2000/svg" width="358" height="43" viewBox="0 0 358 43" fill="none"> <path d="M5.824 24.592L1.664 29.688L1.248 30C0.797333 30 0.450667 29.1853 0.208 27.556C0.0693333 26.4813 0 25.4933 0 24.592C0 23.8293 0.0346667 23.188 0.104 22.668C0.277333 21.2467 1.352 18.7853 3.328 15.284C5.44267 11.5747 7.02 9.72 8.06 9.72C8.44133 9.72 8.77067 10.24 9.048 11.28C9.256 12.0773 9.36 12.7707 9.36 13.36C9.36 14.1573 8.84 15.0413 7.8 16.012C6.79467 16.948 5.85867 18.04 4.992 19.288C3.952 20.8133 3.432 22.1653 3.432 23.344C3.432 23.344 3.46667 23.5867 3.536 24.072C6.27467 20.536 9.42933 17.416 13 14.712C16.1893 12.2853 18.4427 11.072 19.76 11.072C20.3493 11.072 20.7827 11.3667 21.06 11.956C21.372 12.5107 21.528 13.1 21.528 13.724C21.528 16.7747 20.748 18.9587 19.188 20.276C18.564 20.276 17.9227 20.1547 17.264 19.912C16.3973 19.5653 15.964 19.1493 15.964 18.664C15.964 18.56 16.1373 18.3347 16.484 17.988C16.8653 17.78 17.1253 17.4507 17.264 17V16.428C17.1253 16.116 16.848 15.96 16.432 15.96C15.5307 15.96 14.2307 16.688 12.532 18.144C11.1453 19.3227 9.94933 20.5187 8.944 21.732C10.296 22.1827 11.5613 23.2053 12.74 24.8C13.9187 26.3947 14.8547 27.192 15.548 27.192C16.068 27.192 16.9693 26.7933 18.252 25.996C18.356 25.9267 19.1013 25.424 20.488 24.488C21.736 23.6213 22.3773 23.188 22.412 23.188C22.6893 23.188 22.828 23.3613 22.828 23.708C22.828 24.124 22.256 24.9733 21.112 26.256C19.968 27.504 19.1013 28.336 18.512 28.752C16.1893 30.4853 14.3 31.352 12.844 31.352C11.6307 31.352 10.5907 30.884 9.724 29.948C9.204 29.3933 8.64933 28.492 8.06 27.244C7.88667 26.8627 7.60933 26.3773 7.228 25.788C6.88133 25.1987 6.41333 24.8 5.824 24.592ZM41.9356 13.152C42.6636 14.4693 43.0276 15.388 43.0276 15.908C43.0276 16.2547 42.3862 17.4333 41.1036 19.444C40.8262 19.86 40.4276 20.484 39.9076 21.316C39.2836 22.356 38.9716 23.24 38.9716 23.968C38.9716 25.32 39.5956 25.996 40.8436 25.996C41.3636 25.996 41.8316 25.8747 42.2476 25.632C42.2476 25.632 43.0796 25.1467 44.7436 24.176C44.9169 24.072 45.3156 23.7773 45.9396 23.292C46.2169 23.084 46.4422 22.98 46.6156 22.98L46.8756 23.292C46.8756 23.5693 45.8009 24.7653 43.6516 26.88C42.6809 27.816 41.9702 28.4747 41.5196 28.856C39.7516 30.2773 38.2782 30.988 37.0996 30.988C36.3022 30.988 35.6262 30.728 35.0716 30.208C34.5516 29.688 34.2916 29.0293 34.2916 28.232C34.2916 26.7413 34.6902 25.1987 35.4876 23.604C35.6956 23.2227 36.0076 22.564 36.4236 21.628C31.0156 27.2093 27.4969 30 25.8676 30C24.8969 30 24.1169 29.1507 23.5276 27.452C23.0769 26.1693 22.8516 24.9213 22.8516 23.708C22.8516 20.5533 25.2436 17.3467 30.0276 14.088C31.6916 12.944 33.4422 11.956 35.2796 11.124C37.7062 10.0147 39.5609 9.46 40.8436 9.46C41.5022 9.46 42.0916 9.668 42.6116 10.084C43.1316 10.4653 43.3916 10.8813 43.3916 11.332C43.3916 11.5747 43.2876 11.8347 43.0796 12.112C43.0796 12.112 42.8889 12.2853 42.5076 12.632L41.9356 13.152ZM25.8156 24.124C25.8849 24.54 25.9369 24.8693 25.9716 25.112C26.0409 25.32 26.2142 25.476 26.4916 25.58C26.5262 25.6147 26.6129 25.632 26.7516 25.632C27.2716 25.632 28.0862 25.3373 29.1956 24.748C31.8302 23.3613 34.3262 21.2813 36.6836 18.508C37.6889 17.3293 38.1916 16.4973 38.1916 16.012C38.1916 15.8387 38.1049 15.6827 37.9316 15.544C37.7929 15.4053 37.5156 15.336 37.0996 15.336C34.9502 15.336 32.5756 16.2547 29.9756 18.092C27.2022 20.068 25.8156 22.0787 25.8156 24.124ZM52.6951 24.592L48.5351 29.688L48.1191 30C47.6684 30 47.3218 29.1853 47.0791 27.556C46.9404 26.4813 46.8711 25.4933 46.8711 24.592C46.8711 23.8293 46.9058 23.188 46.9751 22.668C47.1484 21.2467 48.2231 18.7853 50.1991 15.284C52.3138 11.5747 53.8911 9.72 54.9311 9.72C55.3124 9.72 55.6418 10.24 55.9191 11.28C56.1271 12.0773 56.2311 12.7707 56.2311 13.36C56.2311 14.1573 55.7111 15.0413 54.6711 16.012C53.6658 16.948 52.7298 18.04 51.8631 19.288C50.8231 20.8133 50.3031 22.1653 50.3031 23.344C50.3031 23.344 50.3378 23.5867 50.4071 24.072C53.1458 20.536 56.3004 17.416 59.8711 14.712C63.0604 12.2853 65.3138 11.072 66.6311 11.072C67.2204 11.072 67.6538 11.3667 67.9311 11.956C68.2431 12.5107 68.3991 13.1 68.3991 13.724C68.3991 16.7747 67.6191 18.9587 66.0591 20.276C65.4351 20.276 64.7938 20.1547 64.1351 19.912C63.2684 19.5653 62.8351 19.1493 62.8351 18.664C62.8351 18.56 63.0084 18.3347 63.3551 17.988C63.7364 17.78 63.9964 17.4507 64.1351 17V16.428C63.9964 16.116 63.7191 15.96 63.3031 15.96C62.4018 15.96 61.1018 16.688 59.4031 18.144C58.0164 19.3227 56.8204 20.5187 55.8151 21.732C57.1671 22.1827 58.4324 23.2053 59.6111 24.8C60.7898 26.3947 61.7258 27.192 62.4191 27.192C62.9391 27.192 63.8404 26.7933 65.1231 25.996C65.2271 25.9267 65.9724 25.424 67.3591 24.488C68.6071 23.6213 69.2484 23.188 69.2831 23.188C69.5604 23.188 69.6991 23.3613 69.6991 23.708C69.6991 24.124 69.1271 24.9733 67.9831 26.256C66.8391 27.504 65.9724 28.336 65.3831 28.752C63.0604 30.4853 61.1711 31.352 59.7151 31.352C58.5018 31.352 57.4618 30.884 56.5951 29.948C56.0751 29.3933 55.5204 28.492 54.9311 27.244C54.7578 26.8627 54.4804 26.3773 54.0991 25.788C53.7524 25.1987 53.2844 24.8 52.6951 24.592ZM104.749 23.448L106.673 21.576C107.852 20.432 109.62 18.8893 111.977 16.948C115.062 14.4173 116.934 13.152 117.593 13.152C118.078 13.152 118.477 13.4987 118.789 14.192C119.136 14.8507 119.309 15.4573 119.309 16.012C119.309 16.636 118.772 17.4507 117.697 18.456C116.865 19.2187 116.085 20.1373 115.357 21.212C114.421 22.564 113.953 23.6733 113.953 24.54C113.953 25.7533 114.49 26.36 115.565 26.36C116.224 26.36 116.882 26.1 117.541 25.58C117.714 25.4067 117.957 25.1813 118.269 24.904C118.616 24.6267 118.876 24.4013 119.049 24.228C119.985 23.292 120.505 22.824 120.609 22.824C120.956 22.824 121.129 22.98 121.129 23.292C121.129 23.7427 120.852 24.28 120.297 24.904L119.101 26.256C118.096 27.3653 116.934 28.4053 115.617 29.376C113.814 30.728 112.341 31.404 111.197 31.404C110.261 31.404 109.568 31.1613 109.117 30.676C108.666 30.1907 108.441 29.5147 108.441 28.648C108.441 27.6773 108.701 26.6893 109.221 25.684C109.602 24.956 110.33 23.8293 111.405 22.304C112.168 21.2293 112.705 20.2933 113.017 19.496C110.174 21.2987 107.852 23.1013 106.049 24.904C105.009 26.0133 103.969 27.1227 102.929 28.232C101.334 29.8613 100.225 30.676 99.6011 30.676C99.2891 30.676 99.0465 30.3813 98.8731 29.792C98.6998 29.168 98.6131 28.4053 98.6131 27.504C98.6131 26.7413 99.3585 25.268 100.849 23.084C102.374 20.8653 103.137 19.34 103.137 18.508C102.86 18.6467 102.426 18.8893 101.837 19.236C101.248 19.548 100.814 19.7907 100.537 19.964C100.294 20.1373 98.4918 22.0093 95.1291 25.58C92.3558 28.5267 90.6571 30 90.0331 30C88.6465 30 87.9531 28.7867 87.9531 26.36C87.9531 25.32 88.4211 23.968 89.3571 22.304C90.3625 20.5013 91.2985 19.6 92.1651 19.6C92.3038 19.6 92.3905 19.6347 92.4251 19.704C92.4945 19.7733 92.5638 19.8427 92.6331 19.912C92.0438 21.5413 91.7491 23.0667 91.7491 24.488C91.7491 25.424 91.8531 25.892 92.0611 25.892C92.1651 25.892 93.3438 24.5747 95.5971 21.94C97.0878 20.2067 98.4225 18.7853 99.6011 17.676C100.537 16.8093 101.854 15.6827 103.553 14.296C105.737 12.528 107.106 11.644 107.661 11.644C108.736 11.644 109.273 12.6147 109.273 14.556C109.273 14.9373 109.152 15.3533 108.909 15.804C108.666 16.22 108.354 16.6533 107.973 17.104C107.21 18.0053 106.552 18.8893 105.997 19.756C105.165 21.0733 104.749 22.1307 104.749 22.928V23.448ZM125.585 18.352C123.852 18.6987 122.587 18.872 121.789 18.872C121.339 18.872 121.113 18.5947 121.113 18.04C121.113 17.832 121.321 17.6413 121.737 17.468C123.471 16.8093 124.632 16.272 125.221 15.856L130.265 12.32C130.577 12.0773 131.323 11.4533 132.501 10.448C133.16 9.85867 133.628 9.564 133.905 9.564C135.015 9.564 135.829 10.6213 136.349 12.736C133.715 14.3653 132.051 15.492 131.357 16.116C130.664 16.74 129.919 17.6587 129.121 18.872C128.497 19.808 128.064 20.536 127.821 21.056C127.301 22.1653 127.041 23.2747 127.041 24.384C127.041 25.3547 127.145 26.0307 127.353 26.412C127.596 26.7587 127.873 26.932 128.185 26.932C128.601 26.932 129.087 26.5853 129.641 25.892C129.641 24.0547 130.057 22.356 130.889 20.796C131.929 18.9587 133.299 18.04 134.997 18.04C135.205 18.04 135.396 18.1093 135.569 18.248C136.159 18.664 136.453 19.34 136.453 20.276C136.453 20.6227 136.401 21.0387 136.297 21.524C138.1 20.5533 140.613 17.6587 143.837 12.84C144.357 12.0773 144.808 11.696 145.189 11.696C145.501 11.696 145.813 12.0253 146.125 12.684C146.472 13.308 146.645 13.8973 146.645 14.452C146.645 14.9373 146.004 15.8733 144.721 17.26C143.577 18.508 142.763 19.444 142.277 20.068C141.237 21.4547 140.717 22.7373 140.717 23.916C140.717 24.6093 140.804 25.1467 140.977 25.528C141.185 25.9093 141.567 26.1 142.121 26.1C143.473 26.1 144.808 25.4413 146.125 24.124C146.507 23.7427 146.801 23.552 147.009 23.552C147.425 23.552 147.633 23.6733 147.633 23.916C147.633 24.4707 146.767 25.5627 145.033 27.192C143.647 28.4747 142.641 29.3587 142.017 29.844C140.735 30.8147 139.625 31.3 138.689 31.3C136.921 31.3 136.037 30.364 136.037 28.492C136.037 26.5507 136.453 24.8 137.285 23.24C136.973 23.552 136.488 23.8467 135.829 24.124L135.205 24.384C134.443 25.4933 133.351 26.6547 131.929 27.868C130.231 29.2893 128.861 30 127.821 30C126.747 30 125.845 29.116 125.117 27.348C124.493 25.892 124.181 24.54 124.181 23.292C124.181 21.8707 124.649 20.224 125.585 18.352ZM174.744 15.7L166.684 22.772C166.372 23.0493 166.094 23.2573 165.852 23.396C165.782 23.396 165.696 23.4307 165.592 23.5C165.349 23.4653 165.21 23.396 165.176 23.292V22.876C165.21 22.7027 165.886 21.9573 167.204 20.64C168.521 19.3227 170.376 17.4853 172.768 15.128C174.813 13.1867 176.962 10.604 179.216 7.38C180.36 5.75067 181.556 4.936 182.804 4.936C183.081 4.936 183.428 5.04 183.844 5.248C184.26 5.42133 184.468 5.59467 184.468 5.768L184.364 5.924C183.324 7.31067 181.833 9.356 179.892 12.06C178.782 13.6893 177.864 15.0933 177.136 16.272L175.576 18.872C176.858 17.5893 178.47 16.272 180.412 14.92C182.804 13.256 184.52 12.424 185.56 12.424C187.258 12.424 188.108 13.3773 188.108 15.284C188.108 17.1213 187.05 19.2187 184.936 21.576C183.41 23.2747 181.573 24.8867 179.424 26.412C180.36 26.828 181.469 27.036 182.752 27.036C185.248 27.036 187.31 25.996 188.94 23.916C189.286 23.5693 189.512 23.396 189.616 23.396C189.928 23.396 190.084 23.5 190.084 23.708C190.084 23.9507 190.014 24.1933 189.876 24.436C189.598 24.8867 188.94 25.6147 187.9 26.62C186.374 28.076 184.468 29.2373 182.18 30.104C179.926 31.0053 177.742 31.456 175.628 31.456C173.756 31.456 171.884 30.78 170.012 29.428L165.54 39.672C164.846 41.232 164.153 42.012 163.46 42.012C163.078 42.012 162.784 41.7693 162.576 41.284C162.333 40.8333 162.212 40.3133 162.212 39.724C162.212 38.9267 162.732 36.6733 163.772 32.964C164.95 30.7453 166.58 28.7347 168.66 26.932L174.744 15.7ZM172.196 25.476C172.82 25.1293 173.582 24.956 174.484 24.956C175.073 24.956 175.645 25.06 176.2 25.268L177.136 25.736C178.176 25.008 179.25 24.0027 180.36 22.72C181.712 21.2293 182.492 20.016 182.7 19.08C182.734 18.976 182.752 18.8373 182.752 18.664C182.752 18.4907 182.734 18.3693 182.7 18.3C182.492 17.7453 182.058 17.468 181.4 17.468C180.256 17.468 178.592 18.56 176.408 20.744C174.917 22.2 173.513 23.7773 172.196 25.476ZM209.158 13.152C209.886 14.4693 210.25 15.388 210.25 15.908C210.25 16.2547 209.609 17.4333 208.326 19.444C208.049 19.86 207.65 20.484 207.13 21.316C206.506 22.356 206.194 23.24 206.194 23.968C206.194 25.32 206.818 25.996 208.066 25.996C208.586 25.996 209.054 25.8747 209.47 25.632C209.47 25.632 210.302 25.1467 211.966 24.176C212.14 24.072 212.538 23.7773 213.162 23.292C213.44 23.084 213.665 22.98 213.838 22.98L214.098 23.292C214.098 23.5693 213.024 24.7653 210.874 26.88C209.904 27.816 209.193 28.4747 208.742 28.856C206.974 30.2773 205.501 30.988 204.322 30.988C203.525 30.988 202.849 30.728 202.294 30.208C201.774 29.688 201.514 29.0293 201.514 28.232C201.514 26.7413 201.913 25.1987 202.71 23.604C202.918 23.2227 203.23 22.564 203.646 21.628C198.238 27.2093 194.72 30 193.09 30C192.12 30 191.34 29.1507 190.75 27.452C190.3 26.1693 190.074 24.9213 190.074 23.708C190.074 20.5533 192.466 17.3467 197.25 14.088C198.914 12.944 200.665 11.956 202.502 11.124C204.929 10.0147 206.784 9.46 208.066 9.46C208.725 9.46 209.314 9.668 209.834 10.084C210.354 10.4653 210.614 10.8813 210.614 11.332C210.614 11.5747 210.51 11.8347 210.302 12.112C210.302 12.112 210.112 12.2853 209.73 12.632L209.158 13.152ZM193.038 24.124C193.108 24.54 193.16 24.8693 193.194 25.112C193.264 25.32 193.437 25.476 193.714 25.58C193.749 25.6147 193.836 25.632 193.974 25.632C194.494 25.632 195.309 25.3373 196.418 24.748C199.053 23.3613 201.549 21.2813 203.906 18.508C204.912 17.3293 205.414 16.4973 205.414 16.012C205.414 15.8387 205.328 15.6827 205.154 15.544C205.016 15.4053 204.738 15.336 204.322 15.336C202.173 15.336 199.798 16.2547 197.198 18.092C194.425 20.068 193.038 22.0787 193.038 24.124ZM218.254 15.752C219.675 14.4693 221.339 13.3427 223.246 12.372C225.464 11.2627 227.371 10.708 228.966 10.708C230.838 10.708 231.774 12.3373 231.774 15.596C231.774 16.7747 231.566 17.78 231.15 18.612C230.491 19.964 229.174 21.6453 227.198 23.656C225.846 25.0427 224.494 26.2907 223.142 27.4C221.027 29.1333 219.432 30 218.358 30C217.318 30 216.33 29.2027 215.394 27.608C214.527 26.152 214.094 24.852 214.094 23.708C214.094 22.148 214.492 20.172 215.29 17.78C217.578 10.916 221.114 6.35733 225.898 4.104C226.626 3.75733 227.77 3.39333 229.33 3.012C230.89 2.63066 231.982 2.284 232.606 1.972C232.952 1.72933 233.403 1.36533 233.958 0.88C234.235 0.637332 234.443 0.515998 234.582 0.515998C234.79 0.515998 234.946 0.654665 235.05 0.931999C235.154 1.20933 235.24 1.608 235.31 2.128V3.636C235.31 4.468 235.154 5.05733 234.842 5.404C234.287 6.028 233.108 6.496 231.306 6.808C227.77 7.432 225.083 8.264 223.246 9.304C220.576 10.7947 218.912 12.944 218.254 15.752ZM219.034 25.58C219.207 25.58 219.692 25.3893 220.49 25.008C221.876 24.3493 223.662 22.9973 225.846 20.952C228.342 18.6293 229.59 16.896 229.59 15.752C229.59 15.1973 229.226 14.92 228.498 14.92C226.556 14.92 224.32 15.8907 221.79 17.832C220.888 18.5253 220.126 19.2707 219.502 20.068C218.566 21.2467 218.098 22.4253 218.098 23.604C218.098 24.9213 218.41 25.58 219.034 25.58ZM246.397 13.776C247.506 14.1227 248.061 15.076 248.061 16.636C248.061 17.1907 247.974 17.7973 247.801 18.456C247.316 20.2587 246.674 21.784 245.877 23.032C245.773 23.2053 245.721 23.344 245.721 23.448C245.721 24.0373 246.12 24.332 246.917 24.332C247.368 24.332 247.905 24.124 248.529 23.708C248.841 23.5 249.049 23.396 249.153 23.396C249.534 23.396 249.725 23.5173 249.725 23.76C249.725 24.488 248.841 25.216 247.073 25.944C245.548 26.5333 244.334 26.828 243.433 26.828C241.388 29.3587 239.117 30.624 236.621 30.624C234.853 30.624 233.432 29.792 232.357 28.128C231.421 26.672 230.953 25.008 230.953 23.136C230.953 20.64 232.461 17.988 235.477 15.18C238.493 12.372 241.266 10.968 243.797 10.968C244.49 10.968 245.132 11.1413 245.721 11.488C246.345 11.8347 246.657 12.164 246.657 12.476L246.553 13.256L246.397 13.776ZM241.665 25.268C241.284 24.5053 241.093 23.7253 241.093 22.928C241.093 22.096 241.284 21.1947 241.665 20.224C242.22 18.8027 242.67 17.7107 243.017 16.948C243.156 16.6013 243.242 16.376 243.277 16.272C243.277 15.9253 243.017 15.752 242.497 15.752C242.012 15.752 241.18 16.168 240.001 17C239.065 17.6933 238.302 18.3347 237.713 18.924C236.673 19.964 235.91 20.9 235.425 21.732C234.836 22.7373 234.541 23.8987 234.541 25.216C234.541 25.944 234.749 26.4987 235.165 26.88C235.581 27.2613 236.24 27.452 237.141 27.452C238.493 27.452 240.001 26.724 241.665 25.268ZM253.798 24.28C254.492 23.5867 255.584 22.5293 257.074 21.108C258.357 19.964 259.813 18.6987 261.442 17.312C265.394 13.984 267.977 12.32 269.19 12.32C270.265 12.32 270.802 12.9787 270.802 14.296C270.802 14.6773 270.75 15.0067 270.646 15.284C270.542 15.5267 270.352 15.908 270.074 16.428C269.208 17.9533 268.376 19.2187 267.578 20.224C266.92 21.056 266.59 21.6107 266.59 21.888C266.59 21.9573 266.694 22.096 266.902 22.304C267.076 22.304 267.717 21.8013 268.826 20.796C271.565 18.3 274.113 16.3587 276.47 14.972C276.886 14.7293 277.632 14.296 278.706 13.672C279.157 13.4293 279.556 13.308 279.902 13.308C280.353 13.308 280.752 13.6893 281.098 14.452C281.445 15.18 281.618 15.804 281.618 16.324C281.618 16.6013 281.566 16.8093 281.462 16.948C281.358 17.052 281.133 17.26 280.786 17.572C277.701 20.4147 276.158 22.72 276.158 24.488C276.158 25.528 276.678 26.048 277.718 26.048C278.689 26.048 279.798 25.5453 281.046 24.54C282.294 23.5 283.005 22.98 283.178 22.98L283.542 23.188V23.656C283.3 24.7307 281.809 26.2907 279.07 28.336C276.332 30.3813 274.408 31.404 273.298 31.404C272.64 31.404 272.068 31.196 271.582 30.78C271.097 30.3987 270.854 29.896 270.854 29.272C270.854 28.4747 270.958 27.712 271.166 26.984C271.444 26.048 271.756 25.268 272.102 24.644L273.35 22.408C273.801 21.6107 274.026 21.0907 274.026 20.848C274.026 20.64 273.87 20.536 273.558 20.536C273.316 20.536 272.414 21.1427 270.854 22.356C269.745 23.2227 268.844 23.9853 268.15 24.644C267.249 25.5107 265.914 26.7933 264.146 28.492C263.106 29.4973 262.222 30 261.494 30C261.113 30 260.801 29.8093 260.558 29.428C260.35 29.012 260.246 28.6133 260.246 28.232C260.246 27.296 260.749 26.0653 261.754 24.54C262.205 23.8813 262.777 23.032 263.47 21.992C263.886 21.368 264.094 20.9 264.094 20.588C264.094 20.0333 263.713 19.756 262.95 19.756C261.806 19.756 259.761 21.264 256.814 24.28C256.086 25.0427 255.081 26.3427 253.798 28.18C252.966 29.3933 252.308 30 251.822 30C250.436 30 249.742 28.3707 249.742 25.112C249.742 23.24 250.089 21.68 250.782 20.432C251.025 20.016 251.718 19.0627 252.862 17.572C253.729 16.4627 254.353 15.7 254.734 15.284C255.809 14.14 257.022 13.568 258.374 13.568C258.756 13.568 259.05 13.672 259.258 13.88C259.501 14.088 259.622 14.3133 259.622 14.556C259.622 14.7987 259.501 15.0933 259.258 15.44C258.426 16.272 257.282 17.5547 255.826 19.288C254.232 21.1947 253.434 22.356 253.434 22.772C253.434 22.98 253.486 23.2573 253.59 23.604C253.59 23.6733 253.66 23.8987 253.798 24.28ZM264.198 11.592C263.852 11.2453 263.678 10.5347 263.678 9.46C263.678 7.62267 265.81 5.88933 270.074 4.26C273.68 2.87333 276.626 2.18 278.914 2.18C280.232 2.18 281.133 2.45733 281.618 3.012C281.896 3.324 282.034 3.61866 282.034 3.896C282.034 3.96533 282 4.104 281.93 4.312L280.422 6.808C279.902 6.56533 279.313 6.392 278.654 6.288C277.753 6.21866 276.904 6.184 276.106 6.184C274.269 6.184 272.206 6.652 269.918 7.588C267.214 8.69733 265.308 10.032 264.198 11.592ZM302.647 13.152C303.375 14.4693 303.739 15.388 303.739 15.908C303.739 16.2547 303.097 17.4333 301.815 19.444C301.537 19.86 301.139 20.484 300.619 21.316C299.995 22.356 299.683 23.24 299.683 23.968C299.683 25.32 300.307 25.996 301.555 25.996C302.075 25.996 302.543 25.8747 302.959 25.632C302.959 25.632 303.791 25.1467 305.455 24.176C305.628 24.072 306.027 23.7773 306.651 23.292C306.928 23.084 307.153 22.98 307.327 22.98L307.587 23.292C307.587 23.5693 306.512 24.7653 304.363 26.88C303.392 27.816 302.681 28.4747 302.231 28.856C300.463 30.2773 298.989 30.988 297.811 30.988C297.013 30.988 296.337 30.728 295.783 30.208C295.263 29.688 295.003 29.0293 295.003 28.232C295.003 26.7413 295.401 25.1987 296.199 23.604C296.407 23.2227 296.719 22.564 297.135 21.628C291.727 27.2093 288.208 30 286.579 30C285.608 30 284.828 29.1507 284.239 27.452C283.788 26.1693 283.562 24.9213 283.562 23.708C283.562 20.5533 285.955 17.3467 290.739 14.088C292.403 12.944 294.153 11.956 295.991 11.124C298.417 10.0147 300.272 9.46 301.555 9.46C302.213 9.46 302.803 9.668 303.323 10.084C303.843 10.4653 304.103 10.8813 304.103 11.332C304.103 11.5747 303.999 11.8347 303.791 12.112C303.791 12.112 303.6 12.2853 303.219 12.632L302.647 13.152ZM286.527 24.124C286.596 24.54 286.648 24.8693 286.683 25.112C286.752 25.32 286.925 25.476 287.203 25.58C287.237 25.6147 287.324 25.632 287.463 25.632C287.983 25.632 288.797 25.3373 289.907 24.748C292.541 23.3613 295.037 21.2813 297.395 18.508C298.4 17.3293 298.903 16.4973 298.903 16.012C298.903 15.8387 298.816 15.6827 298.643 15.544C298.504 15.4053 298.227 15.336 297.811 15.336C295.661 15.336 293.287 16.2547 290.687 18.092C287.913 20.068 286.527 22.0787 286.527 24.124ZM312.21 22.824C312.21 25.5627 313.233 26.932 315.278 26.932C316.526 26.932 318.277 26.204 320.53 24.748C322.818 23.2573 323.927 22.512 323.858 22.512C324.066 22.512 324.17 22.772 324.17 23.292C324.17 23.5693 323.581 24.3147 322.402 25.528C318.45 29.584 315.174 31.612 312.574 31.612C310.979 31.612 309.714 31.0053 308.778 29.792C307.981 28.6827 307.582 27.296 307.582 25.632C307.582 22.4427 309.003 19.1493 311.846 15.752C314.827 12.216 317.878 10.448 320.998 10.448C321.934 10.448 322.679 10.6387 323.234 11.02C323.789 11.4013 324.066 12.06 324.066 12.996C324.066 15.0413 322.575 17.156 319.594 19.34C316.959 21.2813 314.498 22.4427 312.21 22.824ZM312.21 20.9C313.527 20.588 315.053 19.7733 316.786 18.456C318.762 16.9653 319.75 15.6653 319.75 14.556C319.75 13.6547 319.386 13.204 318.658 13.204C317.375 13.204 316.023 14.192 314.602 16.168C313.423 17.7627 312.626 19.34 312.21 20.9ZM340.984 23.448L342.908 21.576C344.086 20.432 345.854 18.8893 348.212 16.948C351.297 14.4173 353.169 13.152 353.828 13.152C354.313 13.152 354.712 13.4987 355.024 14.192C355.37 14.8507 355.544 15.4573 355.544 16.012C355.544 16.636 355.006 17.4507 353.932 18.456C353.1 19.2187 352.32 20.1373 351.592 21.212C350.656 22.564 350.188 23.6733 350.188 24.54C350.188 25.7533 350.725 26.36 351.8 26.36C352.458 26.36 353.117 26.1 353.776 25.58C353.949 25.4067 354.192 25.1813 354.504 24.904C354.85 24.6267 355.11 24.4013 355.284 24.228C356.22 23.292 356.74 22.824 356.844 22.824C357.19 22.824 357.364 22.98 357.364 23.292C357.364 23.7427 357.086 24.28 356.532 24.904L355.336 26.256C354.33 27.3653 353.169 28.4053 351.852 29.376C350.049 30.728 348.576 31.404 347.432 31.404C346.496 31.404 345.802 31.1613 345.352 30.676C344.901 30.1907 344.676 29.5147 344.676 28.648C344.676 27.6773 344.936 26.6893 345.456 25.684C345.837 24.956 346.565 23.8293 347.64 22.304C348.402 21.2293 348.94 20.2933 349.252 19.496C346.409 21.2987 344.086 23.1013 342.284 24.904C341.244 26.0133 340.204 27.1227 339.164 28.232C337.569 29.8613 336.46 30.676 335.836 30.676C335.524 30.676 335.281 30.3813 335.108 29.792C334.934 29.168 334.848 28.4053 334.848 27.504C334.848 26.7413 335.593 25.268 337.084 23.084C338.609 20.8653 339.372 19.34 339.372 18.508C339.094 18.6467 338.661 18.8893 338.072 19.236C337.482 19.548 337.049 19.7907 336.772 19.964C336.529 20.1373 334.726 22.0093 331.364 25.58C328.59 28.5267 326.892 30 326.268 30C324.881 30 324.188 28.7867 324.188 26.36C324.188 25.32 324.656 23.968 325.592 22.304C326.597 20.5013 327.533 19.6 328.4 19.6C328.538 19.6 328.625 19.6347 328.66 19.704C328.729 19.7733 328.798 19.8427 328.868 19.912C328.278 21.5413 327.984 23.0667 327.984 24.488C327.984 25.424 328.088 25.892 328.296 25.892C328.4 25.892 329.578 24.5747 331.831 21.94C333.322 20.2067 334.657 18.7853 335.836 17.676C336.772 16.8093 338.089 15.6827 339.788 14.296C341.972 12.528 343.341 11.644 343.896 11.644C344.97 11.644 345.508 12.6147 345.508 14.556C345.508 14.9373 345.386 15.3533 345.144 15.804C344.901 16.22 344.589 16.6533 344.208 17.104C343.445 18.0053 342.786 18.8893 342.232 19.756C341.4 21.0733 340.984 22.1307 340.984 22.928V23.448Z" fill="#333333"></path> </svg> 