<?xml version="1.0" encoding="UTF-8"?> <svg xmlns="http://www.w3.org/2000/svg" width="178" height="37" viewBox="0 0 178 37" fill="none"> <path d="M11.3885 14.2415C7.71382 18.8521 4.97516 21.1575 3.17249 21.1575C2.06316 21.1575 1.21382 20.1695 0.624488 18.1935C0.208488 16.8068 0.000488281 15.4028 0.000488281 13.9815C0.000488281 12.1441 1.02316 9.7868 3.06849 6.90946C5.21782 3.89346 7.14182 2.38546 8.84049 2.38546C9.25649 2.38546 9.68982 2.47213 10.1405 2.64546C10.7298 2.88813 11.0245 3.1828 11.0245 3.52946C11.0245 4.29213 10.3485 5.40146 8.99649 6.85746C7.64449 8.31346 6.30982 9.4228 4.99249 10.1855L3.74449 10.9135C3.53649 11.4681 3.43249 12.0401 3.43249 12.6295C3.43249 13.3575 3.57115 13.9815 3.84849 14.5015C4.16049 14.9868 4.55916 15.2295 5.04449 15.2295C5.46049 15.2295 6.18849 14.9001 7.22849 14.2415C7.57516 14.0335 8.00849 13.7388 8.52849 13.3575C8.80582 13.1495 9.42982 12.5775 10.4005 11.6415L19.6565 2.48946C20.0378 2.10813 20.3325 1.91746 20.5405 1.91746C20.9565 1.91746 21.2685 2.1948 21.4765 2.74946C21.7192 3.26946 21.8405 3.94546 21.8405 4.77746V5.24546C21.8405 5.5228 21.7712 5.7308 21.6325 5.86946L17.0045 10.9135C15.8605 12.1615 15.2885 13.4615 15.2885 14.8135C15.2885 16.2348 15.7392 16.9455 16.6405 16.9455C17.7152 16.9455 19.0152 16.3735 20.5405 15.2295L22.0485 14.2935C22.3258 14.4668 22.4645 14.6055 22.4645 14.7095C22.4645 15.1601 21.1992 16.4775 18.6685 18.6615C15.9645 20.9841 13.9885 22.1455 12.7405 22.1455C11.3192 22.1455 10.6085 21.1748 10.6085 19.2335C10.6085 18.5055 10.8685 16.8415 11.3885 14.2415ZM52.7923 23.7575L51.5963 25.9415C48.9963 30.7255 47.2109 33.6895 46.2403 34.8335C45.1656 36.1161 44.1949 36.7575 43.3283 36.7575C42.0803 36.7575 41.4563 35.3188 41.4563 32.4415C41.4563 29.3215 42.2189 26.9295 43.7443 25.2655C44.4723 24.4681 45.9629 23.6188 48.2163 22.7175L50.5563 21.7815C51.5616 19.8401 52.9483 17.3961 54.7163 14.4495C53.3989 15.5935 51.9603 16.7895 50.4003 18.0375C48.0429 19.9095 46.3443 20.8455 45.3043 20.8455C44.2989 20.8455 43.2589 19.9268 42.1843 18.0895C41.1789 16.3908 40.6763 14.9868 40.6763 13.8775C40.6763 11.1735 43.1896 8.3828 48.2163 5.50546C52.8269 2.8708 56.6403 1.55346 59.6563 1.55346C61.6323 1.55346 62.6203 3.2868 62.6203 6.75346C62.6203 7.4468 62.4469 8.0708 62.1003 8.62546L54.3003 20.8975L63.1923 16.7895C63.4349 16.6508 63.6776 16.5815 63.9203 16.5815C64.3016 16.5815 64.4923 16.7375 64.4923 17.0495C64.4923 17.2228 64.4056 17.4308 64.2323 17.6735C64.1629 17.7428 64.0763 17.8121 63.9723 17.8815L52.7923 23.7575ZM45.5123 16.6335C46.5523 16.6335 49.0309 15.2121 52.9483 12.3695C57.0389 9.38813 59.0843 7.32546 59.0843 6.18146C59.0843 6.11213 59.0496 6.0428 58.9803 5.97346C58.8069 5.80013 58.6336 5.71346 58.4603 5.71346C57.6629 5.71346 56.0856 6.23346 53.7283 7.27346C51.6829 8.20946 50.1576 9.0068 49.1523 9.66546C47.6963 10.6015 46.6563 11.4335 46.0323 12.1615C45.0963 13.2361 44.6283 14.3975 44.6283 15.6455C44.6283 16.3041 44.9229 16.6335 45.5123 16.6335ZM49.3083 24.6415C45.2176 25.9935 43.1723 28.7668 43.1723 32.9615C44.1776 32.8228 45.1309 32.0428 46.0323 30.6215C46.2403 30.2748 46.8643 29.1481 47.9043 27.2415L49.3083 24.6415ZM69.1207 13.8255C69.1207 16.5641 70.1433 17.9335 72.1887 17.9335C73.4367 17.9335 75.1873 17.2055 77.4407 15.7495C79.7287 14.2588 80.838 13.5135 80.7687 13.5135C80.9767 13.5135 81.0807 13.7735 81.0807 14.2935C81.0807 14.5708 80.4913 15.3161 79.3127 16.5295C75.3607 20.5855 72.0847 22.6135 69.4847 22.6135C67.89 22.6135 66.6247 22.0068 65.6887 20.7935C64.8913 19.6841 64.4927 18.2975 64.4927 16.6335C64.4927 13.4441 65.914 10.1508 68.7567 6.75346C71.738 3.21746 74.7887 1.44946 77.9087 1.44946C78.8447 1.44946 79.59 1.64013 80.1447 2.02146C80.6993 2.4028 80.9767 3.06146 80.9767 3.99746C80.9767 6.0428 79.486 8.15746 76.5047 10.3415C73.87 12.2828 71.4087 13.4441 69.1207 13.8255ZM69.1207 11.9015C70.438 11.5895 71.9633 10.7748 73.6967 9.45746C75.6727 7.9668 76.6607 6.6668 76.6607 5.55746C76.6607 4.65613 76.2967 4.20546 75.5687 4.20546C74.286 4.20546 72.934 5.19346 71.5127 7.16946C70.334 8.76413 69.5367 10.3415 69.1207 11.9015ZM95.6061 10.4455C93.5261 11.3468 90.4928 13.9295 86.5061 18.1935C85.9515 18.7828 85.3448 19.4068 84.6861 20.0655C84.0275 20.6895 83.4728 21.0015 83.0221 21.0015C82.4675 21.0015 81.9995 20.6028 81.6181 19.8055C81.2715 19.1468 81.0981 18.5228 81.0981 17.9335C81.0981 16.9281 81.5141 15.5415 82.3461 13.7735C83.2475 11.8321 84.1315 10.8615 84.9981 10.8615C85.2408 10.8615 85.4141 10.9135 85.5181 11.0175C85.5181 11.0521 85.5355 11.1041 85.5701 11.1735L85.3101 11.9015C84.9288 12.9761 84.7381 14.2241 84.7381 15.6455C84.7381 16.5121 84.8595 16.9455 85.1021 16.9455C85.3101 16.9455 86.4715 15.7495 88.5861 13.3575C91.0821 10.5148 93.7861 8.05346 96.6981 5.97346C98.5701 4.62146 99.8008 3.94546 100.39 3.94546C100.806 3.94546 101.153 4.3268 101.43 5.08946C101.673 5.6788 101.794 6.23346 101.794 6.75346C101.794 7.16946 100.997 8.26146 99.4021 10.0295C98.2581 11.6241 97.5301 12.7161 97.2181 13.3055C96.8021 14.1028 96.5941 14.7788 96.5941 15.3335C96.5941 16.2001 97.1315 16.6335 98.2061 16.6335C98.7608 16.6335 99.5061 16.3041 100.442 15.6455C101.17 15.1255 101.863 14.5361 102.522 13.8775C102.903 13.4961 103.198 13.3055 103.406 13.3055C103.683 13.3055 103.822 13.4961 103.822 13.8775C103.822 14.0508 103.042 15.0561 101.482 16.8935C100.615 17.8988 99.5581 18.9041 98.3101 19.9095C96.5075 21.3655 95.1728 22.0935 94.3061 22.0935C93.3701 22.0935 92.6595 21.6428 92.1741 20.7415C91.7581 20.0135 91.5501 19.1295 91.5501 18.0895C91.5501 17.2921 91.6715 16.6335 91.9141 16.1135C91.9488 15.9401 92.4688 15.0735 93.4741 13.5135C93.6475 13.2361 93.8728 12.8721 94.1501 12.4215C94.5661 11.7975 95.0515 11.1388 95.6061 10.4455ZM122.881 4.15346C123.609 5.4708 123.973 6.38946 123.973 6.90946C123.973 7.25613 123.332 8.4348 122.049 10.4455C121.772 10.8615 121.373 11.4855 120.853 12.3175C120.229 13.3575 119.917 14.2415 119.917 14.9695C119.917 16.3215 120.541 16.9975 121.789 16.9975C122.309 16.9975 122.777 16.8761 123.193 16.6335C123.193 16.6335 124.025 16.1481 125.689 15.1775C125.863 15.0735 126.261 14.7788 126.885 14.2935C127.163 14.0855 127.388 13.9815 127.561 13.9815L127.821 14.2935C127.821 14.5708 126.747 15.7668 124.597 17.8815C123.627 18.8175 122.916 19.4761 122.465 19.8575C120.697 21.2788 119.224 21.9895 118.045 21.9895C117.248 21.9895 116.572 21.7295 116.017 21.2095C115.497 20.6895 115.237 20.0308 115.237 19.2335C115.237 17.7428 115.636 16.2001 116.433 14.6055C116.641 14.2241 116.953 13.5655 117.369 12.6295C111.961 18.2108 108.443 21.0015 106.813 21.0015C105.843 21.0015 105.063 20.1521 104.473 18.4535C104.023 17.1708 103.797 15.9228 103.797 14.7095C103.797 11.5548 106.189 8.34813 110.973 5.08946C112.637 3.94546 114.388 2.95746 116.225 2.12546C118.652 1.01613 120.507 0.461464 121.789 0.461464C122.448 0.461464 123.037 0.669464 123.557 1.08546C124.077 1.4668 124.337 1.8828 124.337 2.33346C124.337 2.57613 124.233 2.83613 124.025 3.11346C124.025 3.11346 123.835 3.2868 123.453 3.63346L122.881 4.15346ZM106.761 15.1255C106.831 15.5415 106.883 15.8708 106.917 16.1135C106.987 16.3215 107.16 16.4775 107.437 16.5815C107.472 16.6161 107.559 16.6335 107.697 16.6335C108.217 16.6335 109.032 16.3388 110.141 15.7495C112.776 14.3628 115.272 12.2828 117.629 9.50946C118.635 8.3308 119.137 7.4988 119.137 7.01346C119.137 6.84013 119.051 6.68413 118.877 6.54546C118.739 6.4068 118.461 6.33746 118.045 6.33746C115.896 6.33746 113.521 7.25613 110.921 9.09346C108.148 11.0695 106.761 13.0801 106.761 15.1255ZM132.445 13.8255C132.445 16.5641 133.468 17.9335 135.513 17.9335C136.761 17.9335 138.512 17.2055 140.765 15.7495C143.053 14.2588 144.162 13.5135 144.093 13.5135C144.301 13.5135 144.405 13.7735 144.405 14.2935C144.405 14.5708 143.816 15.3161 142.637 16.5295C138.685 20.5855 135.409 22.6135 132.809 22.6135C131.214 22.6135 129.949 22.0068 129.013 20.7935C128.216 19.6841 127.817 18.2975 127.817 16.6335C127.817 13.4441 129.238 10.1508 132.081 6.75346C135.062 3.21746 138.113 1.44946 141.233 1.44946C142.169 1.44946 142.914 1.64013 143.469 2.02146C144.024 2.4028 144.301 3.06146 144.301 3.99746C144.301 6.0428 142.81 8.15746 139.829 10.3415C137.194 12.2828 134.733 13.4441 132.445 13.8255ZM132.445 11.9015C133.762 11.5895 135.288 10.7748 137.021 9.45746C138.997 7.9668 139.985 6.6668 139.985 5.55746C139.985 4.65613 139.621 4.20546 138.893 4.20546C137.61 4.20546 136.258 5.19346 134.837 7.16946C133.658 8.76413 132.861 10.3415 132.445 11.9015ZM161.218 14.4495L163.142 12.5775C164.321 11.4335 166.089 9.8908 168.446 7.94946C171.532 5.4188 173.404 4.15346 174.062 4.15346C174.548 4.15346 174.946 4.50013 175.258 5.19346C175.605 5.85213 175.778 6.4588 175.778 7.01346C175.778 7.63746 175.241 8.45213 174.166 9.45746C173.334 10.2201 172.554 11.1388 171.826 12.2135C170.89 13.5655 170.422 14.6748 170.422 15.5415C170.422 16.7548 170.96 17.3615 172.034 17.3615C172.693 17.3615 173.352 17.1015 174.01 16.5815C174.184 16.4081 174.426 16.1828 174.738 15.9055C175.085 15.6281 175.345 15.4028 175.518 15.2295C176.454 14.2935 176.974 13.8255 177.078 13.8255C177.425 13.8255 177.598 13.9815 177.598 14.2935C177.598 14.7441 177.321 15.2815 176.766 15.9055L175.57 17.2575C174.565 18.3668 173.404 19.4068 172.086 20.3775C170.284 21.7295 168.81 22.4055 167.666 22.4055C166.73 22.4055 166.037 22.1628 165.586 21.6775C165.136 21.1921 164.91 20.5161 164.91 19.6495C164.91 18.6788 165.17 17.6908 165.69 16.6855C166.072 15.9575 166.8 14.8308 167.874 13.3055C168.637 12.2308 169.174 11.2948 169.486 10.4975C166.644 12.3001 164.321 14.1028 162.518 15.9055C161.478 17.0148 160.438 18.1241 159.398 19.2335C157.804 20.8628 156.694 21.6775 156.07 21.6775C155.758 21.6775 155.516 21.3828 155.342 20.7935C155.169 20.1695 155.082 19.4068 155.082 18.5055C155.082 17.7428 155.828 16.2695 157.318 14.0855C158.844 11.8668 159.606 10.3415 159.606 9.50946C159.329 9.64813 158.896 9.8908 158.306 10.2375C157.717 10.5495 157.284 10.7921 157.006 10.9655C156.764 11.1388 154.961 13.0108 151.598 16.5815C148.825 19.5281 147.126 21.0015 146.502 21.0015C145.116 21.0015 144.422 19.7881 144.422 17.3615C144.422 16.3215 144.89 14.9695 145.826 13.3055C146.832 11.5028 147.768 10.6015 148.634 10.6015C148.773 10.6015 148.86 10.6361 148.894 10.7055C148.964 10.7748 149.033 10.8441 149.102 10.9135C148.513 12.5428 148.218 14.0681 148.218 15.4895C148.218 16.4255 148.322 16.8935 148.53 16.8935C148.634 16.8935 149.813 15.5761 152.066 12.9415C153.557 11.2081 154.892 9.7868 156.07 8.67746C157.006 7.8108 158.324 6.68413 160.022 5.29746C162.206 3.52946 163.576 2.64546 164.13 2.64546C165.205 2.64546 165.742 3.61613 165.742 5.55746C165.742 5.9388 165.621 6.3548 165.378 6.80546C165.136 7.22146 164.824 7.6548 164.442 8.10546C163.68 9.0068 163.021 9.8908 162.466 10.7575C161.634 12.0748 161.218 13.1321 161.218 13.9295V14.4495Z" fill="#333333"></path> </svg> 