<?xml version="1.0" encoding="UTF-8"?> <svg xmlns="http://www.w3.org/2000/svg" width="134" height="35" viewBox="0 0 134 35" fill="none"> <path d="M4.16049 15.7535C5.58182 14.4708 7.24582 13.3441 9.15249 12.3735C11.3712 11.2641 13.2778 10.7095 14.8725 10.7095C16.7445 10.7095 17.6805 12.3388 17.6805 15.5975C17.6805 16.7761 17.4725 17.7815 17.0565 18.6135C16.3978 19.9655 15.0805 21.6468 13.1045 23.6575C11.7525 25.0441 10.4005 26.2921 9.04849 27.4015C6.93382 29.1348 5.33916 30.0015 4.26449 30.0015C3.22449 30.0015 2.23649 29.2041 1.30049 27.6095C0.433822 26.1535 0.000488281 24.8535 0.000488281 23.7095C0.000488281 22.1495 0.399155 20.1735 1.19649 17.7815C3.48449 10.9175 7.02049 6.3588 11.8045 4.10546C12.5325 3.7588 13.6765 3.3948 15.2365 3.01346C16.7965 2.63213 17.8885 2.28546 18.5125 1.97346C18.8592 1.7308 19.3098 1.3668 19.8645 0.881465C20.1418 0.638797 20.3498 0.517463 20.4885 0.517463C20.6965 0.517463 20.8525 0.65613 20.9565 0.933464C21.0605 1.2108 21.1472 1.60946 21.2165 2.12946V3.63746C21.2165 4.46946 21.0605 5.0588 20.7485 5.40546C20.1938 6.02946 19.0152 6.49746 17.2125 6.80946C13.6765 7.43346 10.9898 8.26546 9.15249 9.30546C6.48316 10.7961 4.81916 12.9455 4.16049 15.7535ZM4.94049 25.5815C5.11382 25.5815 5.59916 25.3908 6.39649 25.0095C7.78316 24.3508 9.56849 22.9988 11.7525 20.9535C14.2485 18.6308 15.4965 16.8975 15.4965 15.7535C15.4965 15.1988 15.1325 14.9215 14.4045 14.9215C12.4632 14.9215 10.2272 15.8921 7.69649 17.8335C6.79516 18.5268 6.03249 19.2721 5.40849 20.0695C4.47249 21.2481 4.00449 22.4268 4.00449 23.6055C4.00449 24.9228 4.31649 25.5815 4.94049 25.5815ZM32.3039 13.7775C33.4132 14.1241 33.9679 15.0775 33.9679 16.6375C33.9679 17.1921 33.8812 17.7988 33.7079 18.4575C33.2225 20.2601 32.5812 21.7855 31.7839 23.0335C31.6799 23.2068 31.6279 23.3455 31.6279 23.4495C31.6279 24.0388 32.0265 24.3335 32.8239 24.3335C33.2745 24.3335 33.8119 24.1255 34.4359 23.7095C34.7479 23.5015 34.9559 23.3975 35.0599 23.3975C35.4412 23.3975 35.6319 23.5188 35.6319 23.7615C35.6319 24.4895 34.7479 25.2175 32.9799 25.9455C31.4545 26.5348 30.2412 26.8295 29.3399 26.8295C27.2945 29.3601 25.0239 30.6255 22.5279 30.6255C20.7599 30.6255 19.3385 29.7935 18.2639 28.1295C17.3279 26.6735 16.8599 25.0095 16.8599 23.1375C16.8599 20.6415 18.3679 17.9895 21.3839 15.1815C24.3999 12.3735 27.1732 10.9695 29.7039 10.9695C30.3972 10.9695 31.0385 11.1428 31.6279 11.4895C32.2519 11.8361 32.5639 12.1655 32.5639 12.4775L32.4599 13.2575L32.3039 13.7775ZM27.5719 25.2695C27.1905 24.5068 26.9999 23.7268 26.9999 22.9295C26.9999 22.0975 27.1905 21.1961 27.5719 20.2255C28.1265 18.8041 28.5772 17.7121 28.9239 16.9495C29.0625 16.6028 29.1492 16.3775 29.1839 16.2735C29.1839 15.9268 28.9239 15.7535 28.4039 15.7535C27.9185 15.7535 27.0865 16.1695 25.9079 17.0015C24.9719 17.6948 24.2092 18.3361 23.6199 18.9255C22.5799 19.9655 21.8172 20.9015 21.3319 21.7335C20.7425 22.7388 20.4479 23.9001 20.4479 25.2175C20.4479 25.9455 20.6559 26.5001 21.0719 26.8815C21.4879 27.2628 22.1465 27.4535 23.0479 27.4535C24.3999 27.4535 25.9079 26.7255 27.5719 25.2695ZM50.1569 19.4455C48.0769 20.3468 45.0436 22.9295 41.0569 27.1935C40.5023 27.7828 39.8956 28.4068 39.2369 29.0655C38.5783 29.6895 38.0236 30.0015 37.5729 30.0015C37.0183 30.0015 36.5503 29.6028 36.1689 28.8055C35.8223 28.1468 35.6489 27.5228 35.6489 26.9335C35.6489 25.9281 36.0649 24.5415 36.8969 22.7735C37.7983 20.8321 38.6823 19.8615 39.5489 19.8615C39.7916 19.8615 39.9649 19.9135 40.0689 20.0175C40.0689 20.0521 40.0863 20.1041 40.1209 20.1735L39.8609 20.9015C39.4796 21.9761 39.2889 23.2241 39.2889 24.6455C39.2889 25.5121 39.4103 25.9455 39.6529 25.9455C39.8609 25.9455 41.0223 24.7495 43.1369 22.3575C45.6329 19.5148 48.3369 17.0535 51.2489 14.9735C53.1209 13.6215 54.3516 12.9455 54.9409 12.9455C55.3569 12.9455 55.7036 13.3268 55.9809 14.0895C56.2236 14.6788 56.3449 15.2335 56.3449 15.7535C56.3449 16.1695 55.5476 17.2615 53.9529 19.0295C52.8089 20.6241 52.0809 21.7161 51.7689 22.3055C51.3529 23.1028 51.1449 23.7788 51.1449 24.3335C51.1449 25.2001 51.6823 25.6335 52.7569 25.6335C53.3116 25.6335 54.0569 25.3041 54.9929 24.6455C55.7209 24.1255 56.4143 23.5361 57.0729 22.8775C57.4543 22.4961 57.7489 22.3055 57.9569 22.3055C58.2343 22.3055 58.3729 22.4961 58.3729 22.8775C58.3729 23.0508 57.5929 24.0561 56.0329 25.8935C55.1663 26.8988 54.1089 27.9041 52.8609 28.9095C51.0583 30.3655 49.7236 31.0935 48.8569 31.0935C47.9209 31.0935 47.2103 30.6428 46.7249 29.7415C46.3089 29.0135 46.1009 28.1295 46.1009 27.0895C46.1009 26.2921 46.2223 25.6335 46.4649 25.1135C46.4996 24.9401 47.0196 24.0735 48.0249 22.5135C48.1983 22.2361 48.4236 21.8721 48.7009 21.4215C49.1169 20.7975 49.6023 20.1388 50.1569 19.4455ZM62.7681 18.3535C61.0348 18.7001 59.7868 18.8735 59.0241 18.8735C58.5735 18.8735 58.3481 18.5961 58.3481 18.0415C58.3481 17.7988 58.9548 17.4175 60.1681 16.8975C60.9655 16.5855 61.7455 16.2735 62.5081 15.9615C64.1721 15.0601 65.8361 13.8641 67.5001 12.3735C68.0895 11.8188 68.6961 11.2815 69.3201 10.7615C70.2215 9.96413 70.8281 9.56546 71.1401 9.56546C72.2495 9.56546 73.0641 10.6228 73.5841 12.7375L70.3081 14.7655C68.0548 16.3255 66.3735 18.1975 65.2641 20.3815C64.6055 21.6641 64.2761 22.9988 64.2761 24.3855C64.2761 25.3215 64.3801 25.9801 64.5881 26.3615C64.8308 26.7428 65.1081 26.9335 65.4201 26.9335C66.1135 26.9335 66.7548 26.4481 67.3441 25.4775C67.2401 24.9921 67.1881 24.5241 67.1881 24.0735C67.1881 22.7215 67.6215 21.4041 68.4881 20.1215C69.4588 18.7001 70.5855 17.9895 71.8681 17.9895C73.0468 17.9895 73.6361 18.7695 73.6361 20.3295C73.6361 22.1668 73.0121 23.8308 71.7641 25.3215C72.2148 25.5641 72.6481 25.6855 73.0641 25.6855C73.8268 25.6855 74.5201 25.3041 75.1441 24.5415C75.4215 24.2295 75.6815 24.0735 75.9241 24.0735L76.2881 24.3335C76.3228 24.3681 76.3401 24.4548 76.3401 24.5935C76.3401 25.3908 75.9241 26.2401 75.0921 27.1415C74.2948 28.0081 73.4455 28.4415 72.5441 28.4415C71.2268 28.4415 70.2388 28.1815 69.5801 27.6615C67.7775 29.2215 66.3735 30.0015 65.3681 30.0015C64.2241 30.0015 63.2535 29.1521 62.4561 27.4535C61.8321 26.1015 61.5201 24.7668 61.5201 23.4495C61.5201 21.5428 61.9361 19.8441 62.7681 18.3535ZM86.2059 24.5935C83.3286 28.1988 81.1619 30.0015 79.7059 30.0015C78.7353 30.0015 77.8859 29.1868 77.1579 27.5575C76.5686 26.1708 76.2739 24.9228 76.2739 23.8135C76.2739 21.3521 77.3486 18.6828 79.4979 15.8055C81.4046 13.2748 83.0686 11.8188 84.4899 11.4375C84.6286 11.4028 84.8193 11.3855 85.0619 11.3855C85.4779 11.3855 85.7379 11.4028 85.8419 11.4375C86.1193 11.4375 86.4659 11.4721 86.8819 11.5415C87.1939 11.6455 87.3499 11.9748 87.3499 12.5295C87.3499 13.6388 86.4313 15.0255 84.5939 16.6895C82.7566 18.3535 81.2486 19.3068 80.0699 19.5495C79.7926 20.9361 79.6539 21.8548 79.6539 22.3055C79.6539 23.3801 80.0006 23.9175 80.6939 23.9175C81.4219 23.9175 83.4326 22.3921 86.7259 19.3415C89.8113 16.4988 91.5966 14.7828 92.0819 14.1935C92.6019 13.5695 93.0179 13.1361 93.3299 12.8935C93.7459 12.4081 94.1793 11.9401 94.6299 11.4895C95.2886 10.7961 95.7739 10.4495 96.0859 10.4495C96.4673 10.4495 96.8139 10.6748 97.1259 11.1255C97.4726 11.5415 97.6459 11.9401 97.6459 12.3215C97.6459 12.9455 97.4553 13.5521 97.0739 14.1415C96.9353 14.3495 96.4499 14.8348 95.6179 15.5975C91.7353 19.1681 89.7939 21.6295 89.7939 22.9815C89.7939 23.1895 89.8633 23.4495 90.0019 23.7615C90.1753 24.0388 90.3659 24.1775 90.5739 24.1775C91.3366 24.1775 93.3299 22.8775 96.5539 20.2775C99.4659 17.9548 102.135 15.1468 104.562 11.8535C104.943 11.4721 105.29 11.2815 105.602 11.2815C106.122 11.2815 106.538 11.5241 106.85 12.0095C107.197 12.4601 107.37 12.9628 107.37 13.5175C107.37 13.8988 107.249 14.2281 107.006 14.5055L106.174 15.3375C104.337 17.1748 103.158 18.4055 102.638 19.0295C101.078 20.9015 100.298 22.4268 100.298 23.6055C100.298 25.2001 101.026 25.9975 102.482 25.9975C103.314 25.9975 104.614 25.2521 106.382 23.7615C107.041 23.2068 107.422 22.9295 107.526 22.9295C108.046 22.9295 108.306 23.0508 108.306 23.2935C108.306 24.3335 107.041 25.8935 104.51 27.9735C101.979 30.0535 100.142 31.0935 98.9979 31.0935C96.8833 31.0935 95.8259 29.9148 95.8259 27.5575C95.8259 26.5868 96.0513 25.3561 96.5019 23.8655C95.6353 25.1481 94.5606 26.3961 93.2779 27.6095C91.5793 29.2041 90.2099 30.0015 89.1699 30.0015C88.2686 30.0015 87.5233 29.4295 86.9339 28.2855C86.4139 27.3495 86.1539 26.3961 86.1539 25.4255C86.1539 24.9748 86.1713 24.6975 86.2059 24.5935ZM112.945 22.8255C112.945 25.5641 113.968 26.9335 116.013 26.9335C117.261 26.9335 119.012 26.2055 121.265 24.7495C123.553 23.2588 124.662 22.5135 124.593 22.5135C124.801 22.5135 124.905 22.7735 124.905 23.2935C124.905 23.5708 124.316 24.3161 123.137 25.5295C119.185 29.5855 115.909 31.6135 113.309 31.6135C111.714 31.6135 110.449 31.0068 109.513 29.7935C108.716 28.6841 108.317 27.2975 108.317 25.6335C108.317 22.4441 109.738 19.1508 112.581 15.7535C115.562 12.2175 118.613 10.4495 121.733 10.4495C122.669 10.4495 123.414 10.6401 123.969 11.0215C124.524 11.4028 124.801 12.0615 124.801 12.9975C124.801 15.0428 123.31 17.1575 120.329 19.3415C117.694 21.2828 115.233 22.4441 112.945 22.8255ZM112.945 20.9015C114.262 20.5895 115.788 19.7748 117.521 18.4575C119.497 16.9668 120.485 15.6668 120.485 14.5575C120.485 13.6561 120.121 13.2055 119.393 13.2055C118.11 13.2055 116.758 14.1935 115.337 16.1695C114.158 17.7641 113.361 19.3415 112.945 20.9015ZM128.198 28.5455C128.198 27.5748 128.649 26.4828 129.55 25.2695C130.486 24.0215 131.405 23.3975 132.306 23.3975C133.138 23.3975 133.554 23.9175 133.554 24.9575V25.6855C133.554 26.9335 132.48 29.1001 130.33 32.1855C129.29 33.6761 128.562 34.4215 128.146 34.4215L127.782 34.1095C127.782 33.9361 127.886 33.7108 128.094 33.4335C128.476 32.9481 128.753 32.5321 128.926 32.1855C129.134 31.8735 129.238 31.4921 129.238 31.0415C129.238 30.6601 129.065 30.2441 128.718 29.7935C128.372 29.3428 128.198 28.9268 128.198 28.5455Z" fill="#333333"></path> </svg> 