<?xml version="1.0" encoding="UTF-8"?> <svg xmlns="http://www.w3.org/2000/svg" width="204" height="48" viewBox="0 0 204 48" fill="none"> <g clip-path="url(#clip0)"> <path d="M10.1436 25.0195L1.69678 27.984C2.17266 29.0511 2.76751 30.0393 3.40201 30.9484C3.71926 31.4227 4.31411 32.0946 5.02792 32.9247L14.7041 29.5255C12.7213 28.4978 11.135 26.9168 10.1436 25.0195Z" fill="#E75D5C"></path> <path d="M17.3213 24.9405C20.1765 26.2844 23.587 25.0986 24.9353 22.2527C26.2836 19.4069 25.0939 16.0077 22.2387 14.6638C19.3834 13.3199 15.973 14.5057 14.6246 17.3516C13.2763 20.1974 14.466 23.5966 17.3213 24.9405Z" fill="#E75D5C"></path> <path d="M20.0575 0H19.7006C10.4606 0.0395257 2.68794 6.40316 0.506836 14.9802L16.2108 9.44664C18.8281 8.57708 21.7627 8.65613 24.4594 9.92095C29.932 12.5296 32.2717 19.0909 29.6544 24.5455C28.3061 27.3913 25.8474 29.3676 23.0317 30.2767L7.5657 35.7312C11.69 40 17.4402 45.4941 19.1851 47.1937C19.542 47.5099 19.7402 47.7075 19.7402 47.7075C19.7402 47.7075 19.9385 47.5099 20.2954 47.1937C22.9128 44.7036 34.0959 33.9526 36.158 30.9881C38.2202 27.9842 39.6082 24.3083 39.6082 19.8419C39.6875 8.97233 30.8837 0.158103 20.0575 0Z" fill="#E75D5C"></path> <path d="M-0.0482317 18.8538C-0.0482317 19.17 -0.0878906 19.4862 -0.0878906 19.8024C-0.0878906 21.581 0.150048 23.2016 0.506957 24.7431L8.95379 21.7787C8.55723 19.6838 8.79516 17.5099 9.70726 15.415L-0.0482317 18.8538Z" fill="#E75D5C"></path> <path d="M65.5988 43.1179C64.5678 43.1179 64.0522 42.6436 64.0522 41.8926C64.0522 40.944 64.7661 40.7464 65.9161 40.6278C66.8282 40.5092 67.3041 40.5487 67.3041 40.0744C67.3041 39.6396 66.9472 39.442 66.2334 39.442C65.4006 39.442 65.004 39.6792 64.9643 40.272H64.2109C64.2505 39.3234 64.9247 38.8491 66.1937 38.8491C67.542 38.8491 68.0575 39.2048 68.0575 40.193V41.8531C68.0575 42.2878 68.1369 42.4855 68.4145 42.4855C68.4938 42.4855 68.5334 42.4855 68.6524 42.4855V43.0784C68.4145 43.1179 68.2162 43.1179 68.0575 43.1179C67.6213 43.1179 67.423 42.8807 67.3437 42.4459C66.9472 42.8412 66.3523 43.1179 65.5988 43.1179ZM66.0747 41.2207C65.2816 41.2997 64.8454 41.3788 64.8454 41.8926C64.8454 42.2878 65.1626 42.525 65.7575 42.525C66.7092 42.525 67.3437 42.0507 67.3437 41.5369V40.944C67.1058 41.0626 66.6696 41.1416 66.0747 41.2207Z" fill="white"></path> <path d="M73.6888 38.9282V39.5606H71.0318V42.9994H70.2783V38.9282H73.6888Z" fill="white"></path> <path d="M75.7905 41.1416C75.7905 41.9321 76.3853 42.4459 77.2578 42.4459C77.8923 42.4459 78.4078 42.2088 78.5664 41.7345H79.4389C79.1613 42.604 78.3682 43.1179 77.2974 43.1179C75.9094 43.1179 75.0767 42.2878 75.0767 40.9835C75.0767 39.6791 75.9491 38.8096 77.2974 38.8096C78.6854 38.8096 79.5182 39.6396 79.5182 40.9835V41.1416H75.7905ZM78.6854 40.5882C78.5664 39.9163 78.0509 39.4815 77.2578 39.4815C76.4646 39.4815 75.9491 39.9163 75.8301 40.5882H78.6854Z" fill="white"></path> <path d="M82.0167 40.5488H84.515V38.9282H85.2685V42.9994H84.515V41.1812H82.0167V42.9994H81.2632V38.9282H82.0167V40.5488Z" fill="white"></path> <path d="M90.8996 38.9282V39.5606H89.234V42.9994H88.4805V39.5606H86.8149V38.9282H90.8996Z" fill="white"></path> <path d="M95.6585 40.3116C95.4999 39.7977 95.0637 39.5211 94.4688 39.5211C93.5171 39.5211 92.9619 40.1139 92.9619 41.023C92.9619 41.9321 93.5567 42.4855 94.4292 42.4855C95.1033 42.4855 95.5792 42.1297 95.6982 41.5369H96.4913C96.3327 42.5645 95.5395 43.1574 94.4292 43.1574C93.1205 43.1574 92.248 42.3274 92.248 41.023C92.248 39.7187 93.1601 38.8491 94.4688 38.8491C95.5395 38.8491 96.3327 39.442 96.4913 40.3116H95.6585Z" fill="white"></path> <path d="M101.845 38.9282V39.5606H100.179V42.9994H99.4258V39.5606H97.7603V38.9282H101.845Z" fill="white"></path> <path d="M103.431 38.9282H105.652C106.524 38.9282 107 39.3235 107 39.9559C107 40.4302 106.683 40.7069 106.445 40.8255C106.961 40.9836 107.238 41.3393 107.238 41.8531C107.238 42.6041 106.604 42.9994 105.652 42.9994H103.431V38.9282ZM104.185 40.6278H105.573C106.048 40.6278 106.326 40.4697 106.326 40.114C106.326 39.7187 106.167 39.6002 105.573 39.6002H104.145V40.6278H104.185ZM104.185 42.4065H105.731C106.286 42.4065 106.564 42.2089 106.564 41.8136C106.564 41.3788 106.286 41.2207 105.652 41.2207H104.185V42.4065Z" fill="white"></path> <path d="M113.504 40.9835C113.504 42.2878 112.631 43.1179 111.243 43.1179C109.855 43.1179 108.943 42.2878 108.943 40.9835C108.943 39.6791 109.816 38.8096 111.243 38.8096C112.631 38.8096 113.504 39.6791 113.504 40.9835ZM109.736 40.9835C109.736 41.8926 110.292 42.4459 111.243 42.4459C112.156 42.4459 112.75 41.8926 112.75 40.9835C112.75 40.0744 112.195 39.521 111.243 39.521C110.292 39.4815 109.736 40.0349 109.736 40.9835Z" fill="white"></path> <path d="M119.571 40.5488H122.07V38.9282H122.823V42.9994H122.07V41.1812H119.571V42.9994H118.818V38.9282H119.571V40.5488Z" fill="white"></path> <path d="M125.361 41.1416C125.361 41.9321 125.956 42.4459 126.829 42.4459C127.463 42.4459 127.939 42.2088 128.137 41.7345H129.01C128.732 42.604 127.939 43.1179 126.868 43.1179C125.48 43.1179 124.647 42.2878 124.647 40.9835C124.647 39.6791 125.52 38.8096 126.868 38.8096C128.256 38.8096 129.089 39.6396 129.089 40.9835V41.1416H125.361ZM128.256 40.5882C128.137 39.9163 127.622 39.4815 126.829 39.4815C126.035 39.4815 125.52 39.9163 125.401 40.5882H128.256Z" fill="white"></path> <path d="M134.879 38.9282V42.3669H135.315V44.1851H134.601V42.9993H131.151V44.1851H130.438V42.3669H130.834C131.151 41.9717 131.389 41.4183 131.389 40.3116V38.8887H134.879V38.9282ZM132.143 39.5606V40.3906C132.143 41.4183 131.944 41.8926 131.667 42.3669H134.165V39.5211H132.143V39.5606Z" fill="white"></path> <path d="M136.98 38.9282H139.201C140.074 38.9282 140.55 39.3235 140.55 39.9559C140.55 40.4302 140.232 40.7069 139.994 40.8255C140.51 40.9836 140.787 41.3393 140.787 41.8531C140.787 42.6041 140.153 42.9994 139.201 42.9994H136.98V38.9282ZM137.734 40.6278H139.122C139.598 40.6278 139.875 40.4697 139.875 40.114C139.875 39.7187 139.717 39.6002 139.122 39.6002H137.694V40.6278H137.734ZM137.734 42.4065H139.281C139.836 42.4065 140.113 42.2089 140.113 41.8136C140.113 41.3788 139.836 41.2207 139.201 41.2207H137.734V42.4065Z" fill="white"></path> <path d="M143.484 42.0903L145.983 38.9282H146.815V42.9994H146.062V39.8373L143.564 42.9994H142.771V38.9282H143.524V42.0903H143.484Z" fill="white"></path> <path d="M152.407 38.9282V40.7069L154.548 38.9282H155.659L153.716 40.4697L155.778 42.9598H154.786L153.16 40.9045L152.407 41.4974V42.9598H151.654V41.4974L150.9 40.9045L149.274 42.9598H148.283L150.345 40.4697L148.402 38.9282H149.472L151.614 40.7069V38.9282H152.407Z" fill="white"></path> <path d="M158.038 42.0903L160.536 38.9282H161.369V42.9994H160.616V39.8373L158.117 42.9994H157.324V38.9282H158.078V42.0903H158.038Z" fill="white"></path> <path d="M164.463 38.9282L165.89 42.1298L167.318 38.9282H168.349V42.9994H167.635V40.3116L167.675 39.5606L166.208 42.9203H165.573L164.066 39.5606L164.106 40.3116V42.9994H163.432V38.9282H164.463Z" fill="white"></path> <path d="M174.733 40.9835C174.733 42.2878 173.861 43.1179 172.473 43.1179C171.085 43.1179 170.173 42.2878 170.173 40.9835C170.173 39.6791 171.045 38.8096 172.473 38.8096C173.861 38.8096 174.733 39.6791 174.733 40.9835ZM170.966 40.9835C170.966 41.8926 171.521 42.4459 172.473 42.4459C173.385 42.4459 173.98 41.8926 173.98 40.9835C173.98 40.0744 173.425 39.521 172.473 39.521C171.521 39.4815 170.966 40.0349 170.966 40.9835Z" fill="white"></path> <path d="M179.77 40.3116C179.611 39.7977 179.175 39.5211 178.58 39.5211C177.628 39.5211 177.073 40.1139 177.073 41.023C177.073 41.9321 177.668 42.4855 178.54 42.4855C179.215 42.4855 179.691 42.1297 179.809 41.5369H180.603C180.444 42.5645 179.651 43.1574 178.54 43.1574C177.232 43.1574 176.359 42.3274 176.359 41.023C176.359 39.7187 177.271 38.8491 178.58 38.8491C179.651 38.8491 180.444 39.442 180.603 40.3116H179.77Z" fill="white"></path> <path d="M185.917 38.9282V39.5606H184.251V42.9994H183.498V39.5606H181.832V38.9282H185.917Z" fill="white"></path> <path d="M188.256 42.0903L190.755 38.9282H191.587V42.9994H190.834V39.8373L188.336 42.9994H187.542V38.9282H188.296V42.0903H188.256Z" fill="white"></path> <path d="M69.0093 31.7345C67.661 32.4459 65.8764 33.0388 63.4574 33.0388C59.4917 33.0388 57.1124 31.695 55.2088 29.9163C52.6312 27.4262 51.6001 24.6199 51.6001 21.3392C51.6001 17.2681 53.3053 14.3432 55.2088 12.5645C57.4693 10.4301 60.2849 9.6001 63.4971 9.6001C65.0833 9.6001 66.9868 9.87678 69.049 10.9835V16.0823C66.9868 13.7108 64.4092 13.5527 63.616 13.5527C59.0952 13.5527 56.1606 17.2681 56.1606 21.3788C56.1606 26.359 60.0073 29.0467 63.7746 29.0467C65.8764 29.0467 67.7403 28.1376 69.049 26.5961V31.7345H69.0093Z" fill="white"></path> <path d="M91.574 10.1138V32.5644H87.1721V13.9082H78.1304V32.5644H73.7285V10.1138H91.574Z" fill="white"></path> <path d="M99.9809 10.1138L105.691 21.4181L110.53 10.1138H115.328L104.898 32.5644H100.1L103.233 26.3193L94.8652 10.1533H99.9809V10.1138Z" fill="white"></path> <path d="M127.066 13.8687V32.5248H122.664V13.8687H117.588V10.1138H132.103V13.8687H127.066Z" fill="white"></path> <path d="M139.955 18.7699H149.472V10.0742H153.874V32.5248H149.472V22.5248H139.955V32.5248H135.553V10.0742H139.955V18.7699Z" fill="white"></path> <path d="M176.082 10.0742L164.066 25.173V10.1137H159.664V32.5248H163.035L175.13 17.3865V32.5248H179.492V10.0742H176.082Z" fill="white"></path> <path d="M189.684 19.5999L197.972 10.1138H203.524L194.007 20.4695L204.04 32.5644H198.25L190.239 22.5248L189.724 23.0387V32.6039H185.322V10.1533H189.724V19.5999H189.684Z" fill="white"></path> </g> <defs> <clipPath id="clip0"> <rect width="204" height="48" fill="white"></rect> </clipPath> </defs> </svg> 