<?xml version="1.0" encoding="UTF-8"?> <svg xmlns="http://www.w3.org/2000/svg" width="41" height="41" viewBox="0 0 41 41" fill="none"> <path d="M37.6635 17.985C38.053 19.0141 38.0016 20.2408 37.7741 21.1801C37.2373 22.9907 36.3484 24.2265 35.6106 25.4468C34.7785 26.4477 33.8646 27.3806 32.9507 28.3135C29.4338 31.8783 25.5648 34.8682 21.6264 37.9415C20.6567 38.6983 18.9935 37.995 20.1493 36.404C23.0242 32.4466 26.6968 29.1798 29.5842 25.3738C30.0002 24.8733 32.6365 21.948 32.9707 21.3796C33.1529 21.083 32.9707 20.5134 32.9707 20.5134C32.9707 20.5134 32.6242 19.72 32.1209 19.1605C31.6176 18.601 30.6484 17.9363 29.761 17.3397C27.426 15.8217 24.8581 14.2511 22.3595 12.5971C19.8609 10.9431 17.3498 9.1377 14.9899 7.31689C13.9264 6.43279 13.8587 4.6838 14.8294 3.51608C15.8002 2.34836 17.4503 2.02752 18.5138 2.91163C20.7226 4.74784 23.07 6.41722 25.4868 8.00321C27.8343 9.6726 30.3079 11.0238 32.8883 12.7458C33.9393 13.4785 34.9904 14.2112 36.1606 15.4661C36.7457 16.0936 37.2739 16.9559 37.6635 17.985Z" fill="#333333"></path> </svg> 