<?xml version="1.0" encoding="UTF-8"?> <svg xmlns="http://www.w3.org/2000/svg" width="40" height="40" viewBox="0 0 40 40" fill="none"> <path d="M17.7935 22.705C6.98165 15.979 3.36735 8.52455 3.71643 7.91992C4.29481 6.91814 9.18731 15.4789 18.7709 21.012C28.3546 26.5451 33.2014 25.2715 33.2014 25.2715C33.2014 25.2715 38.193 26.5397 38.3744 27.7685C38.2177 29.9353 27.3771 28.2381 17.7935 22.705Z" fill="#E75D5C"></path> <path d="M23.7671 7.53954C26.189 8.31146 28.3507 9.77811 29.9319 11.7079C31.5332 13.6377 32.574 15.9921 32.9343 18.4236C33.2946 20.8745 32.9743 23.4025 31.9135 25.6411C31.3931 26.7603 30.6925 27.8024 29.8719 28.7287C29.0312 29.655 28.0504 30.4656 26.9896 31.141C25.2482 32.2603 23.2266 32.9743 21.145 33.1866C19.0634 33.3989 16.9417 33.1287 14.9601 32.434C10.997 31.0638 7.63439 28.0147 6.21328 24.1744C4.77214 20.3534 5.41265 15.857 7.81453 12.4798C8.41501 11.6307 9.09554 10.8395 9.89617 10.1448C10.6568 9.43075 11.5375 8.83251 12.4582 8.29217C14.3196 7.26937 16.4013 6.57465 18.563 6.42026C19.6839 6.34307 19.7039 6.0536 18.543 6.0729C16.3212 6.13079 14.1395 6.76763 12.178 7.77112C11.1972 8.29217 10.2565 8.8904 9.43581 9.62373C8.57513 10.3185 7.83455 11.1483 7.17403 12.0167C4.51194 15.5289 3.67128 20.3148 5.17246 24.5025C5.51273 25.6025 6.03314 26.5867 6.63361 27.5323C7.23408 28.4779 7.97466 29.327 8.77529 30.0989C9.1756 30.5042 9.61595 30.8515 10.0363 31.1989C10.4966 31.5269 10.937 31.8743 11.4374 32.1638C11.9178 32.4725 12.4182 32.7234 12.9185 32.9936L13.6992 33.341C13.9594 33.4567 14.2396 33.5532 14.4998 33.6497C16.6415 34.4216 18.9833 34.7304 21.2851 34.5181C23.5869 34.2866 25.8287 33.5146 27.7302 32.2796C28.8911 31.5269 29.9719 30.6585 30.8927 29.6357C31.8134 28.6129 32.574 27.4551 33.1544 26.22C34.3154 23.7499 34.6756 20.9516 34.2753 18.2692C33.875 15.5868 32.7341 13.0202 30.9727 10.9167C29.2314 8.79391 26.8295 7.15358 24.1474 6.30447C22.8664 5.89921 21.6454 5.80273 20.7847 5.84132C19.904 5.89922 19.3836 6.0729 19.3836 6.24658C19.3836 6.43956 19.904 6.61324 20.6846 6.76762C21.5253 6.9606 22.6062 7.17288 23.7671 7.53954Z" fill="#E75D5C"></path> </svg> 