<?xml version="1.0" encoding="UTF-8"?> <svg xmlns="http://www.w3.org/2000/svg" width="252" height="124" viewBox="0 0 252 124" fill="none"> <g filter="url(#filter0_d)"> <path d="M16 28C16 19.1634 23.1634 12 32 12H252V104H32C23.1634 104 16 96.8366 16 88V28Z" fill="white"></path> </g> <circle cx="204" cy="57" r="16" fill="#FDF1F1"></circle> <path d="M41.2784 41.3636H43.017V49.9091H43.125L49.0455 41.3636H50.6705V53H48.9148V44.4659H48.8068L42.892 53H41.2784V41.3636ZM65.6009 51.5341L65.4418 55.5H63.777V53H53.0952V44.2727H54.7599V51.5284H57.777V44.2727H59.4418V51.5284H62.4588V44.2727H64.1236V51.5341H65.6009ZM71.0597 53.1761C70.2112 53.1761 69.4725 52.9924 68.8438 52.625C68.215 52.2538 67.7339 51.7311 67.4006 51.0568C67.071 50.3788 66.9062 49.5909 66.9062 48.6932C66.9062 48.0303 67.0028 47.4186 67.196 46.858C67.3892 46.2936 67.66 45.8144 68.0085 45.4205C68.357 45.0227 68.7831 44.714 69.2869 44.4943C69.7907 44.2708 70.3419 44.1591 70.9403 44.1591C71.3456 44.1591 71.732 44.2102 72.0994 44.3125C72.4706 44.411 72.821 44.5739 73.1506 44.8011C73.4839 45.0246 73.7718 45.303 74.0142 45.6364C74.2566 45.9697 74.4479 46.3845 74.5881 46.8807C74.732 47.3769 74.804 47.9318 74.804 48.5455V49.1477H68.5994C68.6222 49.9773 68.8551 50.6231 69.2983 51.0852C69.7453 51.5436 70.3381 51.7727 71.0767 51.7727C71.5653 51.7727 71.9839 51.6667 72.3324 51.4545C72.6847 51.2424 72.9366 50.9337 73.0881 50.5284L74.696 50.8182C74.4991 51.5379 74.0786 52.1117 73.4347 52.5398C72.7907 52.964 71.9991 53.1761 71.0597 53.1761ZM68.6051 47.875H73.1392C73.1354 47.2008 72.9328 46.6477 72.5312 46.2159C72.1297 45.7803 71.6032 45.5625 70.9517 45.5625C70.285 45.5625 69.7358 45.7879 69.304 46.2386C68.8722 46.6856 68.6392 47.2311 68.6051 47.875ZM81.5866 50.8977L84.4048 44.2727H86.5185V53H84.8651V46.6761L82.2173 53H80.956L78.3537 46.6534V53H76.6889V44.2727H78.8253L81.5866 50.8977ZM93.017 56.2727V44.2727H94.6761V45.6875H94.8182C94.9015 45.5398 94.9754 45.4167 95.0398 45.3182C95.1042 45.2159 95.2102 45.0852 95.358 44.9261C95.5095 44.7633 95.6667 44.6326 95.8295 44.5341C95.9924 44.4356 96.2045 44.3485 96.4659 44.2727C96.7311 44.197 97.017 44.1591 97.3239 44.1591C97.8504 44.1591 98.3371 44.2614 98.7841 44.4659C99.2348 44.6705 99.6231 44.9621 99.9489 45.3409C100.275 45.7197 100.528 46.1932 100.71 46.7614C100.896 47.3295 100.989 47.9602 100.989 48.6534C100.989 50.0398 100.65 51.1402 99.9716 51.9545C99.2936 52.7652 98.4167 53.1705 97.3409 53.1705C97.0379 53.1705 96.7557 53.1326 96.4943 53.0568C96.2367 52.9848 96.0227 52.8996 95.8523 52.8011C95.6856 52.6989 95.5284 52.5701 95.3807 52.4148C95.233 52.2595 95.1212 52.1288 95.0455 52.0227C94.9735 51.9129 94.8977 51.786 94.8182 51.642H94.7159V56.2727H93.017ZM94.6818 48.6364C94.6818 49.572 94.8826 50.3201 95.2841 50.8807C95.6856 51.4413 96.2443 51.7216 96.9602 51.7216C97.4527 51.7216 97.875 51.5852 98.2273 51.3125C98.5833 51.0398 98.8466 50.6742 99.017 50.2159C99.1875 49.7538 99.2727 49.2273 99.2727 48.6364C99.2727 48.0492 99.1875 47.5303 99.017 47.0795C98.8504 46.6288 98.5909 46.2708 98.2386 46.0057C97.8864 45.7367 97.4602 45.6023 96.9602 45.6023C96.233 45.6023 95.6705 45.875 95.2727 46.4205C94.8788 46.9659 94.6818 47.7045 94.6818 48.6364ZM104.557 50.6193L108.403 44.2727H110.233V53H108.568V46.6477L104.739 53H102.892V44.2727H104.557V50.6193ZM115.517 45.6307C115.059 45.6383 114.646 45.7917 114.278 46.0909C113.911 46.3864 113.727 46.7424 113.727 47.1591H112.125C112.125 46.625 112.28 46.1269 112.591 45.6648C112.902 45.1989 113.318 44.8295 113.841 44.5568C114.364 44.2841 114.922 44.1477 115.517 44.1477C116.116 44.1477 116.659 44.2652 117.148 44.5C117.64 44.7311 118.044 45.0473 118.358 45.4489C118.676 45.8466 118.92 46.3087 119.091 46.8352C119.261 47.358 119.347 47.9167 119.347 48.5114V48.7955C119.347 49.3939 119.261 49.9564 119.091 50.483C118.92 51.0057 118.676 51.4678 118.358 51.8693C118.044 52.267 117.642 52.5814 117.153 52.8125C116.665 53.0436 116.119 53.1591 115.517 53.1591C114.532 53.1591 113.72 52.8542 113.08 52.2443C112.443 51.6307 112.125 50.8561 112.125 49.9205H113.727C113.727 50.3864 113.903 50.7936 114.256 51.142C114.612 51.4905 115.032 51.6667 115.517 51.6705C115.767 51.6705 116 51.625 116.216 51.5341C116.436 51.4432 116.625 51.322 116.784 51.1705C116.943 51.0189 117.083 50.8409 117.205 50.6364C117.33 50.428 117.428 50.2102 117.5 49.983C117.572 49.7519 117.623 49.5133 117.653 49.267H114.705V47.9602H117.648C117.606 47.6496 117.53 47.3598 117.42 47.0909C117.314 46.8182 117.174 46.572 117 46.3523C116.83 46.1326 116.616 45.9583 116.358 45.8295C116.104 45.7008 115.824 45.6345 115.517 45.6307ZM120.548 53L120.543 51.5284H120.855C121.188 51.5284 121.446 51.4318 121.628 51.2386C121.81 51.0417 121.948 50.7045 122.043 50.2273C122.137 49.75 122.204 49.053 122.241 48.1364L122.395 44.2727H128.486V53H126.821V45.7386H123.969L123.832 48.7045C123.798 49.447 123.724 50.0795 123.611 50.6023C123.501 51.1212 123.338 51.5644 123.122 51.9318C122.91 52.2955 122.637 52.5644 122.304 52.7386C121.971 52.9129 121.567 53 121.094 53H120.548ZM129.669 45.7386V44.2727H137.033V45.7386H134.186V53H132.527V45.7386H129.669ZM144.241 52.6193C143.624 52.9905 142.91 53.1761 142.099 53.1761C141.289 53.1761 140.575 52.9905 139.957 52.6193C139.34 52.2443 138.865 51.7159 138.531 51.0341C138.198 50.3523 138.031 49.5663 138.031 48.6761C138.031 47.3163 138.402 46.2235 139.145 45.3977C139.887 44.572 140.872 44.1591 142.099 44.1591C143.327 44.1591 144.312 44.572 145.054 45.3977C145.796 46.2235 146.168 47.3163 146.168 48.6761C146.168 49.5663 146.001 50.3523 145.668 51.0341C145.334 51.7159 144.859 52.2443 144.241 52.6193ZM142.105 51.75C142.491 51.75 142.836 51.6686 143.139 51.5057C143.446 51.3428 143.692 51.1193 143.878 50.8352C144.067 50.5511 144.209 50.2273 144.304 49.8636C144.402 49.4962 144.452 49.0985 144.452 48.6705C144.452 48.2462 144.402 47.8504 144.304 47.483C144.209 47.1155 144.067 46.7898 143.878 46.5057C143.692 46.2178 143.446 45.9924 143.139 45.8295C142.836 45.6629 142.491 45.5795 142.105 45.5795C141.715 45.5795 141.366 45.6629 141.06 45.8295C140.757 45.9924 140.51 46.2178 140.321 46.5057C140.132 46.7898 139.988 47.1155 139.889 47.483C139.795 47.8504 139.747 48.2462 139.747 48.6705C139.747 49.0985 139.795 49.4962 139.889 49.8636C139.988 50.2273 140.132 50.5511 140.321 50.8352C140.51 51.1193 140.757 51.3428 141.06 51.5057C141.366 51.6686 141.715 51.75 142.105 51.75ZM148.064 56.2727V44.2727H149.723V45.6875H149.865C149.948 45.5398 150.022 45.4167 150.087 45.3182C150.151 45.2159 150.257 45.0852 150.405 44.9261C150.556 44.7633 150.714 44.6326 150.876 44.5341C151.039 44.4356 151.251 44.3485 151.513 44.2727C151.778 44.197 152.064 44.1591 152.371 44.1591C152.897 44.1591 153.384 44.2614 153.831 44.4659C154.282 44.6705 154.67 44.9621 154.996 45.3409C155.321 45.7197 155.575 46.1932 155.757 46.7614C155.943 47.3295 156.036 47.9602 156.036 48.6534C156.036 50.0398 155.696 51.1402 155.018 51.9545C154.34 52.7652 153.464 53.1705 152.388 53.1705C152.085 53.1705 151.803 53.1326 151.541 53.0568C151.284 52.9848 151.07 52.8996 150.899 52.8011C150.732 52.6989 150.575 52.5701 150.428 52.4148C150.28 52.2595 150.168 52.1288 150.092 52.0227C150.02 51.9129 149.945 51.786 149.865 51.642H149.763V56.2727H148.064ZM149.729 48.6364C149.729 49.572 149.929 50.3201 150.331 50.8807C150.732 51.4413 151.291 51.7216 152.007 51.7216C152.5 51.7216 152.922 51.5852 153.274 51.3125C153.63 51.0398 153.893 50.6742 154.064 50.2159C154.234 49.7538 154.32 49.2273 154.32 48.6364C154.32 48.0492 154.234 47.5303 154.064 47.0795C153.897 46.6288 153.638 46.2708 153.286 46.0057C152.933 45.7367 152.507 45.6023 152.007 45.6023C151.28 45.6023 150.717 45.875 150.32 46.4205C149.926 46.9659 149.729 47.7045 149.729 48.6364ZM163.757 52.6193C163.14 52.9905 162.426 53.1761 161.615 53.1761C160.804 53.1761 160.09 52.9905 159.473 52.6193C158.856 52.2443 158.38 51.7159 158.047 51.0341C157.714 50.3523 157.547 49.5663 157.547 48.6761C157.547 47.3163 157.918 46.2235 158.661 45.3977C159.403 44.572 160.388 44.1591 161.615 44.1591C162.842 44.1591 163.827 44.572 164.57 45.3977C165.312 46.2235 165.683 47.3163 165.683 48.6761C165.683 49.5663 165.517 50.3523 165.183 51.0341C164.85 51.7159 164.375 52.2443 163.757 52.6193ZM161.621 51.75C162.007 51.75 162.352 51.6686 162.655 51.5057C162.962 51.3428 163.208 51.1193 163.393 50.8352C163.583 50.5511 163.725 50.2273 163.82 49.8636C163.918 49.4962 163.967 49.0985 163.967 48.6705C163.967 48.2462 163.918 47.8504 163.82 47.483C163.725 47.1155 163.583 46.7898 163.393 46.5057C163.208 46.2178 162.962 45.9924 162.655 45.8295C162.352 45.6629 162.007 45.5795 161.621 45.5795C161.231 45.5795 160.882 45.6629 160.575 45.8295C160.272 45.9924 160.026 46.2178 159.837 46.5057C159.647 46.7898 159.503 47.1155 159.405 47.483C159.31 47.8504 159.263 48.2462 159.263 48.6705C159.263 49.0985 159.31 49.4962 159.405 49.8636C159.503 50.2273 159.647 50.5511 159.837 50.8352C160.026 51.1193 160.272 51.3428 160.575 51.5057C160.882 51.6686 161.231 51.75 161.621 51.75ZM167.58 53V44.2727H171.199C172.184 44.2727 172.964 44.483 173.54 44.9034C174.116 45.3201 174.403 45.8864 174.403 46.6023C174.403 47.0985 174.244 47.5 173.926 47.8068C173.612 48.1098 173.176 48.3144 172.619 48.4205C173.233 48.4924 173.746 48.7273 174.159 49.125C174.572 49.5189 174.778 50.0265 174.778 50.6477C174.778 51.3523 174.508 51.9205 173.966 52.3523C173.428 52.7841 172.689 53 171.75 53H167.58ZM169.176 51.5795H171.75C172.17 51.5795 172.5 51.4811 172.739 51.2841C172.977 51.0833 173.097 50.8087 173.097 50.4602C173.097 50.0549 172.977 49.7367 172.739 49.5057C172.5 49.2708 172.17 49.1534 171.75 49.1534H169.176V51.5795ZM169.176 47.9091H171.216C171.693 47.9091 172.068 47.8087 172.341 47.608C172.614 47.4072 172.75 47.1326 172.75 46.7841C172.75 46.4508 172.612 46.1894 172.335 46C172.063 45.8068 171.684 45.7102 171.199 45.7102H169.176V47.9091ZM41.142 75V66.2727H44.7614C45.7462 66.2727 46.5265 66.483 47.1023 66.9034C47.678 67.3201 47.9659 67.8864 47.9659 68.6023C47.9659 69.0985 47.8068 69.5 47.4886 69.8068C47.1742 70.1098 46.7386 70.3144 46.1818 70.4205C46.7955 70.4924 47.3087 70.7273 47.7216 71.125C48.1345 71.5189 48.3409 72.0265 48.3409 72.6477C48.3409 73.3523 48.0701 73.9205 47.5284 74.3523C46.9905 74.7841 46.2519 75 45.3125 75H41.142ZM42.7386 73.5795H45.3125C45.733 73.5795 46.0625 73.4811 46.3011 73.2841C46.5398 73.0833 46.6591 72.8087 46.6591 72.4602C46.6591 72.0549 46.5398 71.7367 46.3011 71.5057C46.0625 71.2708 45.733 71.1534 45.3125 71.1534H42.7386V73.5795ZM42.7386 69.9091H44.7784C45.2557 69.9091 45.6307 69.8087 45.9034 69.608C46.1761 69.4072 46.3125 69.1326 46.3125 68.7841C46.3125 68.4508 46.1742 68.1894 45.8977 68C45.625 67.8068 45.2462 67.7102 44.7614 67.7102H42.7386V69.9091ZM53.7514 75L53.7457 73.5284H54.0582C54.3916 73.5284 54.6491 73.4318 54.831 73.2386C55.0128 73.0417 55.151 72.7045 55.2457 72.2273C55.3404 71.75 55.4067 71.053 55.4446 70.1364L55.598 66.2727H61.6889V75H60.0241V67.7386H57.1719L57.0355 70.7045C57.0014 71.447 56.9276 72.0795 56.8139 72.6023C56.7041 73.1212 56.5412 73.5644 56.3253 73.9318C56.1132 74.2955 55.8404 74.5644 55.5071 74.7386C55.1738 74.9129 54.7704 75 54.2969 75H53.7514ZM64.7159 78.25C64.2083 78.25 63.822 78.1875 63.5568 78.0625L63.9659 76.6705C64.2803 76.7538 64.5568 76.7898 64.7955 76.7784C65.0341 76.7708 65.2481 76.6799 65.4375 76.5057C65.6307 76.3314 65.7973 76.0606 65.9375 75.6932L66.1477 75.1136L62.9545 66.2727H64.7727L66.983 73.0455H67.0739L69.2841 66.2727L71.1193 66.2898L67.5114 76.1648C66.9962 77.5549 66.0644 78.25 64.7159 78.25ZM79.4602 66.2727V75H77.8011V72.0966C77.1913 72.2519 76.5852 72.3295 75.983 72.3295C74.8731 72.3295 74.0076 72.0587 73.3864 71.517C72.7652 70.9754 72.4545 70.1723 72.4545 69.108V66.2557H74.108V69.108C74.108 69.7064 74.2708 70.1496 74.5966 70.4375C74.9223 70.7216 75.3845 70.8636 75.983 70.8636C76.5852 70.8636 77.1913 70.7822 77.8011 70.6193V66.2727H79.4602ZM81.7202 66.2727H83.3849V73.5284H86.402V66.2727H88.0668V73.5284H91.0838V66.2727H92.7486V75H81.7202V66.2727ZM95.7784 78.25C95.2708 78.25 94.8845 78.1875 94.6193 78.0625L95.0284 76.6705C95.3428 76.7538 95.6193 76.7898 95.858 76.7784C96.0966 76.7708 96.3106 76.6799 96.5 76.5057C96.6932 76.3314 96.8598 76.0606 97 75.6932L97.2102 75.1136L94.017 66.2727H95.8352L98.0455 73.0455H98.1364L100.347 66.2727L102.182 66.2898L98.5739 76.1648C98.0587 77.5549 97.1269 78.25 95.7784 78.25ZM104.902 66.2727V69.9659H106.839C106.968 68.8068 107.391 67.8826 108.107 67.1932C108.822 66.5038 109.732 66.1591 110.834 66.1591C111.641 66.1591 112.349 66.3466 112.959 66.7216C113.572 67.0966 114.044 67.625 114.374 68.3068C114.707 68.9886 114.874 69.7765 114.874 70.6705C114.874 71.5568 114.707 72.3409 114.374 73.0227C114.044 73.7045 113.572 74.2348 112.959 74.6136C112.345 74.9886 111.637 75.1761 110.834 75.1761C109.743 75.1761 108.839 74.839 108.124 74.1648C107.411 73.4867 106.985 72.5795 106.845 71.4432H104.902V75H103.203V66.2727H104.902ZM110.834 73.7216C111.235 73.7216 111.589 73.642 111.896 73.483C112.207 73.3201 112.455 73.0985 112.641 72.8182C112.83 72.5341 112.972 72.2121 113.067 71.8523C113.161 71.4886 113.209 71.0947 113.209 70.6705C113.209 70.3333 113.179 70.0152 113.118 69.7159C113.061 69.4129 112.97 69.1326 112.845 68.875C112.72 68.6136 112.565 68.3902 112.379 68.2045C112.197 68.0152 111.974 67.8674 111.709 67.7614C111.447 67.6553 111.156 67.6023 110.834 67.6023C110.436 67.6023 110.082 67.6837 109.771 67.8466C109.464 68.0057 109.216 68.2273 109.027 68.5114C108.838 68.7955 108.696 69.1193 108.601 69.483C108.506 69.8466 108.459 70.2424 108.459 70.6705C108.459 71.0947 108.506 71.4886 108.601 71.8523C108.696 72.2159 108.838 72.5379 109.027 72.8182C109.216 73.0985 109.464 73.3201 109.771 73.483C110.082 73.642 110.436 73.7216 110.834 73.7216ZM121.111 75V66.2727H122.81V69.9318H123.628L126.509 66.2727H128.611L125.23 70.517L128.651 75H126.543L123.912 71.5114H122.81V75H121.111ZM135.429 74.6193C134.812 74.9905 134.098 75.1761 133.287 75.1761C132.476 75.1761 131.762 74.9905 131.145 74.6193C130.527 74.2443 130.052 73.7159 129.719 73.0341C129.385 72.3523 129.219 71.5663 129.219 70.6761C129.219 69.3163 129.59 68.2235 130.332 67.3977C131.075 66.572 132.06 66.1591 133.287 66.1591C134.514 66.1591 135.499 66.572 136.241 67.3977C136.984 68.2235 137.355 69.3163 137.355 70.6761C137.355 71.5663 137.188 72.3523 136.855 73.0341C136.522 73.7159 136.046 74.2443 135.429 74.6193ZM133.293 73.75C133.679 73.75 134.024 73.6686 134.327 73.5057C134.634 73.3428 134.88 73.1193 135.065 72.8352C135.255 72.5511 135.397 72.2273 135.491 71.8636C135.59 71.4962 135.639 71.0985 135.639 70.6705C135.639 70.2462 135.59 69.8504 135.491 69.483C135.397 69.1155 135.255 68.7898 135.065 68.5057C134.88 68.2178 134.634 67.9924 134.327 67.8295C134.024 67.6629 133.679 67.5795 133.293 67.5795C132.902 67.5795 132.554 67.6629 132.247 67.8295C131.944 67.9924 131.698 68.2178 131.509 68.5057C131.319 68.7898 131.175 69.1155 131.077 69.483C130.982 69.8504 130.935 70.2462 130.935 70.6705C130.935 71.0985 130.982 71.4962 131.077 71.8636C131.175 72.2273 131.319 72.5511 131.509 72.8352C131.698 73.1193 131.944 73.3428 132.247 73.5057C132.554 73.6686 132.902 73.75 133.293 73.75ZM144.149 72.8977L146.967 66.2727H149.081V75H147.428V68.6761L144.78 75H143.518L140.916 68.6534V75H139.251V66.2727H141.388L144.149 72.8977ZM153.885 75.1932C153.324 75.1932 152.824 75.0928 152.385 74.892C151.946 74.6913 151.593 74.3883 151.328 73.983C151.067 73.5739 150.936 73.0909 150.936 72.5341C150.936 72.2576 150.97 72.0057 151.038 71.7784C151.107 71.5473 151.196 71.3504 151.305 71.1875C151.419 71.0208 151.563 70.8712 151.737 70.7386C151.911 70.6061 152.088 70.4962 152.266 70.4091C152.447 70.322 152.658 70.2462 152.896 70.1818C153.139 70.1136 153.364 70.0625 153.572 70.0284C153.785 69.9905 154.021 69.9564 154.283 69.9261C154.404 69.911 154.572 69.892 154.788 69.8693C155.042 69.8428 155.226 69.822 155.339 69.8068C155.453 69.7917 155.591 69.7708 155.754 69.7443C155.917 69.7178 156.031 69.6894 156.095 69.6591C156.16 69.6288 156.23 69.589 156.305 69.5398C156.381 69.4905 156.43 69.4337 156.453 69.3693C156.476 69.3049 156.487 69.2273 156.487 69.1364V69.0966C156.487 68.5966 156.345 68.2121 156.061 67.9432C155.781 67.6705 155.37 67.5341 154.828 67.5341C154.298 67.5341 153.862 67.6496 153.521 67.8807C153.18 68.1117 152.94 68.4015 152.8 68.75L151.203 68.3864C151.339 68 151.531 67.661 151.777 67.3693C152.027 67.0777 152.311 66.8466 152.629 66.6761C152.947 66.5019 153.288 66.3731 153.652 66.2898C154.016 66.2027 154.4 66.1591 154.805 66.1591C155.112 66.1591 155.408 66.1818 155.692 66.2273C155.98 66.2727 156.279 66.3655 156.589 66.5057C156.904 66.642 157.175 66.8182 157.402 67.0341C157.629 67.25 157.817 67.5455 157.964 67.9205C158.116 68.2917 158.192 68.7197 158.192 69.2045V75H156.533V73.8068H156.464C156.377 73.9811 156.262 74.1458 156.118 74.3011C155.978 74.4564 155.804 74.6042 155.595 74.7443C155.391 74.8807 155.141 74.9886 154.845 75.0682C154.55 75.1515 154.23 75.1932 153.885 75.1932ZM154.254 73.8295C154.932 73.8295 155.474 73.6364 155.879 73.25C156.288 72.8598 156.493 72.3939 156.493 71.8523V70.7273C156.459 70.7614 156.406 70.7936 156.334 70.8239C156.266 70.8542 156.173 70.8845 156.055 70.9148C155.938 70.9451 155.836 70.9697 155.749 70.9886C155.661 71.0076 155.533 71.0303 155.362 71.0568C155.192 71.0833 155.076 71.1023 155.016 71.1136C154.955 71.1212 154.836 71.1364 154.658 71.1591L154.391 71.1932C154.125 71.2273 153.893 71.2746 153.692 71.3352C153.491 71.3958 153.304 71.4773 153.129 71.5795C152.959 71.6818 152.828 71.8163 152.737 71.983C152.646 72.1458 152.601 72.3371 152.601 72.5568C152.601 72.9659 152.752 73.2803 153.055 73.5C153.358 73.7197 153.758 73.8295 154.254 73.8295ZM162.119 66.2727V69.9034H165.898V66.2727H167.557V75H165.898V71.375H162.119V75H160.455V66.2727H162.119ZM168.977 77.517V73.5284H169.688C170.036 73.214 170.294 72.7557 170.46 72.1534C170.631 71.5473 170.763 70.6723 170.858 69.5284L171.131 66.2727H177.062V73.5284H178.403V77.517H176.744V75H170.659V77.517H168.977ZM171.506 73.5284H175.403V67.7273H172.653L172.472 69.5284C172.377 70.5549 172.259 71.3845 172.119 72.017C171.979 72.6458 171.775 73.1496 171.506 73.5284ZM181.138 78.25C180.63 78.25 180.244 78.1875 179.979 78.0625L180.388 76.6705C180.702 76.7538 180.979 76.7898 181.217 76.7784C181.456 76.7708 181.67 76.6799 181.859 76.5057C182.053 76.3314 182.219 76.0606 182.359 75.6932L182.57 75.1136L179.376 66.2727H181.195L183.405 73.0455H183.496L185.706 66.2727L187.541 66.2898L183.933 76.1648C183.418 77.5549 182.486 78.25 181.138 78.25Z" fill="#333333"></path> <path d="M225.871 55.7779C226.018 56.1664 225.999 56.6295 225.913 56.9841C225.71 57.6676 225.375 58.1341 225.096 58.5948C224.782 58.9726 224.437 59.3248 224.092 59.6769C222.764 61.0226 221.304 62.1513 219.817 63.3115C219.451 63.5972 218.823 63.3317 219.26 62.7311C220.345 61.2372 221.731 60.004 222.821 58.5672C222.978 58.3783 223.162 58.1579 223.288 57.9433C217.775 58.4186 212.216 59.3884 206.494 59.4239C204.263 59.2944 204.809 56.6703 206.651 56.7854C212.261 57.136 218.162 56.1312 223.969 56.4329C223.907 56.3815 223.969 56.4329 223.779 56.2217C223.589 56.0105 223.223 55.7596 222.888 55.5343C222.007 54.9613 221.037 54.3684 220.094 53.744C219.151 53.1196 218.203 52.4381 217.312 51.7507C216.91 51.417 216.885 50.7568 217.251 50.3159C217.618 49.8751 218.241 49.754 218.642 50.0878C219.476 50.7809 220.362 51.4111 221.274 52.0098C222.161 52.64 223.094 53.1501 224.069 53.8001C224.465 54.0767 224.862 54.3533 225.304 54.8271C225.525 55.0639 225.724 55.3894 225.871 55.7779Z" fill="#333333"></path> <defs> <filter id="filter0_d" x="0" y="0" width="268" height="124" filterUnits="userSpaceOnUse" color-interpolation-filters="sRGB"> <feFlood flood-opacity="0" result="BackgroundImageFix"></feFlood> <feColorMatrix in="SourceAlpha" type="matrix" values="0 0 0 0 0 0 0 0 0 0 0 0 0 0 0 0 0 0 127 0"></feColorMatrix> <feOffset dy="4"></feOffset> <feGaussianBlur stdDeviation="8"></feGaussianBlur> <feColorMatrix type="matrix" values="0 0 0 0 0.395833 0 0 0 0 0.395833 0 0 0 0 0.395833 0 0 0 0.12 0"></feColorMatrix> <feBlend mode="normal" in2="BackgroundImageFix" result="effect1_dropShadow"></feBlend> <feBlend mode="normal" in="SourceGraphic" in2="effect1_dropShadow" result="shape"></feBlend> </filter> </defs> </svg> 