<?xml version="1.0" encoding="UTF-8"?> <svg xmlns="http://www.w3.org/2000/svg" width="300" height="41" viewBox="0 0 300 41" fill="none"> <path d="M11.388 21.24C7.71333 25.8507 4.97467 28.156 3.172 28.156C2.06267 28.156 1.21333 27.168 0.624 25.192C0.208 23.8053 0 22.4013 0 20.98C0 19.1427 1.02267 16.7853 3.068 13.908C5.21733 10.892 7.14133 9.384 8.84 9.384C9.256 9.384 9.68933 9.47067 10.14 9.644C10.7293 9.88667 11.024 10.1813 11.024 10.528C11.024 11.2907 10.348 12.4 8.996 13.856C7.644 15.312 6.30933 16.4213 4.992 17.184L3.744 17.912C3.536 18.4667 3.432 19.0387 3.432 19.628C3.432 20.356 3.57067 20.98 3.848 21.5C4.16 21.9853 4.55867 22.228 5.044 22.228C5.46 22.228 6.188 21.8987 7.228 21.24C7.57467 21.032 8.008 20.7373 8.528 20.356C8.80533 20.148 9.42933 19.576 10.4 18.64L19.656 9.488C20.0373 9.10667 20.332 8.916 20.54 8.916C20.956 8.916 21.268 9.19333 21.476 9.748C21.7187 10.268 21.84 10.944 21.84 11.776V12.244C21.84 12.5213 21.7707 12.7293 21.632 12.868L17.004 17.912C15.86 19.16 15.288 20.46 15.288 21.812C15.288 23.2333 15.7387 23.944 16.64 23.944C17.7147 23.944 19.0147 23.372 20.54 22.228L22.048 21.292C22.3253 21.4653 22.464 21.604 22.464 21.708C22.464 22.1587 21.1987 23.476 18.668 25.66C15.964 27.9827 13.988 29.144 12.74 29.144C11.3187 29.144 10.608 28.1733 10.608 26.232C10.608 25.504 10.868 23.84 11.388 21.24ZM43.6918 22.332C48.2331 17.444 52.6011 13.7693 56.7958 11.308C57.9051 10.6493 58.7891 10.32 59.4478 10.32C60.3144 10.32 60.7478 10.9787 60.7478 12.296C60.7478 13.5093 60.1411 14.8613 58.9278 16.352C58.5464 16.768 57.9744 17.4267 57.2118 18.328C55.8944 19.9573 55.2358 21.344 55.2358 22.488C55.2358 23.528 55.7731 24.048 56.8478 24.048C57.6104 24.048 58.4598 23.7187 59.3958 23.06C60.1238 22.4707 60.8518 21.8813 61.5798 21.292C61.8571 21.084 62.0824 20.98 62.2558 20.98C62.5331 20.98 62.6718 21.2053 62.6718 21.656C62.6718 21.864 62.6024 22.0373 62.4638 22.176C62.2904 22.4187 62.0478 22.696 61.7358 23.008C60.4878 24.3253 59.0664 25.5907 57.4718 26.804C55.2531 28.5373 53.5544 29.404 52.3758 29.404C50.7118 29.404 49.8798 28.4507 49.8798 26.544C49.8798 25.296 50.3131 23.996 51.1798 22.644L52.8438 20.512C53.6064 19.5413 53.9878 18.9 53.9878 18.588C53.9878 18.0333 53.6238 17.756 52.8958 17.756C51.6478 17.756 49.5851 19.264 46.7078 22.28C45.9104 23.112 44.9051 24.412 43.6918 26.18C42.8598 27.3933 42.2011 28 41.7158 28C40.3291 28 39.6358 26.3707 39.6358 23.112V21.708C39.6358 20.564 40.1211 19.2813 41.0918 17.86C41.7158 16.6467 42.9291 15.052 44.7318 13.076C45.6331 12.1053 46.6038 11.62 47.6438 11.62C48.8918 11.62 49.5158 11.9667 49.5158 12.66C49.5158 12.9373 49.4118 13.2147 49.2038 13.492C49.0998 13.5613 48.8744 13.7693 48.5278 14.116C48.0771 14.6013 47.1411 15.6587 45.7198 17.288C44.1251 19.1253 43.3278 20.2173 43.3278 20.564C43.3278 21.2573 43.4491 21.8467 43.6918 22.332ZM71.0625 13.7L63.0025 20.772C62.6905 21.0493 62.4131 21.2573 62.1705 21.396C62.1011 21.396 62.0145 21.4307 61.9105 21.5C61.6678 21.4653 61.5291 21.396 61.4945 21.292V20.876C61.5291 20.7027 62.2051 19.9573 63.5225 18.64C64.8398 17.3227 66.6945 15.4853 69.0865 13.128C71.1318 11.1867 73.2811 8.604 75.5345 5.38C76.6785 3.75067 77.8745 2.936 79.1225 2.936C79.3998 2.936 79.7465 3.04 80.1625 3.248C80.5785 3.42133 80.7865 3.59467 80.7865 3.768L80.6825 3.924C79.6425 5.31067 78.1518 7.356 76.2105 10.06C75.1011 11.6893 74.1825 13.0933 73.4545 14.272L71.8945 16.872C73.1771 15.5893 74.7891 14.272 76.7305 12.92C79.1225 11.256 80.8385 10.424 81.8785 10.424C83.5771 10.424 84.4265 11.3773 84.4265 13.284C84.4265 15.1213 83.3691 17.2187 81.2545 19.576C79.7291 21.2747 77.8918 22.8867 75.7425 24.412C76.6785 24.828 77.7878 25.036 79.0705 25.036C81.5665 25.036 83.6291 23.996 85.2585 21.916C85.6051 21.5693 85.8305 21.396 85.9345 21.396C86.2465 21.396 86.4025 21.5 86.4025 21.708C86.4025 21.9507 86.3331 22.1933 86.1945 22.436C85.9171 22.8867 85.2585 23.6147 84.2185 24.62C82.6931 26.076 80.7865 27.2373 78.4985 28.104C76.2451 29.0053 74.0611 29.456 71.9465 29.456C70.0745 29.456 68.2025 28.78 66.3305 27.428L61.8585 37.672C61.1651 39.232 60.4718 40.012 59.7785 40.012C59.3971 40.012 59.1025 39.7693 58.8945 39.284C58.6518 38.8333 58.5305 38.3133 58.5305 37.724C58.5305 36.9267 59.0505 34.6733 60.0905 30.964C61.2691 28.7453 62.8985 26.7347 64.9785 24.932L71.0625 13.7ZM68.5145 23.476C69.1385 23.1293 69.9011 22.956 70.8025 22.956C71.3918 22.956 71.9638 23.06 72.5185 23.268L73.4545 23.736C74.4945 23.008 75.5691 22.0027 76.6785 20.72C78.0305 19.2293 78.8105 18.016 79.0185 17.08C79.0531 16.976 79.0705 16.8373 79.0705 16.664C79.0705 16.4907 79.0531 16.3693 79.0185 16.3C78.8105 15.7453 78.3771 15.468 77.7185 15.468C76.5745 15.468 74.9105 16.56 72.7265 18.744C71.2358 20.2 69.8318 21.7773 68.5145 23.476ZM100.173 17.444C101.768 17.028 103.726 16.0573 106.049 14.532C106.153 14.844 106.205 15.052 106.205 15.156V16.04C106.205 16.976 106.136 17.5307 105.997 17.704C105.824 18.016 105.442 18.3453 104.853 18.692C102.669 20.044 101.577 21.4827 101.577 23.008C101.577 23.736 101.958 24.1 102.721 24.1C103.206 24.1 104.264 23.58 105.893 22.54C106.656 22.0547 107.141 21.812 107.349 21.812C107.73 21.812 107.921 22.0373 107.921 22.488C107.921 22.9387 107.124 23.7187 105.529 24.828C102.444 26.9427 100.398 28 99.3931 28C98.0065 28 97.2265 27.532 97.0531 26.596C96.9838 26.18 96.9491 25.868 96.9491 25.66C96.9491 24.6547 97.2611 23.5627 97.8851 22.384C98.4051 21.3787 98.9078 20.5987 99.3931 20.044C98.3185 20.7373 97.5731 21.1187 97.1571 21.188C92.0265 28.9187 87.7798 32.784 84.4171 32.784C82.9611 32.784 82.2331 32.524 82.2331 32.004C82.2331 31.276 82.5971 30.392 83.3251 29.352C83.7411 28.728 84.4518 27.844 85.4571 26.7C85.6998 26.9773 85.9598 27.1853 86.2371 27.324C86.5491 27.428 86.8611 27.48 87.1731 27.48C88.0398 27.48 89.1838 26.804 90.6051 25.452C91.1945 24.8627 92.2518 23.736 93.7771 22.072C92.2865 22.8 90.8825 23.164 89.5651 23.164C88.4905 23.164 87.8318 22.9907 87.5891 22.644C87.2078 22.0893 87.0171 20.72 87.0171 18.536C87.0171 16.6987 88.6638 14.376 91.9571 11.568C93.2745 10.424 94.7651 9.36667 96.4291 8.396C98.5785 7.148 100.26 6.524 101.473 6.524C102.998 6.524 103.761 8.24 103.761 11.672C103.761 13.232 102.565 15.156 100.173 17.444ZM96.8451 18.224C99.3411 15.5547 100.589 13.6653 100.589 12.556C100.589 12.2787 100.468 12.088 100.225 11.984C99.8785 11.9147 99.6011 11.88 99.3931 11.88C98.0758 11.88 96.2731 12.5213 93.9851 13.804C91.4891 15.156 90.2411 16.4213 90.2411 17.6C90.2411 18.016 90.4318 18.328 90.8131 18.536C91.1945 18.7093 91.6451 18.796 92.1651 18.796C94.1411 18.796 95.7011 18.6053 96.8451 18.224ZM124.188 21.448L126.112 19.576C127.291 18.432 129.059 16.8893 131.416 14.948C134.502 12.4173 136.374 11.152 137.032 11.152C137.518 11.152 137.916 11.4987 138.228 12.192C138.575 12.8507 138.748 13.4573 138.748 14.012C138.748 14.636 138.211 15.4507 137.136 16.456C136.304 17.2187 135.524 18.1373 134.796 19.212C133.86 20.564 133.392 21.6733 133.392 22.54C133.392 23.7533 133.93 24.36 135.004 24.36C135.663 24.36 136.322 24.1 136.98 23.58C137.154 23.4067 137.396 23.1813 137.708 22.904C138.055 22.6267 138.315 22.4013 138.488 22.228C139.424 21.292 139.944 20.824 140.048 20.824C140.395 20.824 140.568 20.98 140.568 21.292C140.568 21.7427 140.291 22.28 139.736 22.904L138.54 24.256C137.535 25.3653 136.374 26.4053 135.056 27.376C133.254 28.728 131.78 29.404 130.636 29.404C129.7 29.404 129.007 29.1613 128.556 28.676C128.106 28.1907 127.88 27.5147 127.88 26.648C127.88 25.6773 128.14 24.6893 128.66 23.684C129.042 22.956 129.77 21.8293 130.844 20.304C131.607 19.2293 132.144 18.2933 132.456 17.496C129.614 19.2987 127.291 21.1013 125.488 22.904C124.448 24.0133 123.408 25.1227 122.368 26.232C120.774 27.8613 119.664 28.676 119.04 28.676C118.728 28.676 118.486 28.3813 118.312 27.792C118.139 27.168 118.052 26.4053 118.052 25.504C118.052 24.7413 118.798 23.268 120.288 21.084C121.814 18.8653 122.576 17.34 122.576 16.508C122.299 16.6467 121.866 16.8893 121.276 17.236C120.687 17.548 120.254 17.7907 119.976 17.964C119.734 18.1373 117.931 20.0093 114.568 23.58C111.795 26.5267 110.096 28 109.472 28C108.086 28 107.392 26.7867 107.392 24.36C107.392 23.32 107.86 21.968 108.796 20.304C109.802 18.5013 110.738 17.6 111.604 17.6C111.743 17.6 111.83 17.6347 111.864 17.704C111.934 17.7733 112.003 17.8427 112.072 17.912C111.483 19.5413 111.188 21.0667 111.188 22.488C111.188 23.424 111.292 23.892 111.5 23.892C111.604 23.892 112.783 22.5747 115.036 19.94C116.527 18.2067 117.862 16.7853 119.04 15.676C119.976 14.8093 121.294 13.6827 122.992 12.296C125.176 10.528 126.546 9.644 127.1 9.644C128.175 9.644 128.712 10.6147 128.712 12.556C128.712 12.9373 128.591 13.3533 128.348 13.804C128.106 14.22 127.794 14.6533 127.412 15.104C126.65 16.0053 125.991 16.8893 125.436 17.756C124.604 19.0733 124.188 20.1307 124.188 20.928V21.448ZM155.476 11.776C156.586 12.1227 157.14 13.076 157.14 14.636C157.14 15.1907 157.054 15.7973 156.88 16.456C156.395 18.2587 155.754 19.784 154.956 21.032C154.852 21.2053 154.8 21.344 154.8 21.448C154.8 22.0373 155.199 22.332 155.996 22.332C156.447 22.332 156.984 22.124 157.608 21.708C157.92 21.5 158.128 21.396 158.232 21.396C158.614 21.396 158.804 21.5173 158.804 21.76C158.804 22.488 157.92 23.216 156.152 23.944C154.627 24.5333 153.414 24.828 152.512 24.828C150.467 27.3587 148.196 28.624 145.7 28.624C143.932 28.624 142.511 27.792 141.436 26.128C140.5 24.672 140.032 23.008 140.032 21.136C140.032 18.64 141.54 15.988 144.556 13.18C147.572 10.372 150.346 8.968 152.876 8.968C153.57 8.968 154.211 9.14133 154.8 9.488C155.424 9.83467 155.736 10.164 155.736 10.476L155.632 11.256L155.476 11.776ZM150.744 23.268C150.363 22.5053 150.172 21.7253 150.172 20.928C150.172 20.096 150.363 19.1947 150.744 18.224C151.299 16.8027 151.75 15.7107 152.096 14.948C152.235 14.6013 152.322 14.376 152.356 14.272C152.356 13.9253 152.096 13.752 151.576 13.752C151.091 13.752 150.259 14.168 149.08 15C148.144 15.6933 147.382 16.3347 146.792 16.924C145.752 17.964 144.99 18.9 144.504 19.732C143.915 20.7373 143.62 21.8987 143.62 23.216C143.62 23.944 143.828 24.4987 144.244 24.88C144.66 25.2613 145.319 25.452 146.22 25.452C147.572 25.452 149.08 24.724 150.744 23.268ZM176.012 21.552C176.012 19.0907 177.572 16.3173 180.692 13.232C183.985 10.008 187.157 8.396 190.208 8.396C190.797 8.396 191.283 8.51733 191.664 8.76C192.08 9.00267 192.288 9.40133 192.288 9.956C192.288 10.8227 191.612 12.2613 190.26 14.272C188.943 16.2827 187.937 17.288 187.244 17.288C186.897 17.288 186.672 17.0107 186.568 16.456C186.533 16.3173 186.447 16.1267 186.308 15.884C186.204 15.6413 186.048 15.5027 185.84 15.468H185.164C184.124 15.7453 182.911 16.5947 181.524 18.016C179.964 19.6453 179.184 21.0493 179.184 22.228C179.184 23.268 179.669 24.0827 180.64 24.672C181.437 25.1227 182.408 25.348 183.552 25.348C184.696 25.348 185.823 25.1053 186.932 24.62C188.249 24.0653 189.844 23.06 191.716 21.604C192.479 21.0147 192.964 20.72 193.172 20.72L193.484 20.876C193.588 20.9107 193.64 21.032 193.64 21.24C193.64 21.8987 192.132 23.5107 189.116 26.076C187.799 27.22 186.707 28.0347 185.84 28.52C184.419 29.352 183.119 29.768 181.94 29.768C179.895 29.768 178.335 28.676 177.26 26.492C176.428 24.828 176.012 23.1813 176.012 21.552ZM197.741 20.824C197.741 23.5627 198.764 24.932 200.809 24.932C202.057 24.932 203.808 24.204 206.061 22.748C208.349 21.2573 209.458 20.512 209.389 20.512C209.597 20.512 209.701 20.772 209.701 21.292C209.701 21.5693 209.112 22.3147 207.933 23.528C203.981 27.584 200.705 29.612 198.105 29.612C196.51 29.612 195.245 29.0053 194.309 27.792C193.512 26.6827 193.113 25.296 193.113 23.632C193.113 20.4427 194.534 17.1493 197.377 13.752C200.358 10.216 203.409 8.448 206.529 8.448C207.465 8.448 208.21 8.63867 208.765 9.02C209.32 9.40133 209.597 10.06 209.597 10.996C209.597 13.0413 208.106 15.156 205.125 17.34C202.49 19.2813 200.029 20.4427 197.741 20.824ZM197.741 18.9C199.058 18.588 200.584 17.7733 202.317 16.456C204.293 14.9653 205.281 13.6653 205.281 12.556C205.281 11.6547 204.917 11.204 204.189 11.204C202.906 11.204 201.554 12.192 200.133 14.168C198.954 15.7627 198.157 17.34 197.741 18.9ZM220.534 21.24C219.217 22.9387 217.969 24.36 216.79 25.504C214.953 27.272 213.532 28.156 212.526 28.156C211.313 28.156 210.412 27.22 209.822 25.348C209.406 24.0653 209.198 22.6613 209.198 21.136C209.198 19.8533 209.424 18.7267 209.874 17.756C210.082 17.3053 210.689 16.352 211.694 14.896C212.942 13.0587 213.913 11.7933 214.606 11.1C215.716 9.956 216.842 9.384 217.986 9.384C218.402 9.384 218.836 9.47067 219.286 9.644C219.876 9.88667 220.17 10.1813 220.17 10.528C220.17 11.2907 219.494 12.4 218.142 13.856C216.79 15.312 215.456 16.4213 214.138 17.184L212.89 17.912C212.682 18.4667 212.578 19.056 212.578 19.68C212.578 20.3733 212.717 20.98 212.994 21.5C213.306 21.9853 213.688 22.228 214.138 22.228C215.317 22.228 217.12 21.032 219.546 18.64L228.802 9.488C229.184 9.10667 229.478 8.916 229.686 8.916C230.102 8.916 230.414 9.19333 230.622 9.748C230.865 10.268 230.986 10.944 230.986 11.776V12.244C230.986 12.5213 230.917 12.7293 230.778 12.868L226.15 17.912C225.006 19.16 224.434 20.46 224.434 21.812C224.434 22.436 224.538 22.956 224.746 23.372C224.989 23.7533 225.353 23.944 225.838 23.944C226.566 23.944 227.849 23.372 229.686 22.228L231.194 21.292C231.472 21.4653 231.61 21.604 231.61 21.708C231.61 21.8813 231.194 22.436 230.362 23.372C229.634 24.1693 228.386 25.244 226.618 26.596C224.365 28.2947 222.788 29.144 221.886 29.144C220.465 29.144 219.754 28.1733 219.754 26.232C219.754 25.504 220.014 23.84 220.534 21.24ZM232.494 2.26C232.494 2.26 232.529 2.416 232.598 2.728C232.598 3.352 231.506 4.40933 229.322 5.9C227.138 7.356 225.665 8.084 224.902 8.084C222.926 8.084 221.938 6.71467 221.938 3.976C221.938 3.31733 222.354 2.624 223.186 1.896C224.053 1.168 224.816 0.804 225.474 0.804C225.89 0.804 226.098 0.994666 226.098 1.376C226.098 1.48 226.064 1.77467 225.994 2.26C225.89 2.60667 225.838 2.84933 225.838 2.988C225.838 3.82 226.358 4.236 227.398 4.236C227.745 4.236 228.577 3.88933 229.894 3.196C229.929 3.196 230.276 2.95333 230.934 2.468C231.42 2.156 231.766 2 231.974 2C232.217 2 232.39 2.08667 232.494 2.26ZM232.817 19.16C232.817 18.848 233.042 18.2413 233.493 17.34C234.082 16.1613 234.394 15.5373 234.429 15.468C234.567 15.1213 234.637 14.792 234.637 14.48C234.637 14.4453 234.515 14.2893 234.273 14.012C234.03 13.7347 233.909 13.4747 233.909 13.232C233.909 12.192 234.602 10.9267 235.989 9.436C237.375 7.91067 238.571 7.148 239.577 7.148C239.923 7.148 240.097 7.33867 240.097 7.72C239.993 7.96267 239.941 8.22267 239.941 8.5C239.941 8.74267 240.027 8.968 240.201 9.176C240.374 9.34933 240.669 9.436 241.085 9.436L243.217 9.176C244.187 9.072 245.106 8.916 245.973 8.708C246.527 8.63867 246.822 8.604 246.857 8.604C247.238 8.604 247.567 8.79467 247.845 9.176C248.226 9.83467 248.417 10.424 248.417 10.944C248.417 11.7413 247.897 12.6253 246.857 13.596C245.817 14.5667 244.794 15.7973 243.789 17.288C242.541 19.0907 241.917 20.4947 241.917 21.5C241.917 22.124 242.107 22.6093 242.489 22.956C242.87 23.3027 243.355 23.476 243.945 23.476C244.811 23.476 246.285 22.644 248.365 20.98C248.711 20.7027 249.006 20.564 249.249 20.564C249.595 20.564 249.769 20.7373 249.769 21.084C249.769 21.3613 249.145 22.0893 247.897 23.268C246.545 24.5507 245.505 25.452 244.777 25.972C243.563 26.908 242.35 27.532 241.137 27.844C240.478 28.0173 239.75 28.104 238.953 28.104C237.185 28.104 236.301 26.9947 236.301 24.776C236.301 23.736 236.699 22.5573 237.497 21.24C237.947 20.512 238.779 19.42 239.993 17.964C240.582 17.34 241.431 16.352 242.541 15C242.818 14.6187 242.957 14.3067 242.957 14.064C242.957 13.5093 242.315 13.232 241.033 13.232C239.126 13.232 237.895 13.4053 237.341 13.752C236.994 13.96 236.613 14.584 236.197 15.624C235.642 17.0107 234.914 18.0507 234.013 18.744C233.735 18.8133 233.337 18.952 232.817 19.16ZM268.324 11.152C269.052 12.4693 269.416 13.388 269.416 13.908C269.416 14.2547 268.775 15.4333 267.492 17.444C267.215 17.86 266.816 18.484 266.296 19.316C265.672 20.356 265.36 21.24 265.36 21.968C265.36 23.32 265.984 23.996 267.232 23.996C267.752 23.996 268.22 23.8747 268.636 23.632C268.636 23.632 269.468 23.1467 271.132 22.176C271.306 22.072 271.704 21.7773 272.328 21.292C272.606 21.084 272.831 20.98 273.004 20.98L273.264 21.292C273.264 21.5693 272.19 22.7653 270.04 24.88C269.07 25.816 268.359 26.4747 267.908 26.856C266.14 28.2773 264.667 28.988 263.488 28.988C262.691 28.988 262.015 28.728 261.46 28.208C260.94 27.688 260.68 27.0293 260.68 26.232C260.68 24.7413 261.079 23.1987 261.876 21.604C262.084 21.2227 262.396 20.564 262.812 19.628C257.404 25.2093 253.886 28 252.256 28C251.286 28 250.506 27.1507 249.916 25.452C249.466 24.1693 249.24 22.9213 249.24 21.708C249.24 18.5533 251.632 15.3467 256.416 12.088C258.08 10.944 259.831 9.956 261.668 9.124C264.095 8.01467 265.95 7.46 267.232 7.46C267.891 7.46 268.48 7.668 269 8.084C269.52 8.46533 269.78 8.88133 269.78 9.332C269.78 9.57467 269.676 9.83467 269.468 10.112C269.468 10.112 269.278 10.2853 268.896 10.632L268.324 11.152ZM252.204 22.124C252.274 22.54 252.326 22.8693 252.36 23.112C252.43 23.32 252.603 23.476 252.88 23.58C252.915 23.6147 253.002 23.632 253.14 23.632C253.66 23.632 254.475 23.3373 255.584 22.748C258.219 21.3613 260.715 19.2813 263.072 16.508C264.078 15.3293 264.58 14.4973 264.58 14.012C264.58 13.8387 264.494 13.6827 264.32 13.544C264.182 13.4053 263.904 13.336 263.488 13.336C261.339 13.336 258.964 14.2547 256.364 16.092C253.591 18.068 252.204 20.0787 252.204 22.124ZM272.74 21.552C272.74 19.0907 274.3 16.3173 277.42 13.232C280.713 10.008 283.885 8.396 286.936 8.396C287.525 8.396 288.011 8.51733 288.392 8.76C288.808 9.00267 289.016 9.40133 289.016 9.956C289.016 10.8227 288.34 12.2613 286.988 14.272C285.671 16.2827 284.665 17.288 283.972 17.288C283.625 17.288 283.4 17.0107 283.296 16.456C283.261 16.3173 283.175 16.1267 283.036 15.884C282.932 15.6413 282.776 15.5027 282.568 15.468H281.892C280.852 15.7453 279.639 16.5947 278.252 18.016C276.692 19.6453 275.912 21.0493 275.912 22.228C275.912 23.268 276.397 24.0827 277.368 24.672C278.165 25.1227 279.136 25.348 280.28 25.348C281.424 25.348 282.551 25.1053 283.66 24.62C284.977 24.0653 286.572 23.06 288.444 21.604C289.207 21.0147 289.692 20.72 289.9 20.72L290.212 20.876C290.316 20.9107 290.368 21.032 290.368 21.24C290.368 21.8987 288.86 23.5107 285.844 26.076C284.527 27.22 283.435 28.0347 282.568 28.52C281.147 29.352 279.847 29.768 278.668 29.768C276.623 29.768 275.063 28.676 273.988 26.492C273.156 24.828 272.74 23.1813 272.74 21.552ZM293.481 27.064C293.481 26.0933 293.966 24.8973 294.937 23.476C295.908 22.02 296.844 21.292 297.745 21.292C298.161 21.292 298.473 21.4653 298.681 21.812C298.924 22.1587 299.045 22.6267 299.045 23.216C299.045 24.2213 298.577 25.3827 297.641 26.7C296.705 28.0173 295.752 28.676 294.781 28.676C293.914 28.676 293.481 28.1387 293.481 27.064Z" fill="white"></path> </svg> 