<?xml version="1.0" encoding="UTF-8"?> <svg xmlns="http://www.w3.org/2000/svg" width="174" height="31" viewBox="0 0 174 31" fill="none"> <path d="M15.444 11.776C16.5533 12.1227 17.108 13.076 17.108 14.636C17.108 15.1907 17.0213 15.7973 16.848 16.456C16.3627 18.2587 15.7213 19.784 14.924 21.032C14.82 21.2053 14.768 21.344 14.768 21.448C14.768 22.0373 15.1667 22.332 15.964 22.332C16.4147 22.332 16.952 22.124 17.576 21.708C17.888 21.5 18.096 21.396 18.2 21.396C18.5813 21.396 18.772 21.5173 18.772 21.76C18.772 22.488 17.888 23.216 16.12 23.944C14.5947 24.5333 13.3813 24.828 12.48 24.828C10.4347 27.3587 8.164 28.624 5.668 28.624C3.9 28.624 2.47867 27.792 1.404 26.128C0.468 24.672 0 23.008 0 21.136C0 18.64 1.508 15.988 4.524 13.18C7.54 10.372 10.3133 8.968 12.844 8.968C13.5373 8.968 14.1787 9.14133 14.768 9.488C15.392 9.83467 15.704 10.164 15.704 10.476L15.6 11.256L15.444 11.776ZM10.712 23.268C10.3307 22.5053 10.14 21.7253 10.14 20.928C10.14 20.096 10.3307 19.1947 10.712 18.224C11.2667 16.8027 11.7173 15.7107 12.064 14.948C12.2027 14.6013 12.2893 14.376 12.324 14.272C12.324 13.9253 12.064 13.752 11.544 13.752C11.0587 13.752 10.2267 14.168 9.048 15C8.112 15.6933 7.34933 16.3347 6.76 16.924C5.72 17.964 4.95733 18.9 4.472 19.732C3.88267 20.7373 3.588 21.8987 3.588 23.216C3.588 23.944 3.796 24.4987 4.212 24.88C4.628 25.2613 5.28667 25.452 6.188 25.452C7.54 25.452 9.048 24.724 10.712 23.268ZM22.8451 22.332C27.3864 17.444 31.7544 13.7693 35.9491 11.308C37.0584 10.6493 37.9424 10.32 38.6011 10.32C39.4677 10.32 39.9011 10.9787 39.9011 12.296C39.9011 13.5093 39.2944 14.8613 38.0811 16.352C37.6997 16.768 37.1277 17.4267 36.3651 18.328C35.0477 19.9573 34.3891 21.344 34.3891 22.488C34.3891 23.528 34.9264 24.048 36.0011 24.048C36.7637 24.048 37.6131 23.7187 38.5491 23.06C39.2771 22.4707 40.0051 21.8813 40.7331 21.292C41.0104 21.084 41.2357 20.98 41.4091 20.98C41.6864 20.98 41.8251 21.2053 41.8251 21.656C41.8251 21.864 41.7557 22.0373 41.6171 22.176C41.4437 22.4187 41.2011 22.696 40.8891 23.008C39.6411 24.3253 38.2197 25.5907 36.6251 26.804C34.4064 28.5373 32.7077 29.404 31.5291 29.404C29.8651 29.404 29.0331 28.4507 29.0331 26.544C29.0331 25.296 29.4664 23.996 30.3331 22.644L31.9971 20.512C32.7597 19.5413 33.1411 18.9 33.1411 18.588C33.1411 18.0333 32.7771 17.756 32.0491 17.756C30.8011 17.756 28.7384 19.264 25.8611 22.28C25.0637 23.112 24.0584 24.412 22.8451 26.18C22.0131 27.3933 21.3544 28 20.8691 28C19.4824 28 18.7891 26.3707 18.7891 23.112V21.708C18.7891 20.564 19.2744 19.2813 20.2451 17.86C20.8691 16.6467 22.0824 15.052 23.8851 13.076C24.7864 12.1053 25.7571 11.62 26.7971 11.62C28.0451 11.62 28.6691 11.9667 28.6691 12.66C28.6691 12.9373 28.5651 13.2147 28.3571 13.492C28.2531 13.5613 28.0277 13.7693 27.6811 14.116C27.2304 14.6013 26.2944 15.6587 24.8731 17.288C23.2784 19.1253 22.4811 20.2173 22.4811 20.564C22.4811 21.2573 22.6024 21.8467 22.8451 22.332ZM46.3158 16.352C44.5824 16.6987 43.3171 16.872 42.5198 16.872C42.0691 16.872 41.8438 16.5947 41.8438 16.04C41.8438 15.832 42.0518 15.6413 42.4678 15.468C44.2011 14.8093 45.3624 14.272 45.9518 13.856L50.9958 10.32C51.3078 10.0773 52.0531 9.45333 53.2318 8.448C53.8904 7.85867 54.3584 7.564 54.6358 7.564C55.7451 7.564 56.5598 8.62133 57.0798 10.736C54.4451 12.3653 52.7811 13.492 52.0878 14.116C51.3944 14.74 50.6491 15.6587 49.8518 16.872C49.2278 17.808 48.7944 18.536 48.5518 19.056C48.0318 20.1653 47.7718 21.2747 47.7718 22.384C47.7718 23.3547 47.8758 24.0307 48.0838 24.412C48.3264 24.7587 48.6038 24.932 48.9158 24.932C49.3318 24.932 49.8171 24.5853 50.3718 23.892C50.3718 22.0547 50.7878 20.356 51.6198 18.796C52.6598 16.9587 54.0291 16.04 55.7278 16.04C55.9358 16.04 56.1264 16.1093 56.2998 16.248C56.8891 16.664 57.1838 17.34 57.1838 18.276C57.1838 18.6227 57.1318 19.0387 57.0278 19.524C58.8304 18.5533 61.3438 15.6587 64.5678 10.84C65.0878 10.0773 65.5384 9.696 65.9198 9.696C66.2318 9.696 66.5438 10.0253 66.8558 10.684C67.2024 11.308 67.3758 11.8973 67.3758 12.452C67.3758 12.9373 66.7344 13.8733 65.4518 15.26C64.3078 16.508 63.4931 17.444 63.0078 18.068C61.9678 19.4547 61.4478 20.7373 61.4478 21.916C61.4478 22.6093 61.5344 23.1467 61.7078 23.528C61.9158 23.9093 62.2971 24.1 62.8518 24.1C64.2038 24.1 65.5384 23.4413 66.8558 22.124C67.2371 21.7427 67.5318 21.552 67.7398 21.552C68.1558 21.552 68.3638 21.6733 68.3638 21.916C68.3638 22.4707 67.4971 23.5627 65.7638 25.192C64.3771 26.4747 63.3718 27.3587 62.7478 27.844C61.4651 28.8147 60.3558 29.3 59.4198 29.3C57.6518 29.3 56.7678 28.364 56.7678 26.492C56.7678 24.5507 57.1838 22.8 58.0158 21.24C57.7038 21.552 57.2184 21.8467 56.5598 22.124L55.9358 22.384C55.1731 23.4933 54.0811 24.6547 52.6598 25.868C50.9611 27.2893 49.5918 28 48.5518 28C47.4771 28 46.5758 27.116 45.8478 25.348C45.2238 23.892 44.9118 22.54 44.9118 21.292C44.9118 19.8707 45.3798 18.224 46.3158 16.352ZM72.4076 22.28C73.1009 21.5867 74.1929 20.5293 75.6836 19.108C76.9662 17.964 78.4222 16.6987 80.0516 15.312C84.0036 11.984 86.5862 10.32 87.7996 10.32C88.8742 10.32 89.4116 10.9787 89.4116 12.296C89.4116 12.6773 89.3596 13.0067 89.2556 13.284C89.1516 13.5267 88.9609 13.908 88.6836 14.428C87.8169 15.9533 86.9849 17.2187 86.1876 18.224C85.5289 19.056 85.1996 19.6107 85.1996 19.888C85.1996 19.9573 85.3036 20.096 85.5116 20.304C85.6849 20.304 86.3262 19.8013 87.4356 18.796C90.1742 16.3 92.7222 14.3587 95.0796 12.972C95.4956 12.7293 96.2409 12.296 97.3156 11.672C97.7662 11.4293 98.1649 11.308 98.5116 11.308C98.9622 11.308 99.3609 11.6893 99.7076 12.452C100.054 13.18 100.228 13.804 100.228 14.324C100.228 14.6013 100.176 14.8093 100.072 14.948C99.9676 15.052 99.7422 15.26 99.3956 15.572C96.3102 18.4147 94.7676 20.72 94.7676 22.488C94.7676 23.528 95.2876 24.048 96.3276 24.048C97.2982 24.048 98.4076 23.5453 99.6556 22.54C100.904 21.5 101.614 20.98 101.788 20.98L102.152 21.188V21.656C101.909 22.7307 100.418 24.2907 97.6796 26.336C94.9409 28.3813 93.0169 29.404 91.9076 29.404C91.2489 29.404 90.6769 29.196 90.1916 28.78C89.7062 28.3987 89.4636 27.896 89.4636 27.272C89.4636 26.4747 89.5676 25.712 89.7756 24.984C90.0529 24.048 90.3649 23.268 90.7116 22.644L91.9596 20.408C92.4102 19.6107 92.6356 19.0907 92.6356 18.848C92.6356 18.64 92.4796 18.536 92.1676 18.536C91.9249 18.536 91.0236 19.1427 89.4636 20.356C88.3542 21.2227 87.4529 21.9853 86.7596 22.644C85.8582 23.5107 84.5236 24.7933 82.7556 26.492C81.7156 27.4973 80.8316 28 80.1036 28C79.7222 28 79.4102 27.8093 79.1676 27.428C78.9596 27.012 78.8556 26.6133 78.8556 26.232C78.8556 25.296 79.3582 24.0653 80.3636 22.54C80.8142 21.8813 81.3862 21.032 82.0796 19.992C82.4956 19.368 82.7036 18.9 82.7036 18.588C82.7036 18.0333 82.3222 17.756 81.5596 17.756C80.4156 17.756 78.3702 19.264 75.4236 22.28C74.6956 23.0427 73.6902 24.3427 72.4076 26.18C71.5756 27.3933 70.9169 28 70.4316 28C69.0449 28 68.3516 26.3707 68.3516 23.112C68.3516 21.24 68.6982 19.68 69.3916 18.432C69.6342 18.016 70.3276 17.0627 71.4716 15.572C72.3382 14.4627 72.9622 13.7 73.3436 13.284C74.4182 12.14 75.6316 11.568 76.9836 11.568C77.3649 11.568 77.6596 11.672 77.8676 11.88C78.1102 12.088 78.2316 12.3133 78.2316 12.556C78.2316 12.7987 78.1102 13.0933 77.8676 13.44C77.0356 14.272 75.8916 15.5547 74.4356 17.288C72.8409 19.1947 72.0436 20.356 72.0436 20.772C72.0436 20.98 72.0956 21.2573 72.1996 21.604C72.1996 21.6733 72.2689 21.8987 72.4076 22.28ZM82.8076 9.592C82.4609 9.24533 82.2876 8.53467 82.2876 7.46C82.2876 5.62267 84.4196 3.88933 88.6836 2.26C92.2889 0.873332 95.2356 0.179999 97.5236 0.179999C98.8409 0.179999 99.7422 0.457331 100.228 1.012C100.505 1.324 100.644 1.61866 100.644 1.896C100.644 1.96533 100.609 2.104 100.54 2.312L99.0316 4.808C98.5116 4.56533 97.9222 4.392 97.2636 4.288C96.3622 4.21866 95.5129 4.184 94.7156 4.184C92.8782 4.184 90.8156 4.652 88.5276 5.588C85.8236 6.69733 83.9169 8.032 82.8076 9.592ZM109.036 17.34L112.832 10.216C112.451 10.528 111.948 10.944 111.324 11.464C111.151 11.568 110.977 11.6893 110.804 11.828L109.868 12.452C108.481 13.388 106.8 14.376 104.824 15.416H104.512L104.356 15.208C104.633 14.9307 105.465 14.22 106.852 13.076C108.689 11.5853 110.405 10.0253 112 8.396L114.704 5.64C115.085 5.224 115.467 4.79067 115.848 4.34C116.091 4.16667 116.437 4.08 116.888 4.08C117.755 4.08 118.327 4.21867 118.604 4.496C118.743 4.63467 118.812 4.87733 118.812 5.224C118.812 6.784 118.084 8.58667 116.628 10.632C114.583 13.4747 113.439 15.1733 113.196 15.728C114.583 15.5547 115.467 15.468 115.848 15.468C116.68 15.468 117.373 15.52 117.928 15.624C119.107 13.6133 120.043 12.14 120.736 11.204C122.053 9.40133 123.093 8.5 123.856 8.5C124.549 8.5 124.896 9.45333 124.896 11.36C124.896 11.984 124.844 12.4 124.74 12.608C124.636 12.816 124.324 13.1453 123.804 13.596C121.031 16.0573 119.471 18.3453 119.124 20.46V21.292C119.228 21.7427 119.419 22.072 119.696 22.28C119.973 22.4533 120.303 22.54 120.684 22.54C122.036 22.54 123.319 21.9853 124.532 20.876C125.503 19.9747 126.161 19.524 126.508 19.524C126.751 19.524 126.872 19.6453 126.872 19.888V20.096C126.768 20.8587 125.416 22.332 122.816 24.516C120.077 26.8387 118.015 28 116.628 28C114.895 28 114.028 27.22 114.028 25.66C114.028 23.892 115.051 21.1707 117.096 17.496C116.992 17.4613 116.715 17.444 116.264 17.444C114.461 17.444 112.832 17.9467 111.376 18.952L109.608 22.124C107.875 25.2093 106.696 27.2027 106.072 28.104C104.928 29.6987 103.992 30.496 103.264 30.496C102.536 30.496 102.172 29.924 102.172 28.78C102.172 26.908 102.917 24.776 104.408 22.384C105.829 20.1653 107.372 18.484 109.036 17.34ZM131.324 16.352C129.59 16.6987 128.325 16.872 127.528 16.872C127.077 16.872 126.852 16.5947 126.852 16.04C126.852 15.832 127.06 15.6413 127.476 15.468C129.209 14.8093 130.37 14.272 130.96 13.856L136.004 10.32C136.316 10.0773 137.061 9.45333 138.24 8.448C138.898 7.85867 139.366 7.564 139.644 7.564C140.753 7.564 141.568 8.62133 142.088 10.736C139.453 12.3653 137.789 13.492 137.096 14.116C136.402 14.74 135.657 15.6587 134.86 16.872C134.236 17.808 133.802 18.536 133.56 19.056C133.04 20.1653 132.78 21.2747 132.78 22.384C132.78 23.3547 132.884 24.0307 133.092 24.412C133.334 24.7587 133.612 24.932 133.924 24.932C134.34 24.932 134.825 24.5853 135.38 23.892C135.38 22.0547 135.796 20.356 136.628 18.796C137.668 16.9587 139.037 16.04 140.736 16.04C140.944 16.04 141.134 16.1093 141.308 16.248C141.897 16.664 142.192 17.34 142.192 18.276C142.192 18.6227 142.14 19.0387 142.036 19.524C143.838 18.5533 146.352 15.6587 149.576 10.84C150.096 10.0773 150.546 9.696 150.928 9.696C151.24 9.696 151.552 10.0253 151.864 10.684C152.21 11.308 152.384 11.8973 152.384 12.452C152.384 12.9373 151.742 13.8733 150.46 15.26C149.316 16.508 148.501 17.444 148.016 18.068C146.976 19.4547 146.456 20.7373 146.456 21.916C146.456 22.6093 146.542 23.1467 146.716 23.528C146.924 23.9093 147.305 24.1 147.86 24.1C149.212 24.1 150.546 23.4413 151.864 22.124C152.245 21.7427 152.54 21.552 152.748 21.552C153.164 21.552 153.372 21.6733 153.372 21.916C153.372 22.4707 152.505 23.5627 150.772 25.192C149.385 26.4747 148.38 27.3587 147.756 27.844C146.473 28.8147 145.364 29.3 144.428 29.3C142.66 29.3 141.776 28.364 141.776 26.492C141.776 24.5507 142.192 22.8 143.024 21.24C142.712 21.552 142.226 21.8467 141.568 22.124L140.944 22.384C140.181 23.4933 139.089 24.6547 137.668 25.868C135.969 27.2893 134.6 28 133.56 28C132.485 28 131.584 27.116 130.856 25.348C130.232 23.892 129.92 22.54 129.92 21.292C129.92 19.8707 130.388 18.224 131.324 16.352ZM166.515 14.22L171.871 10.268C172.495 9.81733 172.981 9.592 173.327 9.592C173.605 9.592 173.743 9.73067 173.743 10.008C173.743 10.32 173.587 10.684 173.275 11.1C172.963 11.4813 172.686 11.776 172.443 11.984L166.411 17.444L165.995 22.8C165.961 22.904 165.943 23.06 165.943 23.268C165.943 23.6493 166.013 23.9267 166.151 24.1C166.325 24.412 166.602 24.568 166.983 24.568C167.607 24.568 168.543 24.0307 169.791 22.956C169.999 22.7827 170.242 22.6093 170.519 22.436C170.693 22.2973 170.918 22.228 171.195 22.228C171.369 22.228 171.507 22.28 171.611 22.384C171.681 22.592 171.715 22.7307 171.715 22.8C171.715 23.008 171.559 23.2507 171.247 23.528C169.687 25.0187 168.526 26.076 167.763 26.7C166.446 27.8787 165.215 28.832 164.071 29.56C163.378 30.0107 162.823 30.236 162.407 30.236C161.61 30.236 161.211 29.664 161.211 28.52C161.697 25.4347 161.939 23.216 161.939 21.864C160.414 23.9093 158.334 25.6253 155.699 27.012C155.526 27.116 155.162 27.3067 154.607 27.584C154.503 27.6187 154.209 27.7573 153.723 28C153.481 28 153.359 27.7747 153.359 27.324C153.359 26.4573 153.845 25.3827 154.815 24.1C155.335 23.4067 155.855 22.9733 156.375 22.8L158.403 22.488L161.939 19.004C162.078 18.2067 162.147 17.3747 162.147 16.508C162.147 14.22 161.679 13.076 160.743 13.076C160.466 13.076 160.154 13.1627 159.807 13.336C159.669 13.4053 159.374 13.6133 158.923 13.96L155.803 16.248C155.561 16.4213 155.353 16.508 155.179 16.508C154.833 16.508 154.659 16.3693 154.659 16.092C154.659 15.9533 154.677 15.8147 154.711 15.676C154.746 15.5027 154.919 15.26 155.231 14.948L156.947 13.232C160.31 9.86933 162.598 8.188 163.811 8.188C165.649 8.188 166.567 9.71333 166.567 12.764V13.648C166.533 13.8213 166.515 14.012 166.515 14.22Z" fill="#333333"></path> </svg> 