<?xml version="1.0" encoding="UTF-8"?> <svg xmlns="http://www.w3.org/2000/svg" width="316" height="46" viewBox="0 0 316 46" fill="none"> <path d="M13.688 22.604C14.848 21.676 15.9307 20.6513 16.936 19.53C18.4053 17.8673 19.14 16.5913 19.14 15.702C19.14 15.238 18.9273 14.8707 18.502 14.6C18.1153 14.3293 17.6513 14.194 17.11 14.194C16.066 14.194 14.5193 14.6 12.47 15.412C12.122 15.5667 11.02 16.166 9.164 17.21C7.308 18.2153 6.34133 18.718 6.264 18.718C6.032 18.718 5.49067 18.1767 4.64 17.094C3.828 15.9727 3.422 15.2767 3.422 15.006C3.422 14.3873 5.29733 13.2273 9.048 11.526C12.1027 10.134 14.7127 9.438 16.878 9.438C18.6567 9.438 19.9907 10.1533 20.88 11.584C21.6147 12.7827 21.982 14.31 21.982 16.166C21.982 17.6353 20.648 20.1487 17.98 23.706C19.0627 24.0153 19.8747 24.17 20.416 24.17H21.112L21.228 24.402C21.228 24.4793 21.17 24.5953 21.054 24.75C20.822 24.982 20.5707 25.33 20.3 25.794C20.068 26.2193 19.7973 26.548 19.488 26.78C19.2173 26.9733 18.9273 27.07 18.618 27.07C17.9993 27.07 17.0327 26.838 15.718 26.374C14.4033 27.8433 12.8373 29.1387 11.02 30.26C8.89333 31.6133 7.018 32.29 5.394 32.29C4.65933 32.29 3.61533 31.942 2.262 31.246C0.754 30.5113 0 29.8153 0 29.158C0 28.9647 0.116 28.7327 0.348 28.462L1.044 27.592C2.436 25.8907 3.28667 25.04 3.596 25.04C3.63467 25.04 3.98267 25.3107 4.64 25.852C5.29733 26.3933 5.99333 26.664 6.728 26.664C7.656 26.664 8.97067 26.142 10.672 25.098C10.1693 25.098 9.55067 24.9433 8.816 24.634C8.08133 24.3247 7.656 23.9767 7.54 23.59C7.50133 23.5513 7.482 23.4353 7.482 23.242C7.482 22.778 7.69467 22.0433 8.12 21.038C8.42933 20.3033 8.68067 19.936 8.874 19.936C9.338 20.3227 9.86 20.7673 10.44 21.27C11.3293 21.85 12.412 22.2947 13.688 22.604ZM38.9515 20.226C36.6315 21.2313 33.2482 24.112 28.8015 28.868C28.1829 29.5253 27.5062 30.2213 26.7715 30.956C26.0369 31.652 25.4182 32 24.9155 32C24.2969 32 23.7749 31.5553 23.3495 30.666C22.9629 29.9313 22.7695 29.2353 22.7695 28.578C22.7695 27.4567 23.2335 25.91 24.1615 23.938C25.1669 21.7727 26.1529 20.69 27.1195 20.69C27.3902 20.69 27.5835 20.748 27.6995 20.864C27.6995 20.9027 27.7189 20.9607 27.7575 21.038L27.4675 21.85C27.0422 23.0487 26.8295 24.4407 26.8295 26.026C26.8295 26.9927 26.9649 27.476 27.2355 27.476C27.4675 27.476 28.7629 26.142 31.1215 23.474C33.9055 20.3033 36.9215 17.558 40.1695 15.238C42.2575 13.73 43.6302 12.976 44.2875 12.976C44.7515 12.976 45.1382 13.4013 45.4475 14.252C45.7182 14.9093 45.8535 15.528 45.8535 16.108C45.8535 16.572 44.9642 17.79 43.1855 19.762C41.9095 21.5407 41.0975 22.7587 40.7495 23.416C40.2855 24.3053 40.0535 25.0593 40.0535 25.678C40.0535 26.6447 40.6529 27.128 41.8515 27.128C42.4702 27.128 43.3015 26.7607 44.3455 26.026C45.1575 25.446 45.9309 24.7887 46.6655 24.054C47.0909 23.6287 47.4195 23.416 47.6515 23.416C47.9609 23.416 48.1155 23.6287 48.1155 24.054C48.1155 24.2473 47.2455 25.3687 45.5055 27.418C44.5389 28.5393 43.3595 29.6607 41.9675 30.782C39.9569 32.406 38.4682 33.218 37.5015 33.218C36.4575 33.218 35.6649 32.7153 35.1235 31.71C34.6595 30.898 34.4275 29.912 34.4275 28.752C34.4275 27.8627 34.5629 27.128 34.8335 26.548C34.8722 26.3547 35.4522 25.388 36.5735 23.648C36.7669 23.3387 37.0182 22.9327 37.3275 22.43C37.7915 21.734 38.3329 20.9993 38.9515 20.226ZM53.2499 23.996C53.2499 27.0507 54.3906 28.578 56.6719 28.578C58.0639 28.578 60.0166 27.766 62.5299 26.142C65.0819 24.4793 66.3192 23.648 66.2419 23.648C66.4739 23.648 66.5899 23.938 66.5899 24.518C66.5899 24.8273 65.9326 25.6587 64.6179 27.012C60.2099 31.536 56.5559 33.798 53.6559 33.798C51.8772 33.798 50.4659 33.1213 49.4219 31.768C48.5326 30.5307 48.0879 28.984 48.0879 27.128C48.0879 23.5707 49.6732 19.8973 52.8439 16.108C56.1692 12.164 59.5719 10.192 63.0519 10.192C64.0959 10.192 64.9272 10.4047 65.5459 10.83C66.1646 11.2553 66.4739 11.99 66.4739 13.034C66.4739 15.3153 64.8112 17.674 61.4859 20.11C58.5472 22.2753 55.8019 23.5707 53.2499 23.996ZM53.2499 21.85C54.7192 21.502 56.4206 20.5933 58.3539 19.124C60.5579 17.4613 61.6599 16.0113 61.6599 14.774C61.6599 13.7687 61.2539 13.266 60.4419 13.266C59.0112 13.266 57.5032 14.368 55.9179 16.572C54.6032 18.3507 53.7139 20.11 53.2499 21.85ZM85.3434 24.692L87.4894 22.604C88.804 21.328 90.776 19.6073 93.4054 17.442C96.8467 14.6193 98.9347 13.208 99.6694 13.208C100.211 13.208 100.655 13.5947 101.003 14.368C101.39 15.1027 101.583 15.7793 101.583 16.398C101.583 17.094 100.984 18.0027 99.7854 19.124C98.8574 19.9747 97.9874 20.9993 97.1754 22.198C96.1314 23.706 95.6094 24.9433 95.6094 25.91C95.6094 27.2633 96.2087 27.94 97.4074 27.94C98.142 27.94 98.8767 27.65 99.6114 27.07C99.8047 26.8767 100.075 26.6253 100.423 26.316C100.81 26.0067 101.1 25.7553 101.293 25.562C102.337 24.518 102.917 23.996 103.033 23.996C103.42 23.996 103.613 24.17 103.613 24.518C103.613 25.0207 103.304 25.62 102.685 26.316L101.351 27.824C100.23 29.0613 98.9347 30.2213 97.4654 31.304C95.4547 32.812 93.8114 33.566 92.5354 33.566C91.4914 33.566 90.718 33.2953 90.2154 32.754C89.7127 32.2127 89.4614 31.4587 89.4614 30.492C89.4614 29.4093 89.7514 28.3073 90.3314 27.186C90.7567 26.374 91.5687 25.1173 92.7674 23.416C93.618 22.2173 94.2174 21.1733 94.5654 20.284C91.3947 22.2947 88.804 24.3053 86.7934 26.316C85.6334 27.5533 84.4734 28.7907 83.3134 30.028C81.5347 31.8453 80.2974 32.754 79.6014 32.754C79.2534 32.754 78.9827 32.4253 78.7894 31.768C78.596 31.072 78.4994 30.2213 78.4994 29.216C78.4994 28.3653 79.3307 26.722 80.9934 24.286C82.6947 21.8113 83.5454 20.11 83.5454 19.182C83.236 19.3367 82.7527 19.6073 82.0954 19.994C81.438 20.342 80.9547 20.6127 80.6454 20.806C80.3747 20.9993 78.364 23.0873 74.6134 27.07C71.52 30.3567 69.6254 32 68.9294 32C67.3827 32 66.6094 30.6467 66.6094 27.94C66.6094 26.78 67.1314 25.272 68.1754 23.416C69.2967 21.4053 70.3407 20.4 71.3074 20.4C71.462 20.4 71.5587 20.4387 71.5974 20.516C71.6747 20.5933 71.752 20.6707 71.8294 20.748C71.172 22.5653 70.8434 24.2667 70.8434 25.852C70.8434 26.896 70.9594 27.418 71.1914 27.418C71.3074 27.418 72.622 25.9487 75.1354 23.01C76.798 21.0767 78.2867 19.4913 79.6014 18.254C80.6454 17.2873 82.1147 16.0307 84.0094 14.484C86.4454 12.512 87.9727 11.526 88.5914 11.526C89.79 11.526 90.3894 12.6087 90.3894 14.774C90.3894 15.1993 90.254 15.6633 89.9834 16.166C89.7127 16.63 89.3647 17.1133 88.9394 17.616C88.0887 18.6213 87.354 19.6073 86.7354 20.574C85.8074 22.0433 85.3434 23.2227 85.3434 24.112V24.692ZM108.758 23.996C108.758 27.0507 109.898 28.578 112.18 28.578C113.572 28.578 115.524 27.766 118.038 26.142C120.59 24.4793 121.827 23.648 121.75 23.648C121.982 23.648 122.098 23.938 122.098 24.518C122.098 24.8273 121.44 25.6587 120.126 27.012C115.718 31.536 112.064 33.798 109.164 33.798C107.385 33.798 105.974 33.1213 104.93 31.768C104.04 30.5307 103.596 28.984 103.596 27.128C103.596 23.5707 105.181 19.8973 108.352 16.108C111.677 12.164 115.08 10.192 118.56 10.192C119.604 10.192 120.435 10.4047 121.054 10.83C121.672 11.2553 121.982 11.99 121.982 13.034C121.982 15.3153 120.319 17.674 116.994 20.11C114.055 22.2753 111.31 23.5707 108.758 23.996ZM108.758 21.85C110.227 21.502 111.928 20.5933 113.862 19.124C116.066 17.4613 117.168 16.0113 117.168 14.774C117.168 13.7687 116.762 13.266 115.95 13.266C114.519 13.266 113.011 14.368 111.426 16.572C110.111 18.3507 109.222 20.11 108.758 21.85ZM129.773 20.11L134.007 12.164C133.582 12.512 133.021 12.976 132.325 13.556C132.132 13.672 131.939 13.8073 131.745 13.962L130.701 14.658C129.155 15.702 127.279 16.804 125.075 17.964H124.727L124.553 17.732C124.863 17.4227 125.791 16.63 127.337 15.354C129.387 13.6913 131.301 11.9513 133.079 10.134L136.095 7.06C136.521 6.596 136.946 6.11267 137.371 5.61C137.642 5.41667 138.029 5.32 138.531 5.32C139.498 5.32 140.136 5.47467 140.445 5.784C140.6 5.93867 140.677 6.20933 140.677 6.596C140.677 8.336 139.865 10.3467 138.241 12.628C135.96 15.7987 134.684 17.6933 134.413 18.312C135.96 18.1187 136.946 18.022 137.371 18.022C138.299 18.022 139.073 18.08 139.691 18.196C141.006 15.9533 142.05 14.31 142.823 13.266C144.293 11.2553 145.453 10.25 146.303 10.25C147.077 10.25 147.463 11.3133 147.463 13.44C147.463 14.136 147.405 14.6 147.289 14.832C147.173 15.064 146.825 15.4313 146.245 15.934C143.152 18.6793 141.412 21.2313 141.025 23.59V24.518C141.141 25.0207 141.354 25.388 141.663 25.62C141.973 25.8133 142.34 25.91 142.765 25.91C144.273 25.91 145.704 25.2913 147.057 24.054C148.14 23.0487 148.875 22.546 149.261 22.546C149.532 22.546 149.667 22.6813 149.667 22.952V23.184C149.551 24.0347 148.043 25.678 145.143 28.114C142.089 30.7047 139.788 32 138.241 32C136.308 32 135.341 31.13 135.341 29.39C135.341 27.418 136.482 24.3827 138.763 20.284C138.647 20.2453 138.338 20.226 137.835 20.226C135.825 20.226 134.007 20.7867 132.383 21.908L130.411 25.446C128.478 28.8873 127.163 31.1107 126.467 32.116C125.191 33.8947 124.147 34.784 123.335 34.784C122.523 34.784 122.117 34.146 122.117 32.87C122.117 30.782 122.949 28.404 124.611 25.736C126.197 23.2613 127.917 21.386 129.773 20.11ZM154.169 25.62C154.942 24.8467 156.16 23.6673 157.823 22.082C159.253 20.806 160.877 19.3947 162.695 17.848C167.103 14.136 169.983 12.28 171.337 12.28C172.535 12.28 173.135 13.0147 173.135 14.484C173.135 14.9093 173.077 15.2767 172.961 15.586C172.845 15.8567 172.632 16.282 172.323 16.862C171.356 18.5633 170.428 19.9747 169.539 21.096C168.804 22.024 168.437 22.6427 168.437 22.952C168.437 23.0293 168.553 23.184 168.785 23.416C168.978 23.416 169.693 22.8553 170.931 21.734C173.985 18.95 176.827 16.7847 179.457 15.238C179.921 14.9673 180.752 14.484 181.951 13.788C182.453 13.5173 182.898 13.382 183.285 13.382C183.787 13.382 184.232 13.8073 184.619 14.658C185.005 15.47 185.199 16.166 185.199 16.746C185.199 17.0553 185.141 17.2873 185.025 17.442C184.909 17.558 184.657 17.79 184.271 18.138C180.829 21.3087 179.109 23.88 179.109 25.852C179.109 27.012 179.689 27.592 180.849 27.592C181.931 27.592 183.169 27.0313 184.561 25.91C185.953 24.75 186.745 24.17 186.939 24.17L187.345 24.402V24.924C187.074 26.1227 185.411 27.8627 182.357 30.144C179.302 32.4253 177.156 33.566 175.919 33.566C175.184 33.566 174.546 33.334 174.005 32.87C173.463 32.4447 173.193 31.884 173.193 31.188C173.193 30.2987 173.309 29.448 173.541 28.636C173.85 27.592 174.198 26.722 174.585 26.026L175.977 23.532C176.479 22.6427 176.731 22.0627 176.731 21.792C176.731 21.56 176.557 21.444 176.209 21.444C175.938 21.444 174.933 22.1207 173.193 23.474C171.955 24.4407 170.95 25.2913 170.177 26.026C169.171 26.9927 167.683 28.4233 165.711 30.318C164.551 31.4393 163.565 32 162.753 32C162.327 32 161.979 31.7873 161.709 31.362C161.477 30.898 161.361 30.4533 161.361 30.028C161.361 28.984 161.921 27.6113 163.043 25.91C163.545 25.1753 164.183 24.228 164.957 23.068C165.421 22.372 165.653 21.85 165.653 21.502C165.653 20.8833 165.227 20.574 164.377 20.574C163.101 20.574 160.819 22.256 157.533 25.62C156.721 26.4707 155.599 27.9207 154.169 29.97C153.241 31.3233 152.506 32 151.965 32C150.418 32 149.645 30.1827 149.645 26.548C149.645 24.46 150.031 22.72 150.805 21.328C151.075 20.864 151.849 19.8007 153.125 18.138C154.091 16.9007 154.787 16.05 155.213 15.586C156.411 14.31 157.765 13.672 159.273 13.672C159.698 13.672 160.027 13.788 160.259 14.02C160.529 14.252 160.665 14.5033 160.665 14.774C160.665 15.0447 160.529 15.3733 160.259 15.76C159.331 16.688 158.055 18.1187 156.431 20.052C154.652 22.1787 153.763 23.474 153.763 23.938C153.763 24.17 153.821 24.4793 153.937 24.866C153.937 24.9433 154.014 25.1947 154.169 25.62ZM165.769 11.468C165.382 11.0813 165.189 10.2887 165.189 9.09C165.189 7.04067 167.567 5.10733 172.323 3.29C176.344 1.74333 179.631 0.969998 182.183 0.969998C183.652 0.969998 184.657 1.27933 185.199 1.898C185.508 2.246 185.663 2.57466 185.663 2.884C185.663 2.96133 185.624 3.116 185.547 3.348L183.865 6.132C183.285 5.86133 182.627 5.668 181.893 5.552C180.887 5.47466 179.94 5.436 179.051 5.436C177.001 5.436 174.701 5.958 172.149 7.002C169.133 8.23933 167.006 9.728 165.769 11.468ZM208.653 13.208C209.465 14.6773 209.871 15.702 209.871 16.282C209.871 16.6687 209.156 17.9833 207.725 20.226C207.416 20.69 206.971 21.386 206.391 22.314C205.695 23.474 205.347 24.46 205.347 25.272C205.347 26.78 206.043 27.534 207.435 27.534C208.015 27.534 208.537 27.3987 209.001 27.128C209.001 27.128 209.929 26.5867 211.785 25.504C211.979 25.388 212.423 25.0593 213.119 24.518C213.429 24.286 213.68 24.17 213.873 24.17L214.163 24.518C214.163 24.8273 212.965 26.1613 210.567 28.52C209.485 29.564 208.692 30.2987 208.189 30.724C206.217 32.3093 204.574 33.102 203.259 33.102C202.37 33.102 201.616 32.812 200.997 32.232C200.417 31.652 200.127 30.9173 200.127 30.028C200.127 28.3653 200.572 26.6447 201.461 24.866C201.693 24.4407 202.041 23.706 202.505 22.662C196.473 28.8873 192.549 32 190.731 32C189.649 32 188.779 31.0527 188.121 29.158C187.619 27.7273 187.367 26.3353 187.367 24.982C187.367 21.4633 190.035 17.8867 195.371 14.252C197.227 12.976 199.18 11.874 201.229 10.946C203.936 9.70867 206.005 9.09 207.435 9.09C208.17 9.09 208.827 9.322 209.407 9.786C209.987 10.2113 210.277 10.6753 210.277 11.178C210.277 11.4487 210.161 11.7387 209.929 12.048C209.929 12.048 209.717 12.2413 209.291 12.628L208.653 13.208ZM190.673 25.446C190.751 25.91 190.809 26.2773 190.847 26.548C190.925 26.78 191.118 26.954 191.427 27.07C191.466 27.1087 191.563 27.128 191.717 27.128C192.297 27.128 193.206 26.7993 194.443 26.142C197.382 24.5953 200.166 22.2753 202.795 19.182C203.917 17.8673 204.477 16.9393 204.477 16.398C204.477 16.2047 204.381 16.0307 204.187 15.876C204.033 15.7213 203.723 15.644 203.259 15.644C200.862 15.644 198.213 16.6687 195.313 18.718C192.22 20.922 190.673 23.1647 190.673 25.446ZM224.076 16.05L215.086 23.938C214.738 24.2473 214.429 24.4793 214.158 24.634C214.081 24.634 213.984 24.6727 213.868 24.75C213.598 24.7113 213.443 24.634 213.404 24.518V24.054C213.443 23.8607 214.197 23.0293 215.666 21.56C217.136 20.0907 219.204 18.0413 221.872 15.412C224.154 13.2467 226.551 10.366 229.064 6.77C230.34 4.95267 231.674 4.044 233.066 4.044C233.376 4.044 233.762 4.16 234.226 4.392C234.69 4.58533 234.922 4.77867 234.922 4.972L234.806 5.146C233.646 6.69267 231.984 8.974 229.818 11.99C228.581 13.8073 227.556 15.3733 226.744 16.688L225.004 19.588C226.435 18.1573 228.233 16.688 230.398 15.18C233.066 13.324 234.98 12.396 236.14 12.396C238.035 12.396 238.982 13.4593 238.982 15.586C238.982 17.6353 237.803 19.9747 235.444 22.604C233.743 24.4987 231.694 26.2967 229.296 27.998C230.34 28.462 231.578 28.694 233.008 28.694C235.792 28.694 238.093 27.534 239.91 25.214C240.297 24.8273 240.548 24.634 240.664 24.634C241.012 24.634 241.186 24.75 241.186 24.982C241.186 25.2527 241.109 25.5233 240.954 25.794C240.645 26.2967 239.91 27.1087 238.75 28.23C237.049 29.854 234.922 31.1493 232.37 32.116C229.857 33.1213 227.421 33.624 225.062 33.624C222.974 33.624 220.886 32.87 218.798 31.362L213.81 42.788C213.037 44.528 212.264 45.398 211.49 45.398C211.065 45.398 210.736 45.1273 210.504 44.586C210.234 44.0833 210.098 43.5033 210.098 42.846C210.098 41.9567 210.678 39.4433 211.838 35.306C213.153 32.8313 214.97 30.5887 217.29 28.578L224.076 16.05ZM221.234 26.954C221.93 26.5673 222.781 26.374 223.786 26.374C224.444 26.374 225.082 26.49 225.7 26.722L226.744 27.244C227.904 26.432 229.103 25.3107 230.34 23.88C231.848 22.2173 232.718 20.864 232.95 19.82C232.989 19.704 233.008 19.5493 233.008 19.356C233.008 19.1627 232.989 19.0273 232.95 18.95C232.718 18.3313 232.235 18.022 231.5 18.022C230.224 18.022 228.368 19.24 225.932 21.676C224.27 23.3 222.704 25.0593 221.234 26.954ZM248.832 20.11L253.066 12.164C252.64 12.512 252.08 12.976 251.384 13.556C251.19 13.672 250.997 13.8073 250.804 13.962L249.76 14.658C248.213 15.702 246.338 16.804 244.134 17.964H243.786L243.612 17.732C243.921 17.4227 244.849 16.63 246.396 15.354C248.445 13.6913 250.359 11.9513 252.138 10.134L255.154 7.06C255.579 6.596 256.004 6.11267 256.43 5.61C256.7 5.41667 257.087 5.32 257.59 5.32C258.556 5.32 259.194 5.47467 259.504 5.784C259.658 5.93867 259.736 6.20933 259.736 6.596C259.736 8.336 258.924 10.3467 257.3 12.628C255.018 15.7987 253.742 17.6933 253.472 18.312C255.018 18.1187 256.004 18.022 256.43 18.022C257.358 18.022 258.131 18.08 258.75 18.196C260.064 15.9533 261.108 14.31 261.882 13.266C263.351 11.2553 264.511 10.25 265.362 10.25C266.135 10.25 266.522 11.3133 266.522 13.44C266.522 14.136 266.464 14.6 266.348 14.832C266.232 15.064 265.884 15.4313 265.304 15.934C262.21 18.6793 260.47 21.2313 260.084 23.59V24.518C260.2 25.0207 260.412 25.388 260.722 25.62C261.031 25.8133 261.398 25.91 261.824 25.91C263.332 25.91 264.762 25.2913 266.116 24.054C267.198 23.0487 267.933 22.546 268.32 22.546C268.59 22.546 268.726 22.6813 268.726 22.952V23.184C268.61 24.0347 267.102 25.678 264.202 28.114C261.147 30.7047 258.846 32 257.3 32C255.366 32 254.4 31.13 254.4 29.39C254.4 27.418 255.54 24.3827 257.822 20.284C257.706 20.2453 257.396 20.226 256.894 20.226C254.883 20.226 253.066 20.7867 251.442 21.908L249.47 25.446C247.536 28.8873 246.222 31.1107 245.526 32.116C244.25 33.8947 243.206 34.784 242.394 34.784C241.582 34.784 241.176 34.146 241.176 32.87C241.176 30.782 242.007 28.404 243.67 25.736C245.255 23.2613 246.976 21.386 248.832 20.11ZM285.929 13.904C287.166 14.2907 287.785 15.354 287.785 17.094C287.785 17.7127 287.688 18.3893 287.495 19.124C286.954 21.1347 286.238 22.836 285.349 24.228C285.233 24.4213 285.175 24.576 285.175 24.692C285.175 25.3493 285.62 25.678 286.509 25.678C287.012 25.678 287.611 25.446 288.307 24.982C288.655 24.75 288.887 24.634 289.003 24.634C289.428 24.634 289.641 24.7693 289.641 25.04C289.641 25.852 288.655 26.664 286.683 27.476C284.982 28.1333 283.628 28.462 282.623 28.462C280.342 31.2847 277.809 32.696 275.025 32.696C273.053 32.696 271.468 31.768 270.269 29.912C269.225 28.288 268.703 26.432 268.703 24.344C268.703 21.56 270.385 18.602 273.749 15.47C277.113 12.338 280.206 10.772 283.029 10.772C283.802 10.772 284.518 10.9653 285.175 11.352C285.871 11.7387 286.219 12.106 286.219 12.454L286.103 13.324L285.929 13.904ZM280.651 26.722C280.226 25.8713 280.013 25.0013 280.013 24.112C280.013 23.184 280.226 22.1787 280.651 21.096C281.27 19.5107 281.772 18.2927 282.159 17.442C282.314 17.0553 282.41 16.804 282.449 16.688C282.449 16.3013 282.159 16.108 281.579 16.108C281.038 16.108 280.11 16.572 278.795 17.5C277.751 18.2733 276.9 18.9887 276.243 19.646C275.083 20.806 274.232 21.85 273.691 22.778C273.034 23.8993 272.705 25.1947 272.705 26.664C272.705 27.476 272.937 28.0947 273.401 28.52C273.865 28.9453 274.6 29.158 275.605 29.158C277.113 29.158 278.795 28.346 280.651 26.722ZM302.304 24.46C300.835 26.3547 299.443 27.94 298.128 29.216C296.079 31.188 294.493 32.174 293.372 32.174C292.019 32.174 291.013 31.13 290.356 29.042C289.892 27.6113 289.66 26.0453 289.66 24.344C289.66 22.9133 289.911 21.6567 290.414 20.574C290.646 20.0713 291.323 19.008 292.444 17.384C293.836 15.3347 294.919 13.9233 295.692 13.15C296.929 11.874 298.186 11.236 299.462 11.236C299.926 11.236 300.409 11.3327 300.912 11.526C301.569 11.7967 301.898 12.1253 301.898 12.512C301.898 13.3627 301.144 14.6 299.636 16.224C298.128 17.848 296.639 19.0853 295.17 19.936L293.778 20.748C293.546 21.3667 293.43 22.024 293.43 22.72C293.43 23.4933 293.585 24.17 293.894 24.75C294.242 25.2913 294.667 25.562 295.17 25.562C296.485 25.562 298.495 24.228 301.202 21.56L311.526 11.352C311.951 10.9267 312.28 10.714 312.512 10.714C312.976 10.714 313.324 11.0233 313.556 11.642C313.827 12.222 313.962 12.976 313.962 13.904V14.426C313.962 14.7353 313.885 14.9673 313.73 15.122L308.568 20.748C307.292 22.14 306.654 23.59 306.654 25.098C306.654 25.794 306.77 26.374 307.002 26.838C307.273 27.2633 307.679 27.476 308.22 27.476C309.032 27.476 310.463 26.838 312.512 25.562L314.194 24.518C314.503 24.7113 314.658 24.866 314.658 24.982C314.658 25.1753 314.194 25.794 313.266 26.838C312.454 27.7273 311.062 28.926 309.09 30.434C306.577 32.3287 304.817 33.276 303.812 33.276C302.227 33.276 301.434 32.1933 301.434 30.028C301.434 29.216 301.724 27.36 302.304 24.46ZM315.644 3.29C315.644 3.29 315.683 3.464 315.76 3.812C315.76 4.508 314.542 5.68733 312.106 7.35C309.67 8.974 308.027 9.786 307.176 9.786C304.972 9.786 303.87 8.25867 303.87 5.204C303.87 4.46933 304.334 3.696 305.262 2.884C306.229 2.072 307.079 1.666 307.814 1.666C308.278 1.666 308.51 1.87867 308.51 2.304C308.51 2.42 308.471 2.74867 308.394 3.29C308.278 3.67667 308.22 3.94733 308.22 4.102C308.22 5.03 308.8 5.494 309.96 5.494C310.347 5.494 311.275 5.10733 312.744 4.334C312.783 4.334 313.169 4.06333 313.904 3.522C314.445 3.174 314.832 3 315.064 3C315.335 3 315.528 3.09667 315.644 3.29Z" fill="#333333"></path> </svg> 