<?xml version="1.0" encoding="UTF-8"?> <svg xmlns="http://www.w3.org/2000/svg" width="61" height="34" viewBox="0 0 61 34" fill="none"> <path d="M15.8645 8.42595L10.7765 8.85795C10.2325 8.69795 9.76849 8.44195 9.38449 8.08995C9.03249 7.70595 8.85649 7.32195 8.85649 6.93795C8.85649 4.66595 10.9685 3.01795 15.1925 1.99395C17.9125 1.32195 20.8565 0.98595 24.0245 0.98595C27.3205 0.98595 29.5125 1.68995 30.6005 3.09795C31.2085 3.86595 31.5125 5.16195 31.5125 6.98595C31.5125 9.73795 30.0085 11.738 27.0005 12.986C25.4965 13.594 22.8085 14.17 18.9365 14.714C16.7605 15.002 15.6725 15.29 15.6725 15.578C15.6725 15.77 15.7685 15.898 15.9605 15.962C16.1845 15.994 16.3925 16.026 16.5845 16.058C18.7925 16.058 20.7605 16.49 22.4885 17.354C24.6645 18.442 25.7525 19.994 25.7525 22.01C25.7525 25.498 23.6085 28.394 19.3205 30.698C15.7365 32.618 12.0405 33.578 8.23249 33.578C6.79249 33.578 5.27249 33.354 3.67249 32.906C1.43249 32.298 0.312488 31.45 0.312488 30.362C0.312488 29.306 0.728488 28.266 1.56049 27.242C2.36049 26.314 3.27249 25.642 4.29649 25.226C4.48849 27.178 6.34449 28.154 9.86449 28.154C12.1685 28.154 14.6805 27.626 17.4005 26.57C20.7605 25.258 22.4405 23.626 22.4405 21.674C22.4405 20.938 22.0565 20.298 21.2885 19.754C20.0725 18.89 18.2005 18.458 15.6725 18.458C14.2965 18.458 13.1765 18.506 12.3125 18.602L8.95249 18.986C8.53649 18.986 8.26449 18.89 8.13649 18.698C8.07249 18.602 8.04049 18.314 8.04049 17.834C8.04049 15.786 8.69649 14.426 10.0085 13.754C10.5525 13.466 12.0565 13.162 14.5205 12.842C17.4325 12.458 20.0885 11.914 22.4885 11.21C26.5845 9.99395 28.6325 8.58595 28.6325 6.98595C28.6325 5.67395 26.7445 5.01795 22.9685 5.01795H22.1525C20.5845 5.01795 19.0965 5.12995 17.6885 5.35395C15.2885 5.70595 14.0885 6.29795 14.0885 7.12995C14.0885 7.28995 14.3445 7.49795 14.8565 7.75395C15.1445 7.91395 15.4805 8.13795 15.8645 8.42595ZM51.9001 18.602L57.0841 18.122L57.3721 18.266L57.5161 18.41C57.5161 18.762 57.1001 19.546 56.2681 20.762C55.4361 21.978 54.8601 22.746 54.5401 23.066C54.1241 23.194 53.4361 23.322 52.4761 23.45L49.5001 23.882C49.0841 24.97 48.8761 26.122 48.8761 27.338C48.8761 27.946 48.9081 28.41 48.9721 28.73C49.0361 29.018 49.1801 29.386 49.4041 29.834C47.5161 31.946 46.1081 33.002 45.1801 33.002C44.2201 33.002 43.7401 31.658 43.7401 28.97C43.7401 27.594 44.0281 26.042 44.6041 24.314L36.5881 24.554C34.9241 24.586 33.9001 23.258 33.5161 20.57V19.37C33.8681 17.194 35.8681 14.522 39.5161 11.354C42.8441 8.47395 46.5721 5.94595 50.7001 3.76995C52.5881 2.77795 53.9801 2.08995 54.8761 1.70595C56.7001 0.937951 58.0601 0.55395 58.9561 0.55395C59.3401 0.55395 59.5641 0.649951 59.6281 0.841952C59.6601 0.905951 59.6761 1.16195 59.6761 1.60995C59.6761 2.12195 59.5001 2.55395 59.1481 2.90595C59.4041 3.16195 59.6281 3.48195 59.8201 3.86595C60.0441 4.24995 60.1561 4.71395 60.1561 5.25795C60.1561 5.92995 59.8361 6.69795 59.1961 7.56195L57.8041 9.43395C56.8121 10.778 55.9641 11.962 55.2601 12.986C54.1721 14.618 53.0521 16.49 51.9001 18.602ZM46.3321 19.034C48.7641 15.034 51.5961 11.226 54.8281 7.60995C56.1081 6.16995 57.3081 4.76195 58.4281 3.38595C55.0041 4.28195 51.1321 6.42595 46.8121 9.81795C45.4681 10.874 43.8521 12.346 41.9641 14.234C39.6281 16.57 38.4601 18.042 38.4601 18.65C38.4601 18.938 38.6041 19.13 38.8921 19.226C39.1801 19.322 39.4681 19.354 39.7561 19.322L41.4841 19.226L46.3321 19.034Z" fill="#333333"></path> </svg> 