<?xml version="1.0" encoding="UTF-8"?> <svg xmlns="http://www.w3.org/2000/svg" width="214" height="49" viewBox="0 0 214 49" fill="none"> <path d="M12.892 21.7L4.832 28.772C4.52 29.0493 4.24267 29.2573 4 29.396C3.93067 29.396 3.844 29.4307 3.74 29.5C3.49733 29.4653 3.35867 29.396 3.324 29.292V28.876C3.35867 28.7027 4.03467 27.9573 5.352 26.64C6.66933 25.3227 8.524 23.4853 10.916 21.128C12.9613 19.1867 15.1107 16.604 17.364 13.38C18.508 11.7507 19.704 10.936 20.952 10.936C21.2293 10.936 21.576 11.04 21.992 11.248C22.408 11.4213 22.616 11.5947 22.616 11.768L22.512 11.924C21.472 13.3107 19.9813 15.356 18.04 18.06C16.9307 19.6893 16.012 21.0933 15.284 22.272L13.724 24.872C15.0067 23.5893 16.6187 22.272 18.56 20.92C20.952 19.256 22.668 18.424 23.708 18.424C25.4067 18.424 26.256 19.3773 26.256 21.284C26.256 23.1213 25.1987 25.2187 23.084 27.576C21.5587 29.2747 19.7213 30.8867 17.572 32.412C18.508 32.828 19.6173 33.036 20.9 33.036C23.396 33.036 25.4587 31.996 27.088 29.916C27.4347 29.5693 27.66 29.396 27.764 29.396C28.076 29.396 28.232 29.5 28.232 29.708C28.232 29.9507 28.1627 30.1933 28.024 30.436C27.7467 30.8867 27.088 31.6147 26.048 32.62C24.5227 34.076 22.616 35.2373 20.328 36.104C18.0747 37.0053 15.8907 37.456 13.776 37.456C11.904 37.456 10.032 36.78 8.16 35.428L3.688 45.672C2.99467 47.232 2.30133 48.012 1.608 48.012C1.22667 48.012 0.932 47.7693 0.724 47.284C0.481333 46.8333 0.36 46.3133 0.36 45.724C0.36 44.9267 0.88 42.6733 1.92 38.964C3.09867 36.7453 4.728 34.7347 6.808 32.932L12.892 21.7ZM10.344 31.476C10.968 31.1293 11.7307 30.956 12.632 30.956C13.2213 30.956 13.7933 31.06 14.348 31.268L15.284 31.736C16.324 31.008 17.3987 30.0027 18.508 28.72C19.86 27.2293 20.64 26.016 20.848 25.08C20.8827 24.976 20.9 24.8373 20.9 24.664C20.9 24.4907 20.8827 24.3693 20.848 24.3C20.64 23.7453 20.2067 23.468 19.548 23.468C18.404 23.468 16.74 24.56 14.556 26.744C13.0653 28.2 11.6613 29.7773 10.344 31.476ZM39.6107 29.24C35.936 33.8507 33.1973 36.156 31.3947 36.156C30.2853 36.156 29.436 35.168 28.8467 33.192C28.4307 31.8053 28.2227 30.4013 28.2227 28.98C28.2227 27.1427 29.2453 24.7853 31.2907 21.908C33.44 18.892 35.364 17.384 37.0627 17.384C37.4787 17.384 37.912 17.4707 38.3627 17.644C38.952 17.8867 39.2467 18.1813 39.2467 18.528C39.2467 19.2907 38.5707 20.4 37.2187 21.856C35.8667 23.312 34.532 24.4213 33.2147 25.184L31.9667 25.912C31.7587 26.4667 31.6547 27.0387 31.6547 27.628C31.6547 28.356 31.7933 28.98 32.0707 29.5C32.3827 29.9853 32.7813 30.228 33.2667 30.228C33.6827 30.228 34.4107 29.8987 35.4507 29.24C35.7973 29.032 36.2307 28.7373 36.7507 28.356C37.028 28.148 37.652 27.576 38.6227 26.64L47.8787 17.488C48.26 17.1067 48.5547 16.916 48.7627 16.916C49.1787 16.916 49.4907 17.1933 49.6987 17.748C49.9413 18.268 50.0627 18.944 50.0627 19.776V20.244C50.0627 20.5213 49.9933 20.7293 49.8547 20.868L45.2267 25.912C44.0827 27.16 43.5107 28.46 43.5107 29.812C43.5107 31.2333 43.9613 31.944 44.8627 31.944C45.9373 31.944 47.2373 31.372 48.7627 30.228L50.2707 29.292C50.548 29.4653 50.6867 29.604 50.6867 29.708C50.6867 30.1587 49.4213 31.476 46.8907 33.66C44.1867 35.9827 42.2107 37.144 40.9627 37.144C39.5413 37.144 38.8307 36.1733 38.8307 34.232C38.8307 33.504 39.0907 31.84 39.6107 29.24ZM62.94 27.576C63.98 26.744 64.9506 25.8253 65.852 24.82C67.1693 23.3293 67.828 22.1853 67.828 21.388C67.828 20.972 67.6373 20.6427 67.256 20.4C66.9093 20.1573 66.4933 20.036 66.008 20.036C65.072 20.036 63.6853 20.4 61.848 21.128C61.536 21.2667 60.548 21.804 58.884 22.74C57.22 23.6413 56.3533 24.092 56.284 24.092C56.076 24.092 55.5906 23.6067 54.828 22.636C54.1 21.6307 53.736 21.0067 53.736 20.764C53.736 20.2093 55.4173 19.1693 58.78 17.644C61.5186 16.396 63.8586 15.772 65.8 15.772C67.3946 15.772 68.5906 16.4133 69.388 17.696C70.0466 18.7707 70.376 20.14 70.376 21.804C70.376 23.1213 69.18 25.3747 66.788 28.564C67.7586 28.8413 68.4866 28.98 68.972 28.98H69.596L69.7 29.188C69.7 29.2573 69.648 29.3613 69.544 29.5C69.336 29.708 69.1106 30.02 68.868 30.436C68.66 30.8173 68.4173 31.112 68.14 31.32C67.8973 31.4933 67.6373 31.58 67.36 31.58C66.8053 31.58 65.9386 31.372 64.76 30.956C63.5813 32.2733 62.1773 33.4347 60.548 34.44C58.6413 35.6533 56.96 36.26 55.504 36.26C54.8453 36.26 53.9093 35.948 52.696 35.324C51.344 34.6653 50.668 34.0413 50.668 33.452C50.668 33.2787 50.772 33.0707 50.98 32.828L51.604 32.048C52.852 30.5227 53.6146 29.76 53.892 29.76C53.9266 29.76 54.2386 30.0027 54.828 30.488C55.4173 30.9733 56.0413 31.216 56.7 31.216C57.532 31.216 58.7106 30.748 60.236 29.812C59.7853 29.812 59.2306 29.6733 58.572 29.396C57.9133 29.1187 57.532 28.8067 57.428 28.46C57.3933 28.4253 57.376 28.3213 57.376 28.148C57.376 27.732 57.5666 27.0733 57.948 26.172C58.2253 25.5133 58.4506 25.184 58.624 25.184C59.04 25.5307 59.508 25.9293 60.028 26.38C60.8253 26.9 61.796 27.2987 62.94 27.576ZM85.59 25.444C83.51 26.3453 80.4767 28.928 76.49 33.192C75.9354 33.7813 75.3287 34.4053 74.67 35.064C74.0114 35.688 73.4567 36 73.006 36C72.4514 36 71.9834 35.6013 71.602 34.804C71.2554 34.1453 71.082 33.5213 71.082 32.932C71.082 31.9267 71.498 30.54 72.33 28.772C73.2314 26.8307 74.1154 25.86 74.982 25.86C75.2247 25.86 75.398 25.912 75.502 26.016C75.502 26.0507 75.5194 26.1027 75.554 26.172L75.294 26.9C74.9127 27.9747 74.722 29.2227 74.722 30.644C74.722 31.5107 74.8434 31.944 75.086 31.944C75.294 31.944 76.4554 30.748 78.57 28.356C81.066 25.5133 83.77 23.052 86.682 20.972C88.554 19.62 89.7847 18.944 90.374 18.944C90.79 18.944 91.1367 19.3253 91.414 20.088C91.6567 20.6773 91.778 21.232 91.778 21.752C91.778 22.168 90.9807 23.26 89.386 25.028C88.242 26.6227 87.514 27.7147 87.202 28.304C86.786 29.1013 86.578 29.7773 86.578 30.332C86.578 31.1987 87.1154 31.632 88.19 31.632C88.7447 31.632 89.49 31.3027 90.426 30.644C91.154 30.124 91.8474 29.5347 92.506 28.876C92.8874 28.4947 93.182 28.304 93.39 28.304C93.6674 28.304 93.806 28.4947 93.806 28.876C93.806 29.0493 93.026 30.0547 91.466 31.892C90.5994 32.8973 89.542 33.9027 88.294 34.908C86.4914 36.364 85.1567 37.092 84.29 37.092C83.354 37.092 82.6434 36.6413 82.158 35.74C81.742 35.012 81.534 34.128 81.534 33.088C81.534 32.2907 81.6554 31.632 81.898 31.112C81.9327 30.9387 82.4527 30.072 83.458 28.512C83.6314 28.2347 83.8567 27.8707 84.134 27.42C84.55 26.796 85.0354 26.1373 85.59 25.444ZM97.8373 30.28C98.5306 29.5867 99.6226 28.5293 101.113 27.108C102.396 25.964 103.852 24.6987 105.481 23.312C109.433 19.984 112.016 18.32 113.229 18.32C114.304 18.32 114.841 18.9787 114.841 20.296C114.841 20.6773 114.789 21.0067 114.685 21.284C114.581 21.5267 114.391 21.908 114.113 22.428C113.247 23.9533 112.415 25.2187 111.617 26.224C110.959 27.056 110.629 27.6107 110.629 27.888C110.629 27.9573 110.733 28.096 110.941 28.304C111.115 28.304 111.756 27.8013 112.865 26.796C115.604 24.3 118.152 22.3587 120.509 20.972C120.925 20.7293 121.671 20.296 122.745 19.672C123.196 19.4293 123.595 19.308 123.941 19.308C124.392 19.308 124.791 19.6893 125.137 20.452C125.484 21.18 125.657 21.804 125.657 22.324C125.657 22.6013 125.605 22.8093 125.501 22.948C125.397 23.052 125.172 23.26 124.825 23.572C121.74 26.4147 120.197 28.72 120.197 30.488C120.197 31.528 120.717 32.048 121.757 32.048C122.728 32.048 123.837 31.5453 125.085 30.54C126.333 29.5 127.044 28.98 127.217 28.98L127.581 29.188V29.656C127.339 30.7307 125.848 32.2907 123.109 34.336C120.371 36.3813 118.447 37.404 117.337 37.404C116.679 37.404 116.107 37.196 115.621 36.78C115.136 36.3987 114.893 35.896 114.893 35.272C114.893 34.4747 114.997 33.712 115.205 32.984C115.483 32.048 115.795 31.268 116.141 30.644L117.389 28.408C117.84 27.6107 118.065 27.0907 118.065 26.848C118.065 26.64 117.909 26.536 117.597 26.536C117.355 26.536 116.453 27.1427 114.893 28.356C113.784 29.2227 112.883 29.9853 112.189 30.644C111.288 31.5107 109.953 32.7933 108.185 34.492C107.145 35.4973 106.261 36 105.533 36C105.152 36 104.84 35.8093 104.597 35.428C104.389 35.012 104.285 34.6133 104.285 34.232C104.285 33.296 104.788 32.0653 105.793 30.54C106.244 29.8813 106.816 29.032 107.509 27.992C107.925 27.368 108.133 26.9 108.133 26.588C108.133 26.0333 107.752 25.756 106.989 25.756C105.845 25.756 103.8 27.264 100.853 30.28C100.125 31.0427 99.1199 32.3427 97.8373 34.18C97.0053 35.3933 96.3466 36 95.8613 36C94.4746 36 93.7812 34.3707 93.7812 31.112C93.7812 29.24 94.1279 27.68 94.8213 26.432C95.0639 26.016 95.7573 25.0627 96.9013 23.572C97.7679 22.4627 98.3919 21.7 98.7733 21.284C99.8479 20.14 101.061 19.568 102.413 19.568C102.795 19.568 103.089 19.672 103.297 19.88C103.54 20.088 103.661 20.3133 103.661 20.556C103.661 20.7987 103.54 21.0933 103.297 21.44C102.465 22.272 101.321 23.5547 99.8653 25.288C98.2706 27.1947 97.4733 28.356 97.4733 28.772C97.4733 28.98 97.5253 29.2573 97.6293 29.604C97.6293 29.6733 97.6986 29.8987 97.8373 30.28ZM108.237 17.592C107.891 17.2453 107.717 16.5347 107.717 15.46C107.717 13.6227 109.849 11.8893 114.113 10.26C117.719 8.87333 120.665 8.18 122.953 8.18C124.271 8.18 125.172 8.45733 125.657 9.012C125.935 9.324 126.073 9.61866 126.073 9.896C126.073 9.96533 126.039 10.104 125.969 10.312L124.461 12.808C123.941 12.5653 123.352 12.392 122.693 12.288C121.792 12.2187 120.943 12.184 120.145 12.184C118.308 12.184 116.245 12.652 113.957 13.588C111.253 14.6973 109.347 16.032 108.237 17.592ZM143.046 19.776C144.155 20.1227 144.71 21.076 144.71 22.636C144.71 23.1907 144.623 23.7973 144.45 24.456C143.964 26.2587 143.323 27.784 142.526 29.032C142.422 29.2053 142.37 29.344 142.37 29.448C142.37 30.0373 142.768 30.332 143.566 30.332C144.016 30.332 144.554 30.124 145.178 29.708C145.49 29.5 145.698 29.396 145.802 29.396C146.183 29.396 146.374 29.5173 146.374 29.76C146.374 30.488 145.49 31.216 143.722 31.944C142.196 32.5333 140.983 32.828 140.082 32.828C138.036 35.3587 135.766 36.624 133.27 36.624C131.502 36.624 130.08 35.792 129.006 34.128C128.07 32.672 127.602 31.008 127.602 29.136C127.602 26.64 129.11 23.988 132.126 21.18C135.142 18.372 137.915 16.968 140.446 16.968C141.139 16.968 141.78 17.1413 142.37 17.488C142.994 17.8347 143.306 18.164 143.306 18.476L143.202 19.256L143.046 19.776ZM138.314 31.268C137.932 30.5053 137.742 29.7253 137.742 28.928C137.742 28.096 137.932 27.1947 138.314 26.224C138.868 24.8027 139.319 23.7107 139.666 22.948C139.804 22.6013 139.891 22.376 139.926 22.272C139.926 21.9253 139.666 21.752 139.146 21.752C138.66 21.752 137.828 22.168 136.65 23C135.714 23.6933 134.951 24.3347 134.362 24.924C133.322 25.964 132.559 26.9 132.074 27.732C131.484 28.7373 131.19 29.8987 131.19 31.216C131.19 31.944 131.398 32.4987 131.814 32.88C132.23 33.2613 132.888 33.452 133.79 33.452C135.142 33.452 136.65 32.724 138.314 31.268ZM155.283 21.7L147.223 28.772C146.911 29.0493 146.633 29.2573 146.391 29.396C146.321 29.396 146.235 29.4307 146.131 29.5C145.888 29.4653 145.749 29.396 145.715 29.292V28.876C145.749 28.7027 146.425 27.9573 147.743 26.64C149.06 25.3227 150.915 23.4853 153.307 21.128C155.352 19.1867 157.501 16.604 159.755 13.38C160.899 11.7507 162.095 10.936 163.343 10.936C163.62 10.936 163.967 11.04 164.383 11.248C164.799 11.4213 165.007 11.5947 165.007 11.768L164.903 11.924C163.863 13.3107 162.372 15.356 160.431 18.06C159.321 19.6893 158.403 21.0933 157.675 22.272L156.115 24.872C157.397 23.5893 159.009 22.272 160.951 20.92C163.343 19.256 165.059 18.424 166.099 18.424C167.797 18.424 168.647 19.3773 168.647 21.284C168.647 23.1213 167.589 25.2187 165.475 27.576C163.949 29.2747 162.112 30.8867 159.963 32.412C160.899 32.828 162.008 33.036 163.291 33.036C165.787 33.036 167.849 31.996 169.479 29.916C169.825 29.5693 170.051 29.396 170.155 29.396C170.467 29.396 170.623 29.5 170.623 29.708C170.623 29.9507 170.553 30.1933 170.415 30.436C170.137 30.8867 169.479 31.6147 168.439 32.62C166.913 34.076 165.007 35.2373 162.719 36.104C160.465 37.0053 158.281 37.456 156.167 37.456C154.295 37.456 152.423 36.78 150.551 35.428L146.079 45.672C145.385 47.232 144.692 48.012 143.999 48.012C143.617 48.012 143.323 47.7693 143.115 47.284C142.872 46.8333 142.751 46.3133 142.751 45.724C142.751 44.9267 143.271 42.6733 144.311 38.964C145.489 36.7453 147.119 34.7347 149.199 32.932L155.283 21.7ZM152.735 31.476C153.359 31.1293 154.121 30.956 155.023 30.956C155.612 30.956 156.184 31.06 156.739 31.268L157.675 31.736C158.715 31.008 159.789 30.0027 160.899 28.72C162.251 27.2293 163.031 26.016 163.239 25.08C163.273 24.976 163.291 24.8373 163.291 24.664C163.291 24.4907 163.273 24.3693 163.239 24.3C163.031 23.7453 162.597 23.468 161.939 23.468C160.795 23.468 159.131 24.56 156.947 26.744C155.456 28.2 154.052 29.7773 152.735 31.476ZM186.057 19.776C187.167 20.1227 187.721 21.076 187.721 22.636C187.721 23.1907 187.635 23.7973 187.461 24.456C186.976 26.2587 186.335 27.784 185.537 29.032C185.433 29.2053 185.381 29.344 185.381 29.448C185.381 30.0373 185.78 30.332 186.577 30.332C187.028 30.332 187.565 30.124 188.189 29.708C188.501 29.5 188.709 29.396 188.813 29.396C189.195 29.396 189.385 29.5173 189.385 29.76C189.385 30.488 188.501 31.216 186.733 31.944C185.208 32.5333 183.995 32.828 183.093 32.828C181.048 35.3587 178.777 36.624 176.281 36.624C174.513 36.624 173.092 35.792 172.017 34.128C171.081 32.672 170.613 31.008 170.613 29.136C170.613 26.64 172.121 23.988 175.137 21.18C178.153 18.372 180.927 16.968 183.457 16.968C184.151 16.968 184.792 17.1413 185.381 17.488C186.005 17.8347 186.317 18.164 186.317 18.476L186.213 19.256L186.057 19.776ZM181.325 31.268C180.944 30.5053 180.753 29.7253 180.753 28.928C180.753 28.096 180.944 27.1947 181.325 26.224C181.88 24.8027 182.331 23.7107 182.677 22.948C182.816 22.6013 182.903 22.376 182.937 22.272C182.937 21.9253 182.677 21.752 182.157 21.752C181.672 21.752 180.84 22.168 179.661 23C178.725 23.6933 177.963 24.3347 177.373 24.924C176.333 25.964 175.571 26.9 175.085 27.732C174.496 28.7373 174.201 29.8987 174.201 31.216C174.201 31.944 174.409 32.4987 174.825 32.88C175.241 33.2613 175.9 33.452 176.801 33.452C178.153 33.452 179.661 32.724 181.325 31.268ZM210.046 28.096V30.28C208.521 31.216 207.186 31.684 206.042 31.684C205.418 31.684 204.95 31.6147 204.638 31.476C204.361 31.4413 203.91 31.2507 203.286 30.904C201.449 32.984 200.149 34.3707 199.386 35.064C197.48 36.7627 195.781 37.612 194.29 37.612C193.181 37.612 192.262 37.1613 191.534 36.26C190.598 35.0813 190.13 33.2787 190.13 30.852C190.13 25.8253 191.898 20.7293 195.434 15.564C197.826 12.0627 201.206 8.40533 205.574 4.592C208.868 1.71466 211.017 0.275998 212.022 0.275998C212.404 0.275998 212.716 0.501332 212.958 0.951999C213.236 1.368 213.374 1.784 213.374 2.2C213.374 4.14133 211.242 7.88533 206.978 13.432C203.789 17.5227 200.825 20.972 198.086 23.78C196.769 25.132 195.642 26.1027 194.706 26.692C194.568 27.94 194.498 29.4133 194.498 31.112C194.498 32.672 195.122 33.452 196.37 33.452C197.133 33.452 197.913 33.036 198.71 32.204C199.369 31.5107 199.872 30.748 200.218 29.916C199.768 29.3613 199.542 28.6853 199.542 27.888C199.542 26.5013 200.409 24.8547 202.142 22.948C203.91 21.0067 205.47 20.036 206.822 20.036C207.412 20.036 207.706 20.8333 207.706 22.428C207.706 23.0173 207.221 24.248 206.25 26.12C205.938 26.7093 205.696 27.16 205.522 27.472C205.21 28.0267 204.916 28.46 204.638 28.772C205.262 29.084 205.938 29.24 206.666 29.24C207.533 29.24 208.66 28.8587 210.046 28.096ZM195.486 23.26C197.116 21.7 198.277 20.5387 198.97 19.776C200.738 17.8347 202.697 15.46 204.846 12.652C205.817 11.404 206.684 10.1907 207.446 9.012C208.694 7.10533 209.318 5.892 209.318 5.372C209.318 4.99067 209.145 4.8 208.798 4.8C208.244 4.8 207.082 5.71866 205.314 7.556C200.08 12.9987 196.804 18.2333 195.486 23.26Z" fill="#333333"></path> </svg> 