<?xml version="1.0" encoding="UTF-8"?> <svg xmlns="http://www.w3.org/2000/svg" width="51" height="37" viewBox="0 0 51 37" fill="none"> <path d="M8.92099 18.536C6.39299 15.464 5.12899 12.696 5.12899 10.232C5.12899 6.648 7.24099 3.96 11.465 2.168C14.473 0.887999 18.441 0.247998 23.369 0.247998C24.905 0.247998 25.721 0.247998 25.817 0.247998C26.969 0.407998 27.545 0.823998 27.545 1.496C27.545 2.52 27.145 3.576 26.345 4.664C25.545 5.752 24.665 6.36 23.705 6.488C23.737 6.552 23.753 6.648 23.753 6.776C23.753 7.384 23.289 8.248 22.361 9.368C21.433 10.488 18.745 13.24 14.297 17.624C15.737 20.056 16.457 22.104 16.457 23.768C16.457 27.096 15.417 29.832 13.337 31.976C11.385 33.992 9.00099 35 6.18499 35C4.74499 35 3.41699 34.632 2.20099 33.896C0.792992 33.032 0.0889922 31.928 0.0889922 30.584C0.0889922 28.184 3.03299 24.168 8.92099 18.536ZM12.521 15.56C13.673 14.536 14.249 13.992 14.249 13.928C14.409 13.736 15.033 13.176 16.121 12.248C19.865 9.016 21.737 7.304 21.737 7.112C21.737 6.504 20.281 6.2 17.369 6.2C15.705 6.2 14.201 6.456 12.857 6.968C11.033 7.672 10.121 8.728 10.121 10.136C10.121 11 10.201 11.672 10.361 12.152C10.649 13.08 11.369 14.216 12.521 15.56ZM10.361 21.608C9.04899 22.792 7.70499 24.184 6.32899 25.784C4.66499 27.736 3.83299 29.128 3.83299 29.96C3.83299 30.92 4.52099 31.4 5.89699 31.4C7.46499 31.4 8.84099 30.68 10.025 29.24C11.113 27.896 11.657 26.424 11.657 24.824C11.657 23.736 11.225 22.664 10.361 21.608ZM50.5981 7.832L45.1741 13.16C42.0701 16.2 39.2861 20.056 36.8221 24.728C35.4141 27.384 34.7101 29.304 34.7101 30.488C34.7101 31.832 35.0301 32.616 35.6701 32.84C35.2541 33.256 34.6781 33.72 33.9421 34.232C33.4621 34.712 32.3101 35.368 30.4861 36.2C30.0061 36.424 29.5581 36.536 29.1421 36.536C28.6941 36.536 28.3101 36.216 27.9901 35.576C27.7021 35.032 27.5581 34.52 27.5581 34.04C27.5581 31.704 29.0781 28.296 32.1181 23.816C34.5821 20.2 37.4781 16.616 40.8061 13.064C41.1901 12.68 41.8461 11.992 42.7741 11C43.7021 9.976 44.2141 9.384 44.3101 9.224V8.744C44.2141 8.456 43.4141 8.312 41.9101 8.312C36.5981 8.312 32.7421 9.144 30.3421 10.808C29.7021 11.256 29.1421 11.48 28.6621 11.48C28.3741 11.48 28.2301 11.208 28.2301 10.664C28.2301 10.28 28.3901 9.816 28.7101 9.272C29.0621 8.728 29.5101 7.992 30.0541 7.064C31.0781 5.24 33.6541 4.024 37.7821 3.416C39.8301 3.096 42.7901 2.936 46.6621 2.936C48.0701 2.936 48.9981 3.128 49.4461 3.512C50.2141 4.152 50.5981 5.592 50.5981 7.832Z" fill="#333333"></path> </svg> 