<?xml version="1.0" encoding="UTF-8"?> <svg xmlns="http://www.w3.org/2000/svg" width="121" height="42" viewBox="0 0 121 42" fill="none"> <path d="M12.116 28.756L10.92 30.94C8.32 35.724 6.53467 38.688 5.564 39.832C4.48933 41.1147 3.51867 41.756 2.652 41.756C1.404 41.756 0.78 40.3173 0.78 37.44C0.78 34.32 1.54267 31.928 3.068 30.264C3.796 29.4667 5.28667 28.6173 7.54 27.716L9.88 26.78C10.8853 24.8387 12.272 22.3947 14.04 19.448C12.7227 20.592 11.284 21.788 9.724 23.036C7.36667 24.908 5.668 25.844 4.628 25.844C3.62267 25.844 2.58267 24.9253 1.508 23.088C0.502667 21.3893 0 19.9853 0 18.876C0 16.172 2.51333 13.3813 7.54 10.504C12.1507 7.86933 15.964 6.552 18.98 6.552C20.956 6.552 21.944 8.28533 21.944 11.752C21.944 12.4453 21.7707 13.0693 21.424 13.624L13.624 25.896L22.516 21.788C22.7587 21.6493 23.0013 21.58 23.244 21.58C23.6253 21.58 23.816 21.736 23.816 22.048C23.816 22.2213 23.7293 22.4293 23.556 22.672C23.4867 22.7413 23.4 22.8107 23.296 22.88L12.116 28.756ZM4.836 21.632C5.876 21.632 8.35467 20.2107 12.272 17.368C16.3627 14.3867 18.408 12.324 18.408 11.18C18.408 11.1107 18.3733 11.0413 18.304 10.972C18.1307 10.7987 17.9573 10.712 17.784 10.712C16.9867 10.712 15.4093 11.232 13.052 12.272C11.0067 13.208 9.48133 14.0053 8.476 14.664C7.02 15.6 5.98 16.432 5.356 17.16C4.42 18.2347 3.952 19.396 3.952 20.644C3.952 21.3027 4.24667 21.632 4.836 21.632ZM8.632 29.64C4.54133 30.992 2.496 33.7653 2.496 37.96C3.50133 37.8213 4.45467 37.0413 5.356 35.62C5.564 35.2733 6.188 34.1467 7.228 32.24L8.632 29.64ZM39.2604 9.776C40.3697 10.1227 40.9244 11.076 40.9244 12.636C40.9244 13.1907 40.8377 13.7973 40.6644 14.456C40.1791 16.2587 39.5377 17.784 38.7404 19.032C38.6364 19.2053 38.5844 19.344 38.5844 19.448C38.5844 20.0373 38.9831 20.332 39.7804 20.332C40.2311 20.332 40.7684 20.124 41.3924 19.708C41.7044 19.5 41.9124 19.396 42.0164 19.396C42.3977 19.396 42.5884 19.5173 42.5884 19.76C42.5884 20.488 41.7044 21.216 39.9364 21.944C38.4111 22.5333 37.1977 22.828 36.2964 22.828C34.2511 25.3587 31.9804 26.624 29.4844 26.624C27.7164 26.624 26.2951 25.792 25.2204 24.128C24.2844 22.672 23.8164 21.008 23.8164 19.136C23.8164 16.64 25.3244 13.988 28.3404 11.18C31.3564 8.372 34.1297 6.968 36.6604 6.968C37.3537 6.968 37.9951 7.14133 38.5844 7.488C39.2084 7.83467 39.5204 8.164 39.5204 8.476L39.4164 9.256L39.2604 9.776ZM34.5284 21.268C34.1471 20.5053 33.9564 19.7253 33.9564 18.928C33.9564 18.096 34.1471 17.1947 34.5284 16.224C35.0831 14.8027 35.5337 13.7107 35.8804 12.948C36.0191 12.6013 36.1057 12.376 36.1404 12.272C36.1404 11.9253 35.8804 11.752 35.3604 11.752C34.8751 11.752 34.0431 12.168 32.8644 13C31.9284 13.6933 31.1657 14.3347 30.5764 14.924C29.5364 15.964 28.7737 16.9 28.2884 17.732C27.6991 18.7373 27.4044 19.8987 27.4044 21.216C27.4044 21.944 27.6124 22.4987 28.0284 22.88C28.4444 23.2613 29.1031 23.452 30.0044 23.452C31.3564 23.452 32.8644 22.724 34.5284 21.268ZM51.4975 11.7L43.4375 18.772C43.1255 19.0493 42.8481 19.2573 42.6055 19.396C42.5361 19.396 42.4495 19.4307 42.3455 19.5C42.1028 19.4653 41.9641 19.396 41.9295 19.292V18.876C41.9641 18.7027 42.6401 17.9573 43.9575 16.64C45.2748 15.3227 47.1295 13.4853 49.5215 11.128C51.5668 9.18667 53.7161 6.604 55.9695 3.38C57.1135 1.75067 58.3095 0.935999 59.5575 0.935999C59.8348 0.935999 60.1815 1.04 60.5975 1.248C61.0135 1.42133 61.2215 1.59467 61.2215 1.768L61.1175 1.924C60.0775 3.31067 58.5868 5.356 56.6455 8.06C55.5361 9.68933 54.6175 11.0933 53.8895 12.272L52.3295 14.872C53.6121 13.5893 55.2241 12.272 57.1655 10.92C59.5575 9.256 61.2735 8.424 62.3135 8.424C64.0121 8.424 64.8615 9.37733 64.8615 11.284C64.8615 13.1213 63.8041 15.2187 61.6895 17.576C60.1641 19.2747 58.3268 20.8867 56.1775 22.412C57.1135 22.828 58.2228 23.036 59.5055 23.036C62.0015 23.036 64.0641 21.996 65.6935 19.916C66.0401 19.5693 66.2655 19.396 66.3695 19.396C66.6815 19.396 66.8375 19.5 66.8375 19.708C66.8375 19.9507 66.7681 20.1933 66.6295 20.436C66.3521 20.8867 65.6935 21.6147 64.6535 22.62C63.1281 24.076 61.2215 25.2373 58.9335 26.104C56.6801 27.0053 54.4961 27.456 52.3815 27.456C50.5095 27.456 48.6375 26.78 46.7655 25.428L42.2935 35.672C41.6001 37.232 40.9068 38.012 40.2135 38.012C39.8321 38.012 39.5375 37.7693 39.3295 37.284C39.0868 36.8333 38.9655 36.3133 38.9655 35.724C38.9655 34.9267 39.4855 32.6733 40.5255 28.964C41.7041 26.7453 43.3335 24.7347 45.4135 22.932L51.4975 11.7ZM48.9495 21.476C49.5735 21.1293 50.3361 20.956 51.2375 20.956C51.8268 20.956 52.3988 21.06 52.9535 21.268L53.8895 21.736C54.9295 21.008 56.0041 20.0027 57.1135 18.72C58.4655 17.2293 59.2455 16.016 59.4535 15.08C59.4881 14.976 59.5055 14.8373 59.5055 14.664C59.5055 14.4907 59.4881 14.3693 59.4535 14.3C59.2455 13.7453 58.8121 13.468 58.1535 13.468C57.0095 13.468 55.3455 14.56 53.1615 16.744C51.6708 18.2 50.2668 19.7773 48.9495 21.476ZM82.2721 9.776C83.3815 10.1227 83.9361 11.076 83.9361 12.636C83.9361 13.1907 83.8495 13.7973 83.6761 14.456C83.1908 16.2587 82.5495 17.784 81.7521 19.032C81.6481 19.2053 81.5961 19.344 81.5961 19.448C81.5961 20.0373 81.9948 20.332 82.7921 20.332C83.2428 20.332 83.7801 20.124 84.4041 19.708C84.7161 19.5 84.9241 19.396 85.0281 19.396C85.4095 19.396 85.6001 19.5173 85.6001 19.76C85.6001 20.488 84.7161 21.216 82.9481 21.944C81.4228 22.5333 80.2095 22.828 79.3081 22.828C77.2628 25.3587 74.9921 26.624 72.4961 26.624C70.7281 26.624 69.3068 25.792 68.2321 24.128C67.2961 22.672 66.8281 21.008 66.8281 19.136C66.8281 16.64 68.3361 13.988 71.3521 11.18C74.3681 8.372 77.1415 6.968 79.6721 6.968C80.3655 6.968 81.0068 7.14133 81.5961 7.488C82.2201 7.83467 82.5321 8.164 82.5321 8.476L82.4281 9.256L82.2721 9.776ZM77.5401 21.268C77.1588 20.5053 76.9681 19.7253 76.9681 18.928C76.9681 18.096 77.1588 17.1947 77.5401 16.224C78.0948 14.8027 78.5455 13.7107 78.8921 12.948C79.0308 12.6013 79.1175 12.376 79.1521 12.272C79.1521 11.9253 78.8921 11.752 78.3721 11.752C77.8868 11.752 77.0548 12.168 75.8761 13C74.9401 13.6933 74.1775 14.3347 73.5881 14.924C72.5481 15.964 71.7855 16.9 71.3001 17.732C70.7108 18.7373 70.4161 19.8987 70.4161 21.216C70.4161 21.944 70.6241 22.4987 71.0401 22.88C71.4561 23.2613 72.1148 23.452 73.0161 23.452C74.3681 23.452 75.8761 22.724 77.5401 21.268ZM98.9812 8.164L99.7612 9.62C99.8652 9.828 99.9172 10.0533 99.9172 10.296C99.9172 11.0933 99.0852 12.3933 97.4212 14.196C95.2719 16.5533 94.1972 18.5293 94.1972 20.124C94.1972 21.164 94.8905 21.684 96.2772 21.684C96.7279 21.684 97.4559 21.372 98.4612 20.748C98.9119 20.4707 99.5185 20.02 100.281 19.396C100.628 19.1187 100.853 18.9627 100.957 18.928C101.096 18.8587 101.217 18.8067 101.321 18.772L101.529 19.032C101.529 19.3787 100.975 20.176 99.8652 21.424C97.7159 23.8507 95.5839 25.6187 93.4692 26.728C92.3599 27.3173 91.3719 27.612 90.5052 27.612C89.6732 27.612 89.0319 27.3173 88.5812 26.728C88.1305 26.1387 87.9052 25.376 87.9052 24.44C87.9052 22.3253 90.0025 19.136 94.1972 14.872C94.6825 14.3867 95.0119 14.0227 95.1852 13.78C95.6012 13.2253 95.8092 12.7747 95.8092 12.428C95.8092 12.0813 95.5492 11.908 95.0292 11.908C93.6425 11.908 91.9785 12.5667 90.0372 13.884C89.1705 14.4733 88.3039 15.184 87.4372 16.016C86.9172 16.5013 86.4839 16.744 86.1372 16.744C85.9639 16.744 85.7905 16.6053 85.6172 16.328C85.6172 15.6347 86.4319 14.5253 88.0612 13C89.3785 11.7867 90.5225 10.8507 91.4932 10.192C94.1972 8.424 96.2772 7.54 97.7332 7.54C98.3572 7.54 98.7732 7.748 98.9812 8.164ZM116.956 9.776C118.065 10.1227 118.62 11.076 118.62 12.636C118.62 13.1907 118.533 13.7973 118.36 14.456C117.874 16.2587 117.233 17.784 116.436 19.032C116.332 19.2053 116.28 19.344 116.28 19.448C116.28 20.0373 116.678 20.332 117.476 20.332C117.926 20.332 118.464 20.124 119.088 19.708C119.4 19.5 119.608 19.396 119.712 19.396C120.093 19.396 120.284 19.5173 120.284 19.76C120.284 20.488 119.4 21.216 117.632 21.944C116.106 22.5333 114.893 22.828 113.992 22.828C111.946 25.3587 109.676 26.624 107.18 26.624C105.412 26.624 103.99 25.792 102.916 24.128C101.98 22.672 101.512 21.008 101.512 19.136C101.512 16.64 103.02 13.988 106.036 11.18C109.052 8.372 111.825 6.968 114.356 6.968C115.049 6.968 115.69 7.14133 116.28 7.488C116.904 7.83467 117.216 8.164 117.216 8.476L117.112 9.256L116.956 9.776ZM112.224 21.268C111.842 20.5053 111.652 19.7253 111.652 18.928C111.652 18.096 111.842 17.1947 112.224 16.224C112.778 14.8027 113.229 13.7107 113.576 12.948C113.714 12.6013 113.801 12.376 113.836 12.272C113.836 11.9253 113.576 11.752 113.056 11.752C112.57 11.752 111.738 12.168 110.56 13C109.624 13.6933 108.861 14.3347 108.272 14.924C107.232 15.964 106.469 16.9 105.984 17.732C105.394 18.7373 105.1 19.8987 105.1 21.216C105.1 21.944 105.308 22.4987 105.724 22.88C106.14 23.2613 106.798 23.452 107.7 23.452C109.052 23.452 110.56 22.724 112.224 21.268Z" fill="#333333"></path> </svg> 