<?xml version="1.0" encoding="UTF-8"?> <svg xmlns="http://www.w3.org/2000/svg" width="203" height="1128" viewBox="0 0 203 1128" fill="none"> <g clip-path="url(#clip0)"> <path d="M164.016 1115.96C163.131 1114.01 162.247 1112.05 161.137 1110.17" stroke="#E75D5C" stroke-width="1.5" stroke-miterlimit="10" stroke-linecap="round" stroke-linejoin="round"></path> <path d="M138 1049C136.971 1046.61 135.942 1044.21 134.913 1041.82" stroke="#E75D5C" stroke-width="1.5" stroke-miterlimit="10" stroke-linecap="round" stroke-linejoin="round"></path> <path d="M130 1030.7C129.091 1028.75 128.182 1026.81 127.049 1024.94" stroke="#E75D5C" stroke-width="1.5" stroke-miterlimit="10" stroke-linecap="round" stroke-linejoin="round"></path> <path d="M154.718 1095.12C153.799 1092.42 152.757 1090.03 151.62 1087.42" stroke="#E75D5C" stroke-width="1.5" stroke-miterlimit="10" stroke-linecap="round" stroke-linejoin="round"></path> <path d="M145.913 1073.67C144.638 1070.1 143.363 1066.53 142.088 1062.96" stroke="#E75D5C" stroke-width="1.5" stroke-miterlimit="10" stroke-linecap="round" stroke-linejoin="round"></path> <path d="M120.678 888.344C120.44 890.713 120.203 892.846 119.966 895.215" stroke="#E75D5C" stroke-width="1.5" stroke-miterlimit="10" stroke-linecap="round" stroke-linejoin="round"></path> <path d="M116.297 909.725C115.886 912.538 115.474 915.351 115.062 918.164" stroke="#E75D5C" stroke-width="1.5" stroke-miterlimit="10" stroke-linecap="round" stroke-linejoin="round"></path> <path d="M116 934C116.32 936.24 116.64 938.48 117 941" stroke="#E75D5C" stroke-width="1.5" stroke-miterlimit="10" stroke-linecap="round" stroke-linejoin="round"></path> <path d="M119.354 952.906C120.062 956.146 120.821 959.618 121.528 962.859" stroke="#E75D5C" stroke-width="1.5" stroke-miterlimit="10" stroke-linecap="round" stroke-linejoin="round"></path> <path d="M121.538 979.181C121.775 981.788 121.538 984.394 120.826 987" stroke="#E75D5C" stroke-width="1.5" stroke-miterlimit="10" stroke-linecap="round" stroke-linejoin="round"></path> <path d="M119.06 1002.5C119.96 1005.69 120.924 1009.11 121.823 1012.3" stroke="#E75D5C" stroke-width="1.5" stroke-miterlimit="10" stroke-linecap="round" stroke-linejoin="round"></path> <path d="M123.49 852.933C123.542 850.46 122.781 847.72 121.462 845.628" stroke="#E75D5C" stroke-width="1.5" stroke-miterlimit="10" stroke-linecap="round" stroke-linejoin="round"></path> <path d="M113.668 832.149C112.466 829.837 111.263 827.525 110.061 825.212" stroke="#E75D5C" stroke-width="1.5" stroke-miterlimit="10" stroke-linecap="round" stroke-linejoin="round"></path> <path d="M103.889 811.023C103.09 809.032 102.292 807.041 101.265 805.113" stroke="#E75D5C" stroke-width="1.5" stroke-miterlimit="10" stroke-linecap="round" stroke-linejoin="round"></path> <path d="M72.9453 745.486C72.225 742.981 71.5046 740.477 70.7843 737.972" stroke="#E75D5C" stroke-width="1.5" stroke-miterlimit="10" stroke-linecap="round" stroke-linejoin="round"></path> <path d="M68 724.315C67.7627 722.183 67.5255 720.051 67.051 717.918" stroke="#E75D5C" stroke-width="1.5" stroke-miterlimit="10" stroke-linecap="round" stroke-linejoin="round"></path> <path d="M94.0648 790.321C93.6024 787.506 92.9676 784.978 92.275 782.221" stroke="#E75D5C" stroke-width="1.5" stroke-miterlimit="10" stroke-linecap="round" stroke-linejoin="round"></path> <path d="M86 767C83.8014 763.912 81.6028 760.824 79.4042 757.736" stroke="#E75D5C" stroke-width="1.5" stroke-miterlimit="10" stroke-linecap="round" stroke-linejoin="round"></path> <path d="M122.763 875C123 872.157 123 869.551 123 866.708" stroke="#E75D5C" stroke-width="1.5" stroke-miterlimit="10" stroke-linecap="round" stroke-linejoin="round"></path> <path d="M21.8142 586.26C22.343 588.581 22.7964 590.678 23.3252 593" stroke="#E75D5C" stroke-width="1.5" stroke-miterlimit="10" stroke-linecap="round" stroke-linejoin="round"></path> <path d="M29.1812 606.695C30.3376 609.292 31.494 611.89 32.6504 614.487" stroke="#E75D5C" stroke-width="1.5" stroke-miterlimit="10" stroke-linecap="round" stroke-linejoin="round"></path> <path d="M40.4824 630.249C41.2152 631.997 41.9481 633.745 42.7725 635.712" stroke="#E75D5C" stroke-width="1.5" stroke-miterlimit="10" stroke-linecap="round" stroke-linejoin="round"></path> <path d="M48.6319 648.12C49.8099 651.221 51.072 654.543 52.25 657.644" stroke="#E75D5C" stroke-width="1.5" stroke-miterlimit="10" stroke-linecap="round" stroke-linejoin="round"></path> <path d="M54.2882 675.181C54.051 677.788 54.2883 680.394 55 683" stroke="#E75D5C" stroke-width="1.5" stroke-miterlimit="10" stroke-linecap="round" stroke-linejoin="round"></path> <path d="M58.4941 697.692C59.7621 700.757 61.1207 704.041 62.3887 707.106" stroke="#E75D5C" stroke-width="1.5" stroke-miterlimit="10" stroke-linecap="round" stroke-linejoin="round"></path> <path d="M11.498 549.922C10.1475 547.849 9.34634 545.121 9.36167 542.647" stroke="#E75D5C" stroke-width="1.5" stroke-miterlimit="10" stroke-linecap="round" stroke-linejoin="round"></path> <path d="M11.1445 528.523C11.6245 525.962 12.1044 523.4 12.5844 520.838" stroke="#E75D5C" stroke-width="1.5" stroke-miterlimit="10" stroke-linecap="round" stroke-linejoin="round"></path> <path d="M13.0508 507.267C12.8135 505.134 12.5763 503.002 12.1017 500.87" stroke="#E75D5C" stroke-width="1.5" stroke-miterlimit="10" stroke-linecap="round" stroke-linejoin="round"></path> <path d="M25.1787 441.256C26.3026 438.905 27.4266 436.553 28.5505 434.202" stroke="#E75D5C" stroke-width="1.5" stroke-miterlimit="10" stroke-linecap="round" stroke-linejoin="round"></path> <path d="M32.5439 421.181C33.3025 419.174 34.061 417.167 34.6082 415.052" stroke="#E75D5C" stroke-width="1.5" stroke-miterlimit="10" stroke-linecap="round" stroke-linejoin="round"></path> <path d="M13.0508 486.417C13.2881 483.574 13.2881 480.968 13.2881 478.125" stroke="#E75D5C" stroke-width="1.5" stroke-miterlimit="10" stroke-linecap="round" stroke-linejoin="round"></path> <path d="M17.0684 464C18.3788 460.443 19.6893 456.886 20.9998 453.329" stroke="#E75D5C" stroke-width="1.5" stroke-miterlimit="10" stroke-linecap="round" stroke-linejoin="round"></path> <path d="M17.2171 571.781C16.4473 569.034 15.5379 566.591 14.5458 563.927" stroke="#E75D5C" stroke-width="1.5" stroke-miterlimit="10" stroke-linecap="round" stroke-linejoin="round"></path> <path d="M82.254 281.917C80.929 283.895 79.7156 285.664 78.3906 287.643" stroke="#E75D5C" stroke-width="1.5" stroke-miterlimit="10" stroke-linecap="round" stroke-linejoin="round"></path> <path d="M66.916 305.326C66.916 308.169 66.916 311.013 66.916 313.856" stroke="#E75D5C" stroke-width="1.5" stroke-miterlimit="10" stroke-linecap="round" stroke-linejoin="round"></path> <path d="M68.4834 329.145C67.9356 330.96 67.3878 332.774 66.7715 334.815" stroke="#E75D5C" stroke-width="1.5" stroke-miterlimit="10" stroke-linecap="round" stroke-linejoin="round"></path> <path d="M59.1583 350.598C57.3886 353.403 55.4924 356.409 53.7227 359.214" stroke="#E75D5C" stroke-width="1.5" stroke-miterlimit="10" stroke-linecap="round" stroke-linejoin="round"></path> <path d="M49.2282 375.523C47.7541 377.685 46.6946 380.078 46.0498 382.702" stroke="#E75D5C" stroke-width="1.5" stroke-miterlimit="10" stroke-linecap="round" stroke-linejoin="round"></path> <path d="M43.3177 394.664C42.0954 397.747 40.7858 401.051 39.5635 404.135" stroke="#E75D5C" stroke-width="1.5" stroke-miterlimit="10" stroke-linecap="round" stroke-linejoin="round"></path> <path d="M99.9062 247.15C100.618 244.781 100.618 241.938 99.9062 239.569" stroke="#E75D5C" stroke-width="1.5" stroke-miterlimit="10" stroke-linecap="round" stroke-linejoin="round"></path> <path d="M96.8643 225.59C96.8643 222.984 96.8643 220.378 96.8643 217.771" stroke="#E75D5C" stroke-width="1.5" stroke-miterlimit="10" stroke-linecap="round" stroke-linejoin="round"></path> <path d="M98.0498 204.267C97.8125 202.134 97.5753 200.002 97.1008 197.87" stroke="#E75D5C" stroke-width="1.5" stroke-miterlimit="10" stroke-linecap="round" stroke-linejoin="round"></path> <path d="M102.999 140C102.999 137.394 102.999 134.788 102.999 132.181" stroke="#E75D5C" stroke-width="1.5" stroke-miterlimit="10" stroke-linecap="round" stroke-linejoin="round"></path> <path d="M104.05 115.315C103.813 113.183 103.575 111.05 103.101 108.918" stroke="#E75D5C" stroke-width="1.5" stroke-miterlimit="10" stroke-linecap="round" stroke-linejoin="round"></path> <path d="M98.0498 183.417C98.2871 180.574 98.2871 177.968 98.2871 175.125" stroke="#E75D5C" stroke-width="1.5" stroke-miterlimit="10" stroke-linecap="round" stroke-linejoin="round"></path> <path d="M100.999 161C100.999 157.209 100.999 153.418 100.999 149.628" stroke="#E75D5C" stroke-width="1.5" stroke-miterlimit="10" stroke-linecap="round" stroke-linejoin="round"></path> <path d="M87.9154 267.39C89.5376 265.043 90.8361 262.783 92.2527 260.318" stroke="#E75D5C" stroke-width="1.5" stroke-miterlimit="10" stroke-linecap="round" stroke-linejoin="round"></path> <path d="M95.7265 -2.59579C95.1858 0.195436 94.6451 2.98666 94.1045 5.77789" stroke="#E75D5C" stroke-width="1.5" stroke-miterlimit="10" stroke-linecap="round" stroke-linejoin="round"></path> <path d="M88.9549 21.333C88.1053 23.0273 87.2557 24.7216 86.2998 26.6277" stroke="#E75D5C" stroke-width="1.5" stroke-miterlimit="10" stroke-linecap="round" stroke-linejoin="round"></path> <path d="M80.4404 41.8121C80.4404 45.1291 80.4404 48.683 80.4404 51.9999" stroke="#E75D5C" stroke-width="1.5" stroke-miterlimit="10" stroke-linecap="round" stroke-linejoin="round"></path> <path d="M80.9152 67.6929C80.678 70.299 80.9152 72.9052 81.627 75.5114" stroke="#E75D5C" stroke-width="1.5" stroke-miterlimit="10" stroke-linecap="round" stroke-linejoin="round"></path> <path d="M88.4957 89.243C90.4134 91.9494 92.4681 94.8491 94.3857 97.5555" stroke="#E75D5C" stroke-width="1.5" stroke-miterlimit="10" stroke-linecap="round" stroke-linejoin="round"></path> </g> <defs> <clipPath id="clip0"> <rect width="203" height="1180" fill="white" transform="translate(203 1180) rotate(-180)"></rect> </clipPath> </defs> </svg> 