<?xml version="1.0" encoding="UTF-8"?> <svg xmlns="http://www.w3.org/2000/svg" width="378" height="49" viewBox="0 0 378 49" fill="none"> <path d="M5.82351 30.5958L1.66351 35.6918L1.24751 36.0038C0.796845 36.0038 0.450178 35.1891 0.207512 33.5598C0.0688451 32.4851 -0.000488281 31.4971 -0.000488281 30.5958C-0.000488281 29.8331 0.0341784 29.1918 0.103512 28.6718C0.276845 27.2505 1.35151 24.7891 3.32751 21.2878C5.44218 17.5784 7.01951 15.7238 8.05951 15.7238C8.44085 15.7238 8.77018 16.2438 9.04751 17.2838C9.25551 18.0811 9.35951 18.7745 9.35951 19.3638C9.35951 20.1611 8.83951 21.0451 7.79951 22.0158C6.79418 22.9518 5.85818 24.0438 4.99151 25.2918C3.95151 26.8171 3.43151 28.1691 3.43151 29.3478C3.43151 29.3478 3.46618 29.5905 3.53551 30.0758C6.27418 26.5398 9.42885 23.4198 12.9995 20.7158C16.1888 18.2891 18.4422 17.0758 19.7595 17.0758C20.3488 17.0758 20.7822 17.3705 21.0595 17.9598C21.3715 18.5144 21.5275 19.1038 21.5275 19.7278C21.5275 22.7785 20.7475 24.9625 19.1875 26.2798C18.5635 26.2798 17.9222 26.1585 17.2635 25.9158C16.3968 25.5691 15.9635 25.1531 15.9635 24.6678C15.9635 24.5638 16.1368 24.3385 16.4835 23.9918C16.8648 23.7838 17.1248 23.4545 17.2635 23.0038V22.4318C17.1248 22.1198 16.8475 21.9638 16.4315 21.9638C15.5302 21.9638 14.2302 22.6918 12.5315 24.1478C11.1448 25.3265 9.94885 26.5225 8.94351 27.7358C10.2955 28.1865 11.5608 29.2091 12.7395 30.8038C13.9182 32.3985 14.8542 33.1958 15.5475 33.1958C16.0675 33.1958 16.9688 32.7971 18.2515 31.9998C18.3555 31.9305 19.1008 31.4278 20.4875 30.4918C21.7355 29.6251 22.3768 29.1918 22.4115 29.1918C22.6888 29.1918 22.8275 29.3651 22.8275 29.7118C22.8275 30.1278 22.2555 30.9771 21.1115 32.2598C19.9675 33.5078 19.1008 34.3398 18.5115 34.7558C16.1888 36.4891 14.2995 37.3558 12.8435 37.3558C11.6302 37.3558 10.5902 36.8878 9.72351 35.9518C9.20351 35.3971 8.64885 34.4958 8.05951 33.2478C7.88618 32.8665 7.60885 32.3811 7.22751 31.7918C6.88085 31.2025 6.41285 30.8038 5.82351 30.5958ZM31.7431 21.7038L23.6831 28.7758C23.3711 29.0531 23.0937 29.2611 22.8511 29.3998C22.7817 29.3998 22.6951 29.4345 22.5911 29.5038C22.3484 29.4691 22.2097 29.3998 22.1751 29.2958V28.8798C22.2097 28.7065 22.8857 27.9611 24.2031 26.6438C25.5204 25.3265 27.3751 23.4891 29.7671 21.1318C31.8124 19.1905 33.9617 16.6078 36.2151 13.3838C37.3591 11.7544 38.5551 10.9398 39.8031 10.9398C40.0804 10.9398 40.4271 11.0438 40.8431 11.2518C41.2591 11.4251 41.4671 11.5984 41.4671 11.7718L41.3631 11.9278C40.3231 13.3145 38.8324 15.3598 36.8911 18.0638C35.7817 19.6931 34.8631 21.0971 34.1351 22.2758L32.5751 24.8758C33.8577 23.5931 35.4697 22.2758 37.4111 20.9238C39.8031 19.2598 41.5191 18.4278 42.5591 18.4278C44.2577 18.4278 45.1071 19.3811 45.1071 21.2878C45.1071 23.1251 44.0497 25.2225 41.9351 27.5798C40.4097 29.2785 38.5724 30.8905 36.4231 32.4158C37.3591 32.8318 38.4684 33.0398 39.7511 33.0398C42.2471 33.0398 44.3097 31.9998 45.9391 29.9198C46.2857 29.5731 46.5111 29.3998 46.6151 29.3998C46.9271 29.3998 47.0831 29.5038 47.0831 29.7118C47.0831 29.9545 47.0137 30.1971 46.8751 30.4398C46.5977 30.8905 45.9391 31.6185 44.8991 32.6238C43.3737 34.0798 41.4671 35.2411 39.1791 36.1078C36.9257 37.0091 34.7417 37.4598 32.6271 37.4598C30.7551 37.4598 28.8831 36.7838 27.0111 35.4318L22.5391 45.6758C21.8457 47.2358 21.1524 48.0158 20.4591 48.0158C20.0777 48.0158 19.7831 47.7731 19.5751 47.2878C19.3324 46.8371 19.2111 46.3171 19.2111 45.7278C19.2111 44.9305 19.7311 42.6771 20.7711 38.9678C21.9497 36.7491 23.5791 34.7385 25.6591 32.9358L31.7431 21.7038ZM29.1951 31.4798C29.8191 31.1331 30.5817 30.9598 31.4831 30.9598C32.0724 30.9598 32.6444 31.0638 33.1991 31.2718L34.1351 31.7398C35.1751 31.0118 36.2497 30.0065 37.3591 28.7238C38.7111 27.2331 39.4911 26.0198 39.6991 25.0838C39.7337 24.9798 39.7511 24.8411 39.7511 24.6678C39.7511 24.4945 39.7337 24.3731 39.6991 24.3038C39.4911 23.7491 39.0577 23.4718 38.3991 23.4718C37.2551 23.4718 35.5911 24.5638 33.4071 26.7478C31.9164 28.2038 30.5124 29.7811 29.1951 31.4798ZM51.8577 26.4358C51.0951 27.7531 50.7137 28.7585 50.7137 29.4518C50.7137 30.3531 50.9911 30.8038 51.5457 30.8038C51.7884 30.8038 52.4471 30.4398 53.5217 29.7118C54.2844 29.1918 54.9604 28.7238 55.5497 28.3078C57.4911 26.9211 59.6057 25.1358 61.8937 22.9518C62.5177 22.3625 64.1991 20.6985 66.9377 17.9598C67.2151 17.6478 67.4751 17.4918 67.7177 17.4918C68.4457 17.4918 68.8097 18.1505 68.8097 19.4678C68.8097 20.2305 68.4804 21.1318 67.8217 22.1718L60.2817 34.1318C59.8657 34.7905 59.5711 35.2931 59.3977 35.6398V36.0038L59.6057 36.1598C59.8484 36.1598 60.1951 35.9691 60.6457 35.5878L67.7697 29.4518C68.2897 29.0011 68.6191 28.7585 68.7577 28.7238H69.2257C69.2951 28.7585 69.3471 28.8105 69.3817 28.8798C69.4511 28.9491 69.4857 29.0185 69.4857 29.0878C69.4857 29.2958 69.3471 29.5385 69.0697 29.8158L59.9177 39.3838C58.8777 40.4585 57.0577 42.5558 54.4577 45.6758C52.8284 47.6171 51.7884 48.5878 51.3377 48.5878C50.8524 48.5878 50.6097 47.4265 50.6097 45.1038C50.6097 44.8958 50.6964 44.5838 50.8697 44.1678C51.2511 43.5438 51.8057 42.6078 52.5337 41.3598L57.4217 32.4678C57.5951 32.0518 57.6817 31.7745 57.6817 31.6358C57.6817 31.4625 57.6297 31.3585 57.5257 31.3238H57.4737C57.4044 31.3238 57.2831 31.3931 57.1097 31.5318C56.2777 32.2598 55.1511 33.1091 53.7297 34.0798C51.8231 35.3625 50.6097 36.0038 50.0897 36.0038C49.5351 36.0038 48.8764 35.1545 48.1137 33.4558C47.4204 31.9305 47.0737 30.8038 47.0737 30.0758C47.0737 27.6838 48.0617 25.1531 50.0377 22.4838C50.6617 21.6518 51.7364 20.5251 53.2617 19.1038C55.1337 17.3704 56.4684 16.5038 57.2657 16.5038C57.6817 16.5038 58.1324 16.6944 58.6177 17.0758C59.1031 17.4571 59.3457 17.8558 59.3457 18.2718C59.3457 19.2771 58.3577 20.8025 56.3817 22.8478C54.4404 24.8931 52.9324 26.0891 51.8577 26.4358ZM73.5243 30.2838C74.2176 29.5905 75.3096 28.5331 76.8003 27.1118C78.0829 25.9678 79.5389 24.7025 81.1683 23.3158C85.1203 19.9878 87.7029 18.3238 88.9163 18.3238C89.9909 18.3238 90.5283 18.9825 90.5283 20.2998C90.5283 20.6811 90.4763 21.0105 90.3723 21.2878C90.2683 21.5304 90.0776 21.9118 89.8003 22.4318C88.9336 23.9571 88.1016 25.2225 87.3043 26.2278C86.6456 27.0598 86.3163 27.6145 86.3163 27.8918C86.3163 27.9611 86.4203 28.0998 86.6283 28.3078C86.8016 28.3078 87.4429 27.8051 88.5523 26.7998C91.2909 24.3038 93.8389 22.3625 96.1963 20.9758C96.6123 20.7331 97.3576 20.2998 98.4323 19.6758C98.8829 19.4331 99.2816 19.3118 99.6283 19.3118C100.079 19.3118 100.478 19.6931 100.824 20.4558C101.171 21.1838 101.344 21.8078 101.344 22.3278C101.344 22.6051 101.292 22.8131 101.188 22.9518C101.084 23.0558 100.859 23.2638 100.512 23.5758C97.4269 26.4185 95.8843 28.7238 95.8843 30.4918C95.8843 31.5318 96.4043 32.0518 97.4443 32.0518C98.4149 32.0518 99.5243 31.5491 100.772 30.5438C102.02 29.5038 102.731 28.9838 102.904 28.9838L103.268 29.1918V29.6598C103.026 30.7345 101.535 32.2945 98.7963 34.3398C96.0576 36.3851 94.1336 37.4078 93.0243 37.4078C92.3656 37.4078 91.7936 37.1998 91.3083 36.7838C90.8229 36.4025 90.5803 35.8998 90.5803 35.2758C90.5803 34.4785 90.6843 33.7158 90.8923 32.9878C91.1696 32.0518 91.4816 31.2718 91.8283 30.6478L93.0763 28.4118C93.5269 27.6145 93.7523 27.0945 93.7523 26.8518C93.7523 26.6438 93.5963 26.5398 93.2843 26.5398C93.0416 26.5398 92.1403 27.1465 90.5803 28.3598C89.4709 29.2265 88.5696 29.9891 87.8763 30.6478C86.9749 31.5145 85.6403 32.7971 83.8723 34.4958C82.8323 35.5011 81.9483 36.0038 81.2203 36.0038C80.8389 36.0038 80.5269 35.8131 80.2843 35.4318C80.0763 35.0158 79.9723 34.6171 79.9723 34.2358C79.9723 33.2998 80.4749 32.0691 81.4803 30.5438C81.9309 29.8851 82.5029 29.0358 83.1963 27.9958C83.6123 27.3718 83.8203 26.9038 83.8203 26.5918C83.8203 26.0371 83.4389 25.7598 82.6763 25.7598C81.5323 25.7598 79.4869 27.2678 76.5403 30.2838C75.8123 31.0465 74.8069 32.3465 73.5243 34.1838C72.6923 35.3971 72.0336 36.0038 71.5483 36.0038C70.1616 36.0038 69.4683 34.3745 69.4683 31.1158C69.4683 29.2438 69.8149 27.6838 70.5083 26.4358C70.7509 26.0198 71.4443 25.0665 72.5883 23.5758C73.4549 22.4664 74.0789 21.7038 74.4603 21.2878C75.5349 20.1438 76.7483 19.5718 78.1003 19.5718C78.4816 19.5718 78.7763 19.6758 78.9843 19.8838C79.2269 20.0918 79.3483 20.3171 79.3483 20.5598C79.3483 20.8024 79.2269 21.0971 78.9843 21.4438C78.1523 22.2758 77.0083 23.5585 75.5523 25.2918C73.9576 27.1985 73.1603 28.3598 73.1603 28.7758C73.1603 28.9838 73.2123 29.2611 73.3163 29.6078C73.3163 29.6771 73.3856 29.9025 73.5243 30.2838ZM83.9243 17.5958C83.5776 17.2491 83.4043 16.5384 83.4043 15.4638C83.4043 13.6265 85.5363 11.8931 89.8003 10.2638C93.4056 8.87712 96.3523 8.18378 98.6403 8.18378C99.9576 8.18378 100.859 8.46112 101.344 9.01578C101.622 9.32778 101.76 9.62245 101.76 9.89978C101.76 9.96912 101.726 10.1078 101.656 10.3158L100.148 12.8118C99.6283 12.5691 99.0389 12.3958 98.3803 12.2918C97.4789 12.2224 96.6296 12.1878 95.8323 12.1878C93.9949 12.1878 91.9323 12.6558 89.6443 13.5918C86.9403 14.7011 85.0336 16.0358 83.9243 17.5958ZM107.761 24.3558C106.027 24.7025 104.762 24.8758 103.965 24.8758C103.514 24.8758 103.289 24.5985 103.289 24.0438C103.289 23.8358 103.497 23.6451 103.913 23.4718C105.646 22.8131 106.807 22.2758 107.397 21.8598L112.441 18.3238C112.753 18.0811 113.498 17.4571 114.677 16.4518C115.335 15.8625 115.803 15.5678 116.081 15.5678C117.19 15.5678 118.005 16.6251 118.525 18.7398C115.89 20.3691 114.226 21.4958 113.533 22.1198C112.839 22.7438 112.094 23.6625 111.297 24.8758C110.673 25.8118 110.239 26.5398 109.997 27.0598C109.477 28.1691 109.217 29.2785 109.217 30.3878C109.217 31.3585 109.321 32.0345 109.529 32.4158C109.771 32.7625 110.049 32.9358 110.361 32.9358C110.777 32.9358 111.262 32.5891 111.817 31.8958C111.817 30.0585 112.233 28.3598 113.065 26.7998C114.105 24.9625 115.474 24.0438 117.173 24.0438C117.381 24.0438 117.571 24.1131 117.745 24.2518C118.334 24.6678 118.629 25.3438 118.629 26.2798C118.629 26.6265 118.577 27.0425 118.473 27.5278C120.275 26.5571 122.789 23.6625 126.013 18.8438C126.533 18.0811 126.983 17.6998 127.365 17.6998C127.677 17.6998 127.989 18.0291 128.301 18.6878C128.647 19.3118 128.821 19.9011 128.821 20.4558C128.821 20.9411 128.179 21.8771 126.897 23.2638C125.753 24.5118 124.938 25.4478 124.453 26.0718C123.413 27.4585 122.893 28.7411 122.893 29.9198C122.893 30.6131 122.979 31.1505 123.153 31.5318C123.361 31.9131 123.742 32.1038 124.297 32.1038C125.649 32.1038 126.983 31.4451 128.301 30.1278C128.682 29.7465 128.977 29.5558 129.185 29.5558C129.601 29.5558 129.809 29.6771 129.809 29.9198C129.809 30.4745 128.942 31.5665 127.209 33.1958C125.822 34.4785 124.817 35.3625 124.193 35.8478C122.91 36.8185 121.801 37.3038 120.865 37.3038C119.097 37.3038 118.213 36.3678 118.213 34.4958C118.213 32.5545 118.629 30.8038 119.461 29.2438C119.149 29.5558 118.663 29.8505 118.005 30.1278L117.381 30.3878C116.618 31.4971 115.526 32.6585 114.105 33.8718C112.406 35.2931 111.037 36.0038 109.997 36.0038C108.922 36.0038 108.021 35.1198 107.293 33.3518C106.669 31.8958 106.357 30.5438 106.357 29.2958C106.357 27.8745 106.825 26.2278 107.761 24.3558ZM142.952 22.2238L148.308 18.2718C148.932 17.8211 149.418 17.5958 149.764 17.5958C150.042 17.5958 150.18 17.7345 150.18 18.0118C150.18 18.3238 150.024 18.6878 149.712 19.1038C149.4 19.4851 149.123 19.7798 148.88 19.9878L142.848 25.4478L142.432 30.8038C142.398 30.9078 142.38 31.0638 142.38 31.2718C142.38 31.6531 142.45 31.9305 142.588 32.1038C142.762 32.4158 143.039 32.5718 143.42 32.5718C144.044 32.5718 144.98 32.0345 146.228 30.9598C146.436 30.7865 146.679 30.6131 146.956 30.4398C147.13 30.3011 147.355 30.2318 147.632 30.2318C147.806 30.2318 147.944 30.2838 148.048 30.3878C148.118 30.5958 148.152 30.7345 148.152 30.8038C148.152 31.0118 147.996 31.2545 147.684 31.5318C146.124 33.0225 144.963 34.0798 144.2 34.7038C142.883 35.8825 141.652 36.8358 140.508 37.5638C139.815 38.0145 139.26 38.2398 138.844 38.2398C138.047 38.2398 137.648 37.6678 137.648 36.5238C138.134 33.4385 138.376 31.2198 138.376 29.8678C136.851 31.9131 134.771 33.6291 132.136 35.0158C131.963 35.1198 131.599 35.3105 131.044 35.5878C130.94 35.6225 130.646 35.7611 130.16 36.0038C129.918 36.0038 129.796 35.7785 129.796 35.3278C129.796 34.4611 130.282 33.3865 131.252 32.1038C131.772 31.4105 132.292 30.9771 132.812 30.8038L134.84 30.4918L138.376 27.0078C138.515 26.2105 138.584 25.3785 138.584 24.5118C138.584 22.2238 138.116 21.0798 137.18 21.0798C136.903 21.0798 136.591 21.1665 136.244 21.3398C136.106 21.4091 135.811 21.6171 135.36 21.9638L132.24 24.2518C131.998 24.4251 131.79 24.5118 131.616 24.5118C131.27 24.5118 131.096 24.3731 131.096 24.0958C131.096 23.9571 131.114 23.8185 131.148 23.6798C131.183 23.5065 131.356 23.2638 131.668 22.9518L133.384 21.2358C136.747 17.8731 139.035 16.1918 140.248 16.1918C142.086 16.1918 143.004 17.7171 143.004 20.7678V21.6518C142.97 21.8251 142.952 22.0158 142.952 22.2238ZM177.282 21.7038L169.222 28.7758C168.91 29.0531 168.633 29.2611 168.39 29.3998C168.321 29.3998 168.234 29.4345 168.13 29.5038C167.887 29.4691 167.749 29.3998 167.714 29.2958V28.8798C167.749 28.7065 168.425 27.9611 169.742 26.6438C171.059 25.3265 172.914 23.4891 175.306 21.1318C177.351 19.1905 179.501 16.6078 181.754 13.3838C182.898 11.7544 184.094 10.9398 185.342 10.9398C185.619 10.9398 185.966 11.0438 186.382 11.2518C186.798 11.4251 187.006 11.5984 187.006 11.7718L186.902 11.9278C185.862 13.3145 184.371 15.3598 182.43 18.0638C181.321 19.6931 180.402 21.0971 179.674 22.2758L178.114 24.8758C179.397 23.5931 181.009 22.2758 182.95 20.9238C185.342 19.2598 187.058 18.4278 188.098 18.4278C189.797 18.4278 190.646 19.3811 190.646 21.2878C190.646 23.1251 189.589 25.2225 187.474 27.5798C185.949 29.2785 184.111 30.8905 181.962 32.4158C182.898 32.8318 184.007 33.0398 185.29 33.0398C187.786 33.0398 189.849 31.9998 191.478 29.9198C191.825 29.5731 192.05 29.3998 192.154 29.3998C192.466 29.3998 192.622 29.5038 192.622 29.7118C192.622 29.9545 192.553 30.1971 192.414 30.4398C192.137 30.8905 191.478 31.6185 190.438 32.6238C188.913 34.0798 187.006 35.2411 184.718 36.1078C182.465 37.0091 180.281 37.4598 178.166 37.4598C176.294 37.4598 174.422 36.7838 172.55 35.4318L168.078 45.6758C167.385 47.2358 166.691 48.0158 165.998 48.0158C165.617 48.0158 165.322 47.7731 165.114 47.2878C164.871 46.8371 164.75 46.3171 164.75 45.7278C164.75 44.9305 165.27 42.6771 166.31 38.9678C167.489 36.7491 169.118 34.7385 171.198 32.9358L177.282 21.7038ZM174.734 31.4798C175.358 31.1331 176.121 30.9598 177.022 30.9598C177.611 30.9598 178.183 31.0638 178.738 31.2718L179.674 31.7398C180.714 31.0118 181.789 30.0065 182.898 28.7238C184.25 27.2331 185.03 26.0198 185.238 25.0838C185.273 24.9798 185.29 24.8411 185.29 24.6678C185.29 24.4945 185.273 24.3731 185.238 24.3038C185.03 23.7491 184.597 23.4718 183.938 23.4718C182.794 23.4718 181.13 24.5638 178.946 26.7478C177.455 28.2038 176.051 29.7811 174.734 31.4798ZM204.001 29.2438C200.326 33.8545 197.587 36.1598 195.785 36.1598C194.675 36.1598 193.826 35.1718 193.237 33.1958C192.821 31.8091 192.613 30.4051 192.613 28.9838C192.613 27.1465 193.635 24.7891 195.681 21.9118C197.83 18.8958 199.754 17.3878 201.453 17.3878C201.869 17.3878 202.302 17.4745 202.753 17.6478C203.342 17.8905 203.637 18.1851 203.637 18.5318C203.637 19.2945 202.961 20.4038 201.609 21.8598C200.257 23.3158 198.922 24.4251 197.605 25.1878L196.357 25.9158C196.149 26.4705 196.045 27.0425 196.045 27.6318C196.045 28.3598 196.183 28.9838 196.461 29.5038C196.773 29.9891 197.171 30.2318 197.657 30.2318C198.073 30.2318 198.801 29.9025 199.841 29.2438C200.187 29.0358 200.621 28.7411 201.141 28.3598C201.418 28.1518 202.042 27.5798 203.013 26.6438L212.269 17.4918C212.65 17.1105 212.945 16.9198 213.153 16.9198C213.569 16.9198 213.881 17.1971 214.089 17.7518C214.331 18.2718 214.453 18.9478 214.453 19.7798V20.2478C214.453 20.5251 214.383 20.7331 214.245 20.8718L209.617 25.9158C208.473 27.1638 207.901 28.4638 207.901 29.8158C207.901 31.2371 208.351 31.9478 209.253 31.9478C210.327 31.9478 211.627 31.3758 213.153 30.2318L214.661 29.2958C214.938 29.4691 215.077 29.6078 215.077 29.7118C215.077 30.1625 213.811 31.4798 211.281 33.6638C208.577 35.9865 206.601 37.1478 205.353 37.1478C203.931 37.1478 203.221 36.1771 203.221 34.2358C203.221 33.5078 203.481 31.8438 204.001 29.2438ZM227.33 27.5798C228.37 26.7478 229.341 25.8291 230.242 24.8238C231.559 23.3331 232.218 22.1891 232.218 21.3918C232.218 20.9758 232.027 20.6465 231.646 20.4038C231.299 20.1611 230.883 20.0398 230.398 20.0398C229.462 20.0398 228.075 20.4038 226.238 21.1318C225.926 21.2705 224.938 21.8078 223.274 22.7438C221.61 23.6451 220.743 24.0958 220.674 24.0958C220.466 24.0958 219.981 23.6105 219.218 22.6398C218.49 21.6345 218.126 21.0105 218.126 20.7678C218.126 20.2131 219.807 19.1731 223.17 17.6478C225.909 16.3998 228.249 15.7758 230.19 15.7758C231.785 15.7758 232.981 16.4171 233.778 17.6998C234.437 18.7745 234.766 20.1438 234.766 21.8078C234.766 23.1251 233.57 25.3785 231.178 28.5678C232.149 28.8451 232.877 28.9838 233.362 28.9838H233.986L234.09 29.1918C234.09 29.2611 234.038 29.3651 233.934 29.5038C233.726 29.7118 233.501 30.0238 233.258 30.4398C233.05 30.8211 232.807 31.1158 232.53 31.3238C232.287 31.4971 232.027 31.5838 231.75 31.5838C231.195 31.5838 230.329 31.3758 229.15 30.9598C227.971 32.2771 226.567 33.4385 224.938 34.4438C223.031 35.6571 221.35 36.2638 219.894 36.2638C219.235 36.2638 218.299 35.9518 217.086 35.3278C215.734 34.6691 215.058 34.0451 215.058 33.4558C215.058 33.2825 215.162 33.0745 215.37 32.8318L215.994 32.0518C217.242 30.5265 218.005 29.7638 218.282 29.7638C218.317 29.7638 218.629 30.0065 219.218 30.4918C219.807 30.9771 220.431 31.2198 221.09 31.2198C221.922 31.2198 223.101 30.7518 224.626 29.8158C224.175 29.8158 223.621 29.6771 222.962 29.3998C222.303 29.1225 221.922 28.8105 221.818 28.4638C221.783 28.4291 221.766 28.3251 221.766 28.1518C221.766 27.7358 221.957 27.0771 222.338 26.1758C222.615 25.5171 222.841 25.1878 223.014 25.1878C223.43 25.5345 223.898 25.9331 224.418 26.3838C225.215 26.9038 226.186 27.3025 227.33 27.5798ZM249.98 25.4478C247.9 26.3491 244.867 28.9318 240.88 33.1958C240.326 33.7851 239.719 34.4091 239.06 35.0678C238.402 35.6918 237.847 36.0038 237.396 36.0038C236.842 36.0038 236.374 35.6051 235.992 34.8078C235.646 34.1491 235.472 33.5251 235.472 32.9358C235.472 31.9305 235.888 30.5438 236.72 28.7758C237.622 26.8345 238.506 25.8638 239.372 25.8638C239.615 25.8638 239.788 25.9158 239.892 26.0198C239.892 26.0545 239.91 26.1065 239.944 26.1758L239.684 26.9038C239.303 27.9785 239.112 29.2265 239.112 30.6478C239.112 31.5145 239.234 31.9478 239.476 31.9478C239.684 31.9478 240.846 30.7518 242.96 28.3598C245.456 25.5171 248.16 23.0558 251.072 20.9758C252.944 19.6238 254.175 18.9478 254.764 18.9478C255.18 18.9478 255.527 19.3291 255.804 20.0918C256.047 20.6811 256.168 21.2358 256.168 21.7558C256.168 22.1718 255.371 23.2638 253.776 25.0318C252.632 26.6265 251.904 27.7185 251.592 28.3078C251.176 29.1051 250.968 29.7811 250.968 30.3358C250.968 31.2025 251.506 31.6358 252.58 31.6358C253.135 31.6358 253.88 31.3065 254.816 30.6478C255.544 30.1278 256.238 29.5385 256.896 28.8798C257.278 28.4985 257.572 28.3078 257.78 28.3078C258.058 28.3078 258.196 28.4985 258.196 28.8798C258.196 29.0531 257.416 30.0585 255.856 31.8958C254.99 32.9011 253.932 33.9065 252.684 34.9118C250.882 36.3678 249.547 37.0958 248.68 37.0958C247.744 37.0958 247.034 36.6451 246.548 35.7438C246.132 35.0158 245.924 34.1318 245.924 33.0918C245.924 32.2945 246.046 31.6358 246.288 31.1158C246.323 30.9425 246.843 30.0758 247.848 28.5158C248.022 28.2385 248.247 27.8745 248.524 27.4238C248.94 26.7998 249.426 26.1411 249.98 25.4478ZM262.227 30.2838C262.921 29.5905 264.013 28.5331 265.503 27.1118C266.786 25.9678 268.242 24.7025 269.871 23.3158C273.823 19.9878 276.406 18.3238 277.619 18.3238C278.694 18.3238 279.231 18.9825 279.231 20.2998C279.231 20.6811 279.179 21.0105 279.075 21.2878C278.971 21.5304 278.781 21.9118 278.503 22.4318C277.637 23.9571 276.805 25.2225 276.007 26.2278C275.349 27.0598 275.019 27.6145 275.019 27.8918C275.019 27.9611 275.123 28.0998 275.331 28.3078C275.505 28.3078 276.146 27.8051 277.255 26.7998C279.994 24.3038 282.542 22.3625 284.899 20.9758C285.315 20.7331 286.061 20.2998 287.135 19.6758C287.586 19.4331 287.985 19.3118 288.331 19.3118C288.782 19.3118 289.181 19.6931 289.527 20.4558C289.874 21.1838 290.047 21.8078 290.047 22.3278C290.047 22.6051 289.995 22.8131 289.891 22.9518C289.787 23.0558 289.562 23.2638 289.215 23.5758C286.13 26.4185 284.587 28.7238 284.587 30.4918C284.587 31.5318 285.107 32.0518 286.147 32.0518C287.118 32.0518 288.227 31.5491 289.475 30.5438C290.723 29.5038 291.434 28.9838 291.607 28.9838L291.971 29.1918V29.6598C291.729 30.7345 290.238 32.2945 287.499 34.3398C284.761 36.3851 282.837 37.4078 281.727 37.4078C281.069 37.4078 280.497 37.1998 280.011 36.7838C279.526 36.4025 279.283 35.8998 279.283 35.2758C279.283 34.4785 279.387 33.7158 279.595 32.9878C279.873 32.0518 280.185 31.2718 280.531 30.6478L281.779 28.4118C282.23 27.6145 282.455 27.0945 282.455 26.8518C282.455 26.6438 282.299 26.5398 281.987 26.5398C281.745 26.5398 280.843 27.1465 279.283 28.3598C278.174 29.2265 277.273 29.9891 276.579 30.6478C275.678 31.5145 274.343 32.7971 272.575 34.4958C271.535 35.5011 270.651 36.0038 269.923 36.0038C269.542 36.0038 269.23 35.8131 268.987 35.4318C268.779 35.0158 268.675 34.6171 268.675 34.2358C268.675 33.2998 269.178 32.0691 270.183 30.5438C270.634 29.8851 271.206 29.0358 271.899 27.9958C272.315 27.3718 272.523 26.9038 272.523 26.5918C272.523 26.0371 272.142 25.7598 271.379 25.7598C270.235 25.7598 268.19 27.2678 265.243 30.2838C264.515 31.0465 263.51 32.3465 262.227 34.1838C261.395 35.3971 260.737 36.0038 260.251 36.0038C258.865 36.0038 258.171 34.3745 258.171 31.1158C258.171 29.2438 258.518 27.6838 259.211 26.4358C259.454 26.0198 260.147 25.0665 261.291 23.5758C262.158 22.4664 262.782 21.7038 263.163 21.2878C264.238 20.1438 265.451 19.5718 266.803 19.5718C267.185 19.5718 267.479 19.6758 267.687 19.8838C267.93 20.0918 268.051 20.3171 268.051 20.5598C268.051 20.8024 267.93 21.0971 267.687 21.4438C266.855 22.2758 265.711 23.5585 264.255 25.2918C262.661 27.1985 261.863 28.3598 261.863 28.7758C261.863 28.9838 261.915 29.2611 262.019 29.6078C262.019 29.6771 262.089 29.9025 262.227 30.2838ZM272.627 17.5958C272.281 17.2491 272.107 16.5384 272.107 15.4638C272.107 13.6265 274.239 11.8931 278.503 10.2638C282.109 8.87712 285.055 8.18378 287.343 8.18378C288.661 8.18378 289.562 8.46112 290.047 9.01578C290.325 9.32778 290.463 9.62245 290.463 9.89978C290.463 9.96912 290.429 10.1078 290.359 10.3158L288.851 12.8118C288.331 12.5691 287.742 12.3958 287.083 12.2918C286.182 12.2224 285.333 12.1878 284.535 12.1878C282.698 12.1878 280.635 12.6558 278.347 13.5918C275.643 14.7011 273.737 16.0358 272.627 17.5958ZM307.436 19.7798C308.545 20.1265 309.1 21.0798 309.1 22.6398C309.1 23.1945 309.013 23.8011 308.84 24.4598C308.354 26.2625 307.713 27.7878 306.916 29.0358C306.812 29.2091 306.76 29.3478 306.76 29.4518C306.76 30.0411 307.158 30.3358 307.956 30.3358C308.406 30.3358 308.944 30.1278 309.568 29.7118C309.88 29.5038 310.088 29.3998 310.192 29.3998C310.573 29.3998 310.764 29.5211 310.764 29.7638C310.764 30.4918 309.88 31.2198 308.112 31.9478C306.586 32.5371 305.373 32.8318 304.472 32.8318C302.426 35.3625 300.156 36.6278 297.66 36.6278C295.892 36.6278 294.47 35.7958 293.396 34.1318C292.46 32.6758 291.992 31.0118 291.992 29.1398C291.992 26.6438 293.5 23.9918 296.516 21.1838C299.532 18.3758 302.305 16.9718 304.836 16.9718C305.529 16.9718 306.17 17.1451 306.76 17.4918C307.384 17.8385 307.696 18.1678 307.696 18.4798L307.592 19.2598L307.436 19.7798ZM302.704 31.2718C302.322 30.5091 302.132 29.7291 302.132 28.9318C302.132 28.0998 302.322 27.1985 302.704 26.2278C303.258 24.8065 303.709 23.7144 304.056 22.9518C304.194 22.6051 304.281 22.3798 304.316 22.2758C304.316 21.9291 304.056 21.7558 303.536 21.7558C303.05 21.7558 302.218 22.1718 301.04 23.0038C300.104 23.6971 299.341 24.3385 298.752 24.9278C297.712 25.9678 296.949 26.9038 296.464 27.7358C295.874 28.7411 295.58 29.9025 295.58 31.2198C295.58 31.9478 295.788 32.5025 296.204 32.8838C296.62 33.2651 297.278 33.4558 298.18 33.4558C299.532 33.4558 301.04 32.7278 302.704 31.2718ZM319.673 21.7038L311.613 28.7758C311.301 29.0531 311.023 29.2611 310.781 29.3998C310.711 29.3998 310.625 29.4345 310.521 29.5038C310.278 29.4691 310.139 29.3998 310.105 29.2958V28.8798C310.139 28.7065 310.815 27.9611 312.133 26.6438C313.45 25.3265 315.305 23.4891 317.697 21.1318C319.742 19.1905 321.891 16.6078 324.145 13.3838C325.289 11.7544 326.485 10.9398 327.733 10.9398C328.01 10.9398 328.357 11.0438 328.773 11.2518C329.189 11.4251 329.397 11.5984 329.397 11.7718L329.293 11.9278C328.253 13.3145 326.762 15.3598 324.821 18.0638C323.711 19.6931 322.793 21.0971 322.065 22.2758L320.505 24.8758C321.787 23.5931 323.399 22.2758 325.341 20.9238C327.733 19.2598 329.449 18.4278 330.489 18.4278C332.187 18.4278 333.037 19.3811 333.037 21.2878C333.037 23.1251 331.979 25.2225 329.865 27.5798C328.339 29.2785 326.502 30.8905 324.353 32.4158C325.289 32.8318 326.398 33.0398 327.681 33.0398C330.177 33.0398 332.239 31.9998 333.869 29.9198C334.215 29.5731 334.441 29.3998 334.545 29.3998C334.857 29.3998 335.013 29.5038 335.013 29.7118C335.013 29.9545 334.943 30.1971 334.805 30.4398C334.527 30.8905 333.869 31.6185 332.829 32.6238C331.303 34.0798 329.397 35.2411 327.109 36.1078C324.855 37.0091 322.671 37.4598 320.557 37.4598C318.685 37.4598 316.813 36.7838 314.941 35.4318L310.469 45.6758C309.775 47.2358 309.082 48.0158 308.389 48.0158C308.007 48.0158 307.713 47.7731 307.505 47.2878C307.262 46.8371 307.141 46.3171 307.141 45.7278C307.141 44.9305 307.661 42.6771 308.701 38.9678C309.879 36.7491 311.509 34.7385 313.589 32.9358L319.673 21.7038ZM317.125 31.4798C317.749 31.1331 318.511 30.9598 319.413 30.9598C320.002 30.9598 320.574 31.0638 321.129 31.2718L322.065 31.7398C323.105 31.0118 324.179 30.0065 325.289 28.7238C326.641 27.2331 327.421 26.0198 327.629 25.0838C327.663 24.9798 327.681 24.8411 327.681 24.6678C327.681 24.4945 327.663 24.3731 327.629 24.3038C327.421 23.7491 326.987 23.4718 326.329 23.4718C325.185 23.4718 323.521 24.5638 321.337 26.7478C319.846 28.2038 318.442 29.7811 317.125 31.4798ZM350.447 19.7798C351.557 20.1265 352.111 21.0798 352.111 22.6398C352.111 23.1945 352.025 23.8011 351.851 24.4598C351.366 26.2625 350.725 27.7878 349.927 29.0358C349.823 29.2091 349.771 29.3478 349.771 29.4518C349.771 30.0411 350.17 30.3358 350.967 30.3358C351.418 30.3358 351.955 30.1278 352.579 29.7118C352.891 29.5038 353.099 29.3998 353.203 29.3998C353.585 29.3998 353.775 29.5211 353.775 29.7638C353.775 30.4918 352.891 31.2198 351.123 31.9478C349.598 32.5371 348.385 32.8318 347.483 32.8318C345.438 35.3625 343.167 36.6278 340.671 36.6278C338.903 36.6278 337.482 35.7958 336.407 34.1318C335.471 32.6758 335.003 31.0118 335.003 29.1398C335.003 26.6438 336.511 23.9918 339.527 21.1838C342.543 18.3758 345.317 16.9718 347.847 16.9718C348.541 16.9718 349.182 17.1451 349.771 17.4918C350.395 17.8385 350.707 18.1678 350.707 18.4798L350.603 19.2598L350.447 19.7798ZM345.715 31.2718C345.334 30.5091 345.143 29.7291 345.143 28.9318C345.143 28.0998 345.334 27.1985 345.715 26.2278C346.27 24.8065 346.721 23.7144 347.067 22.9518C347.206 22.6051 347.293 22.3798 347.327 22.2758C347.327 21.9291 347.067 21.7558 346.547 21.7558C346.062 21.7558 345.23 22.1718 344.051 23.0038C343.115 23.6971 342.353 24.3385 341.763 24.9278C340.723 25.9678 339.961 26.9038 339.475 27.7358C338.886 28.7411 338.591 29.9025 338.591 31.2198C338.591 31.9478 338.799 32.5025 339.215 32.8838C339.631 33.2651 340.29 33.4558 341.191 33.4558C342.543 33.4558 344.051 32.7278 345.715 31.2718ZM374.436 28.0998V30.2838C372.911 31.2198 371.576 31.6878 370.432 31.6878C369.808 31.6878 369.34 31.6185 369.028 31.4798C368.751 31.4451 368.3 31.2545 367.676 30.9078C365.839 32.9878 364.539 34.3745 363.776 35.0678C361.87 36.7665 360.171 37.6158 358.68 37.6158C357.571 37.6158 356.652 37.1651 355.924 36.2638C354.988 35.0851 354.52 33.2825 354.52 30.8558C354.52 25.8291 356.288 20.7331 359.824 15.5678C362.216 12.0665 365.596 8.40912 369.964 4.59578C373.258 1.71845 375.407 0.279782 376.412 0.279782C376.794 0.279782 377.106 0.505116 377.348 0.955783C377.626 1.37178 377.764 1.78778 377.764 2.20378C377.764 4.14512 375.632 7.88912 371.368 13.4358C368.179 17.5265 365.215 20.9758 362.476 23.7838C361.159 25.1358 360.032 26.1065 359.096 26.6958C358.958 27.9438 358.888 29.4171 358.888 31.1158C358.888 32.6758 359.512 33.4558 360.76 33.4558C361.523 33.4558 362.303 33.0398 363.1 32.2078C363.759 31.5145 364.262 30.7518 364.608 29.9198C364.158 29.3651 363.932 28.6891 363.932 27.8918C363.932 26.5051 364.799 24.8585 366.532 22.9518C368.3 21.0105 369.86 20.0398 371.212 20.0398C371.802 20.0398 372.096 20.8371 372.096 22.4318C372.096 23.0211 371.611 24.2518 370.64 26.1238C370.328 26.7131 370.086 27.1638 369.912 27.4758C369.6 28.0305 369.306 28.4638 369.028 28.7758C369.652 29.0878 370.328 29.2438 371.056 29.2438C371.923 29.2438 373.05 28.8625 374.436 28.0998ZM359.876 23.2638C361.506 21.7038 362.667 20.5424 363.36 19.7798C365.128 17.8384 367.087 15.4638 369.236 12.6558C370.207 11.4078 371.074 10.1944 371.836 9.01578C373.084 7.10912 373.708 5.89578 373.708 5.37578C373.708 4.99445 373.535 4.80378 373.188 4.80378C372.634 4.80378 371.472 5.72245 369.704 7.55978C364.47 13.0024 361.194 18.2371 359.876 23.2638Z" fill="#333333"></path> </svg> 