<?xml version="1.0" encoding="UTF-8"?> <svg xmlns="http://www.w3.org/2000/svg" width="40" height="40" viewBox="0 0 40 40" fill="none"> <circle cx="16" cy="20" r="16" fill="#FDF1F1"></circle> <path d="M38.3399 18.7779C38.487 19.1664 38.4676 19.6295 38.3817 19.9841C38.179 20.6676 37.8435 21.1341 37.5649 21.5948C37.2508 21.9726 36.9058 22.3248 36.5608 22.6769C35.2332 24.0226 33.7727 25.1513 32.2859 26.3115C31.9199 26.5972 31.292 26.3317 31.7283 25.7311C32.8136 24.2372 34.2 23.004 35.29 21.5672C35.447 21.3783 35.6303 21.1579 35.7564 20.9433C30.2433 21.4186 24.6846 22.3884 18.9627 22.4239C16.7316 22.2944 17.278 19.6703 19.1194 19.7854C24.7293 20.136 30.6304 19.1312 36.4376 19.4329C36.3758 19.3815 36.4376 19.4329 36.2476 19.2217C36.0576 19.0105 35.6917 18.7596 35.3567 18.5343C34.4753 17.9613 33.5059 17.3684 32.5627 16.744C31.6195 16.1196 30.6715 15.4381 29.7807 14.7507C29.3792 14.417 29.3536 13.7568 29.7201 13.3159C30.0865 12.8751 30.7095 12.754 31.1109 13.0878C31.9447 13.7809 32.8309 14.4111 33.7432 15.0098C34.6294 15.64 35.5632 16.1501 36.5373 16.8001C36.9341 17.0767 37.3308 17.3533 37.7726 17.8271C37.9935 18.0639 38.1929 18.3894 38.3399 18.7779Z" fill="#333333"></path> </svg> 