<?xml version="1.0" encoding="UTF-8"?> <svg xmlns="http://www.w3.org/2000/svg" width="20" height="19" viewBox="0 0 20 19" fill="none"> <path d="M19.885 7.1092C19.9757 6.57503 19.6735 6.07054 19.2505 6.04087L16.8032 5.92217C16.0176 5.86281 15.2321 5.80346 14.5372 5.65508C14.2652 5.59573 14.0235 5.5067 13.8422 5.41768C13.6912 5.35833 13.5703 5.23962 13.389 5.06157C13.0567 4.67578 12.7243 4.14162 12.392 3.57778C11.7575 2.47978 11.1834 1.26307 10.3978 0.135396C10.3374 0.0463687 10.2166 0.0760444 10.0957 0.135396C9.61228 -0.131686 9.03821 0.0166934 8.85693 0.402478L7.98073 2.65783C7.67859 3.37005 7.37644 4.11194 7.01388 4.67578C6.86281 4.91319 6.71174 5.12092 6.59088 5.2693C6.50024 5.388 6.31895 5.47703 6.10746 5.56606C5.62403 5.77379 5.01975 5.89249 4.38526 6.04087C3.11627 6.30795 1.78686 6.45633 0.427229 6.84211C0.336587 6.87179 0.306374 6.99049 0.336588 7.1092C-0.0561935 7.49498 -0.116622 8.05882 0.215732 8.3259L2.11921 9.83936C2.72349 10.3439 3.32777 10.8483 3.78098 11.3825C3.96226 11.5902 4.11333 11.798 4.23419 11.976C4.32483 12.0947 4.35505 12.2728 4.38526 12.5399C4.41547 13.0443 4.38526 13.6675 4.29462 14.2907C4.14355 15.5668 3.90184 16.8725 3.84141 18.2376C3.84141 18.3266 3.96226 18.386 4.08312 18.4157C4.32483 18.9201 4.86868 19.1279 5.23125 18.9201L7.2858 17.6144C7.95051 17.1989 8.64543 16.7835 9.27992 16.5461C9.55185 16.4274 9.79356 16.368 9.97485 16.3087C10.1259 16.279 10.3072 16.3087 10.5489 16.3384C11.0626 16.4571 11.6366 16.6945 12.2107 16.9615C13.389 17.4957 14.5674 18.1189 15.8968 18.5937C15.9874 18.6234 16.0781 18.5344 16.1385 18.4453C16.6824 18.3563 17.0751 17.9408 16.9845 17.5254L16.35 15.181C16.1687 14.4391 15.9874 13.6675 15.927 12.985C15.8968 12.6882 15.8968 12.4508 15.927 12.2431C15.927 12.0947 16.0176 11.9167 16.1385 11.7089C16.4104 11.2638 16.8334 10.789 17.2564 10.3439C18.1326 9.39423 19.1297 8.50396 19.9757 7.40595C20.0361 7.31693 19.9757 7.19822 19.885 7.1092ZM16.1385 9.09747C15.5644 9.51293 15.0206 9.95807 14.5069 10.6109C14.3861 10.789 14.2652 10.967 14.1444 11.1748C14.0839 11.2935 14.0537 11.3825 13.9933 11.5012C13.9631 11.6199 13.9329 11.7386 13.9027 11.8573C13.812 12.3025 13.812 12.7179 13.8422 13.1037C13.9329 14.0236 14.1142 14.8249 14.3257 15.6261L14.658 16.8132C14.1444 16.368 13.6005 15.9229 13.0265 15.5074C12.4524 15.1216 11.8481 14.7359 11.0626 14.4688C10.8511 14.4094 10.6698 14.3501 10.3978 14.3204C10.277 14.3204 10.1561 14.2907 10.0353 14.2907C9.91442 14.2907 9.79357 14.2907 9.6425 14.3204C9.18929 14.3798 8.76629 14.4985 8.43394 14.6468C7.55773 15.0029 6.83259 15.4481 6.13767 15.8932L5.08018 16.5758C5.35211 15.9526 5.62403 15.2997 5.83553 14.6468C6.04703 13.994 6.22831 13.3114 6.22831 12.4805C6.22831 12.2728 6.22832 12.065 6.16789 11.8276C6.13767 11.7089 6.10746 11.5902 6.07725 11.4715C6.04703 11.3528 5.9866 11.2341 5.92618 11.1154C5.71468 10.7 5.47296 10.3735 5.23125 10.0768C4.62697 9.36455 3.96226 8.83039 3.32777 8.29623L2.36092 7.52465C3.05585 7.58401 3.75077 7.64336 4.4759 7.64336C5.17082 7.64336 5.89596 7.58401 6.68152 7.3466C6.89302 7.28725 7.07431 7.19822 7.2858 7.07952C7.40666 7.02017 7.4973 6.96082 7.61816 6.90146C7.7088 6.81244 7.82965 6.75309 7.9203 6.66406C8.25265 6.33763 8.49436 6.01119 8.70586 5.68476C9.18928 4.88351 9.52164 4.11194 9.82378 3.34038L10.277 2.18302C10.4281 2.83589 10.5791 3.51843 10.8208 4.20097C11.0626 4.85384 11.3043 5.5067 11.7877 6.18925C11.9085 6.3673 12.0294 6.51568 12.2107 6.69374C12.3013 6.78276 12.392 6.87179 12.4826 6.93114C12.5732 6.99049 12.6941 7.07952 12.815 7.13887C13.238 7.3466 13.6307 7.49498 13.9933 7.55433C14.8997 7.76206 15.7457 7.82141 16.5917 7.88076L17.8607 7.94012C17.3168 8.3259 16.7126 8.68201 16.1385 9.09747Z" fill="#E75D5C"></path> </svg> 