<?xml version="1.0" encoding="UTF-8"?> <svg xmlns="http://www.w3.org/2000/svg" width="44" height="33" viewBox="0 0 44 33" fill="none"> <path d="M6.38693 7.56995V5.88995C7.09093 5.37795 8.65893 4.46595 11.0909 3.15395C14.0029 1.55395 15.7149 0.753952 16.2269 0.753952C16.7709 0.753952 17.2189 1.07395 17.5709 1.71395C17.9229 2.32195 18.0989 2.92995 18.0989 3.53795C18.0989 4.20995 17.3469 5.77795 15.8429 8.24195C13.0269 12.85 11.0589 16.162 9.93893 18.178C8.37093 21.026 7.23493 23.314 6.53093 25.042C5.73093 26.994 5.33093 28.818 5.33093 30.514V31.234C5.39493 31.682 5.42693 31.938 5.42693 32.002C2.25893 31.65 0.67493 29.986 0.67493 27.01C0.67493 24.834 1.85893 21.746 4.22693 17.746C6.05093 14.642 8.09893 11.714 10.3709 8.96195C11.5869 7.48995 12.1949 6.56195 12.1949 6.17795C12.1949 5.92195 11.9869 5.79395 11.5709 5.79395C11.4429 5.82595 11.2509 5.85795 10.9949 5.88995C10.5789 5.98595 9.74693 6.27395 8.49893 6.75395L6.38693 7.56995ZM43.1369 1.32995C39.9689 2.99395 37.2009 4.78595 34.8329 6.70595C31.6329 9.29795 29.3449 11.906 27.9689 14.53C28.9289 13.826 30.0489 13.186 31.3289 12.61C32.8009 11.97 34.0169 11.65 34.9769 11.65C36.1609 11.65 37.2009 12.29 38.0969 13.57C38.9929 14.818 39.4409 16.066 39.4409 17.314C39.4409 19.682 38.0009 22.674 35.1209 26.29C32.0809 30.098 29.3129 32.002 26.8169 32.002C25.0889 32.002 23.4249 31.026 21.8249 29.074C20.2249 27.122 19.4249 25.154 19.4249 23.17C19.4249 18.402 22.1449 13.298 27.5849 7.85795C29.0249 6.41795 30.9609 4.91395 33.3929 3.34595C36.1769 1.55395 38.2569 0.65795 39.6329 0.65795C41.0729 0.65795 42.2409 0.88195 43.1369 1.32995ZM24.8009 21.49C24.4809 22.322 24.3209 23.282 24.3209 24.37C24.3209 25.042 24.4169 25.73 24.6089 26.434C24.8969 27.394 25.2809 27.874 25.7609 27.874C26.9449 27.874 28.4009 27.026 30.1289 25.33C32.4009 23.122 33.9529 20.962 34.7849 18.85C35.2329 17.73 35.4569 16.722 35.4569 15.826C35.4569 14.802 34.9289 14.29 33.8729 14.29C32.5929 14.29 30.8969 15.202 28.7849 17.026C26.8649 18.658 25.5369 20.146 24.8009 21.49Z" fill="#333333"></path> </svg> 