<?xml version="1.0" encoding="UTF-8"?> <svg xmlns="http://www.w3.org/2000/svg" width="203" height="1128" viewBox="0 0 203 1128" fill="none"> <g clip-path="url(#clip0)"> <path d="M38.9844 1115.96C39.8687 1114.01 40.7531 1112.05 41.8631 1110.17" stroke="#E75D5C" stroke-width="1.5" stroke-miterlimit="10" stroke-linecap="round" stroke-linejoin="round"></path> <path d="M65 1049C66.0291 1046.61 67.0581 1044.21 68.0872 1041.82" stroke="#E75D5C" stroke-width="1.5" stroke-miterlimit="10" stroke-linecap="round" stroke-linejoin="round"></path> <path d="M73 1030.7C73.9089 1028.75 74.8177 1026.81 75.9513 1024.94" stroke="#E75D5C" stroke-width="1.5" stroke-miterlimit="10" stroke-linecap="round" stroke-linejoin="round"></path> <path d="M48.2819 1095.12C49.2011 1092.42 50.2431 1090.03 51.3798 1087.42" stroke="#E75D5C" stroke-width="1.5" stroke-miterlimit="10" stroke-linecap="round" stroke-linejoin="round"></path> <path d="M57.0869 1073.67C58.362 1070.1 59.6372 1066.53 60.9123 1062.96" stroke="#E75D5C" stroke-width="1.5" stroke-miterlimit="10" stroke-linecap="round" stroke-linejoin="round"></path> <path d="M82.3223 888.344C82.5595 890.713 82.7968 892.846 83.0341 895.215" stroke="#E75D5C" stroke-width="1.5" stroke-miterlimit="10" stroke-linecap="round" stroke-linejoin="round"></path> <path d="M86.7026 909.725C87.1142 912.538 87.5259 915.351 87.9375 918.164" stroke="#E75D5C" stroke-width="1.5" stroke-miterlimit="10" stroke-linecap="round" stroke-linejoin="round"></path> <path d="M87 934C86.68 936.24 86.36 938.48 86 941" stroke="#E75D5C" stroke-width="1.5" stroke-miterlimit="10" stroke-linecap="round" stroke-linejoin="round"></path> <path d="M83.6455 952.906C82.9377 956.146 82.1794 959.618 81.4717 962.859" stroke="#E75D5C" stroke-width="1.5" stroke-miterlimit="10" stroke-linecap="round" stroke-linejoin="round"></path> <path d="M81.4621 979.181C81.2248 981.788 81.4621 984.394 82.1738 987" stroke="#E75D5C" stroke-width="1.5" stroke-miterlimit="10" stroke-linecap="round" stroke-linejoin="round"></path> <path d="M83.94 1002.5C83.0403 1005.69 82.0764 1009.11 81.1768 1012.3" stroke="#E75D5C" stroke-width="1.5" stroke-miterlimit="10" stroke-linecap="round" stroke-linejoin="round"></path> <path d="M79.5098 852.933C79.4579 850.46 80.2186 847.72 81.5384 845.628" stroke="#E75D5C" stroke-width="1.5" stroke-miterlimit="10" stroke-linecap="round" stroke-linejoin="round"></path> <path d="M89.332 832.149C90.5344 829.837 91.7368 827.525 92.9392 825.212" stroke="#E75D5C" stroke-width="1.5" stroke-miterlimit="10" stroke-linecap="round" stroke-linejoin="round"></path> <path d="M99.1113 811.023C99.9098 809.032 100.708 807.041 101.735 805.113" stroke="#E75D5C" stroke-width="1.5" stroke-miterlimit="10" stroke-linecap="round" stroke-linejoin="round"></path> <path d="M130.055 745.486C130.775 742.981 131.495 740.477 132.216 737.972" stroke="#E75D5C" stroke-width="1.5" stroke-miterlimit="10" stroke-linecap="round" stroke-linejoin="round"></path> <path d="M135 724.315C135.237 722.183 135.475 720.051 135.949 717.918" stroke="#E75D5C" stroke-width="1.5" stroke-miterlimit="10" stroke-linecap="round" stroke-linejoin="round"></path> <path d="M108.935 790.321C109.398 787.506 110.032 784.978 110.725 782.221" stroke="#E75D5C" stroke-width="1.5" stroke-miterlimit="10" stroke-linecap="round" stroke-linejoin="round"></path> <path d="M117 767C119.199 763.912 121.397 760.824 123.596 757.736" stroke="#E75D5C" stroke-width="1.5" stroke-miterlimit="10" stroke-linecap="round" stroke-linejoin="round"></path> <path d="M80.2373 875C80 872.157 80 869.551 80 866.708" stroke="#E75D5C" stroke-width="1.5" stroke-miterlimit="10" stroke-linecap="round" stroke-linejoin="round"></path> <path d="M181.186 586.26C180.657 588.581 180.204 590.678 179.675 593" stroke="#E75D5C" stroke-width="1.5" stroke-miterlimit="10" stroke-linecap="round" stroke-linejoin="round"></path> <path d="M173.819 606.695C172.662 609.292 171.506 611.89 170.35 614.487" stroke="#E75D5C" stroke-width="1.5" stroke-miterlimit="10" stroke-linecap="round" stroke-linejoin="round"></path> <path d="M162.518 630.249C161.785 631.997 161.052 633.745 160.228 635.712" stroke="#E75D5C" stroke-width="1.5" stroke-miterlimit="10" stroke-linecap="round" stroke-linejoin="round"></path> <path d="M154.368 648.12C153.19 651.221 151.928 654.543 150.75 657.644" stroke="#E75D5C" stroke-width="1.5" stroke-miterlimit="10" stroke-linecap="round" stroke-linejoin="round"></path> <path d="M148.712 675.181C148.949 677.788 148.712 680.394 148 683" stroke="#E75D5C" stroke-width="1.5" stroke-miterlimit="10" stroke-linecap="round" stroke-linejoin="round"></path> <path d="M144.506 697.692C143.238 700.757 141.879 704.041 140.611 707.106" stroke="#E75D5C" stroke-width="1.5" stroke-miterlimit="10" stroke-linecap="round" stroke-linejoin="round"></path> <path d="M191.502 549.922C192.853 547.849 193.654 545.121 193.638 542.647" stroke="#E75D5C" stroke-width="1.5" stroke-miterlimit="10" stroke-linecap="round" stroke-linejoin="round"></path> <path d="M191.855 528.523C191.376 525.962 190.896 523.4 190.416 520.838" stroke="#E75D5C" stroke-width="1.5" stroke-miterlimit="10" stroke-linecap="round" stroke-linejoin="round"></path> <path d="M189.949 507.267C190.186 505.134 190.424 503.002 190.898 500.87" stroke="#E75D5C" stroke-width="1.5" stroke-miterlimit="10" stroke-linecap="round" stroke-linejoin="round"></path> <path d="M177.821 441.256C176.697 438.905 175.573 436.553 174.45 434.202" stroke="#E75D5C" stroke-width="1.5" stroke-miterlimit="10" stroke-linecap="round" stroke-linejoin="round"></path> <path d="M170.456 421.181C169.698 419.174 168.939 417.167 168.392 415.052" stroke="#E75D5C" stroke-width="1.5" stroke-miterlimit="10" stroke-linecap="round" stroke-linejoin="round"></path> <path d="M189.949 486.417C189.712 483.574 189.712 480.968 189.712 478.125" stroke="#E75D5C" stroke-width="1.5" stroke-miterlimit="10" stroke-linecap="round" stroke-linejoin="round"></path> <path d="M185.932 464C184.621 460.443 183.311 456.886 182 453.329" stroke="#E75D5C" stroke-width="1.5" stroke-miterlimit="10" stroke-linecap="round" stroke-linejoin="round"></path> <path d="M185.783 571.781C186.553 569.034 187.462 566.591 188.454 563.927" stroke="#E75D5C" stroke-width="1.5" stroke-miterlimit="10" stroke-linecap="round" stroke-linejoin="round"></path> <path d="M120.746 281.917C122.071 283.895 123.284 285.664 124.609 287.643" stroke="#E75D5C" stroke-width="1.5" stroke-miterlimit="10" stroke-linecap="round" stroke-linejoin="round"></path> <path d="M136.084 305.326C136.084 308.169 136.084 311.013 136.084 313.856" stroke="#E75D5C" stroke-width="1.5" stroke-miterlimit="10" stroke-linecap="round" stroke-linejoin="round"></path> <path d="M134.517 329.145C135.064 330.96 135.612 332.774 136.229 334.815" stroke="#E75D5C" stroke-width="1.5" stroke-miterlimit="10" stroke-linecap="round" stroke-linejoin="round"></path> <path d="M143.842 350.598C145.611 353.403 147.508 356.409 149.277 359.214" stroke="#E75D5C" stroke-width="1.5" stroke-miterlimit="10" stroke-linecap="round" stroke-linejoin="round"></path> <path d="M153.772 375.523C155.246 377.685 156.305 380.078 156.95 382.702" stroke="#E75D5C" stroke-width="1.5" stroke-miterlimit="10" stroke-linecap="round" stroke-linejoin="round"></path> <path d="M159.682 394.664C160.905 397.747 162.214 401.051 163.437 404.135" stroke="#E75D5C" stroke-width="1.5" stroke-miterlimit="10" stroke-linecap="round" stroke-linejoin="round"></path> <path d="M103.094 247.15C102.382 244.781 102.382 241.938 103.094 239.569" stroke="#E75D5C" stroke-width="1.5" stroke-miterlimit="10" stroke-linecap="round" stroke-linejoin="round"></path> <path d="M106.136 225.59C106.136 222.984 106.136 220.378 106.136 217.771" stroke="#E75D5C" stroke-width="1.5" stroke-miterlimit="10" stroke-linecap="round" stroke-linejoin="round"></path> <path d="M104.95 204.267C105.187 202.134 105.425 200.002 105.899 197.87" stroke="#E75D5C" stroke-width="1.5" stroke-miterlimit="10" stroke-linecap="round" stroke-linejoin="round"></path> <path d="M100.001 140C100.001 137.394 100.001 134.788 100.001 132.181" stroke="#E75D5C" stroke-width="1.5" stroke-miterlimit="10" stroke-linecap="round" stroke-linejoin="round"></path> <path d="M98.9502 115.315C99.1875 113.183 99.4247 111.05 99.8992 108.918" stroke="#E75D5C" stroke-width="1.5" stroke-miterlimit="10" stroke-linecap="round" stroke-linejoin="round"></path> <path d="M104.95 183.417C104.713 180.574 104.713 177.968 104.713 175.125" stroke="#E75D5C" stroke-width="1.5" stroke-miterlimit="10" stroke-linecap="round" stroke-linejoin="round"></path> <path d="M102.001 161C102.001 157.209 102.001 153.418 102.001 149.628" stroke="#E75D5C" stroke-width="1.5" stroke-miterlimit="10" stroke-linecap="round" stroke-linejoin="round"></path> <path d="M115.085 267.39C113.462 265.043 112.164 262.783 110.747 260.318" stroke="#E75D5C" stroke-width="1.5" stroke-miterlimit="10" stroke-linecap="round" stroke-linejoin="round"></path> <path d="M107.274 -2.59579C107.814 0.195436 108.355 2.98666 108.896 5.77789" stroke="#E75D5C" stroke-width="1.5" stroke-miterlimit="10" stroke-linecap="round" stroke-linejoin="round"></path> <path d="M114.045 21.333C114.895 23.0273 115.744 24.7216 116.7 26.6277" stroke="#E75D5C" stroke-width="1.5" stroke-miterlimit="10" stroke-linecap="round" stroke-linejoin="round"></path> <path d="M122.56 41.8121C122.56 45.1291 122.56 48.683 122.56 51.9999" stroke="#E75D5C" stroke-width="1.5" stroke-miterlimit="10" stroke-linecap="round" stroke-linejoin="round"></path> <path d="M122.085 67.6929C122.322 70.299 122.085 72.9052 121.373 75.5114" stroke="#E75D5C" stroke-width="1.5" stroke-miterlimit="10" stroke-linecap="round" stroke-linejoin="round"></path> <path d="M114.504 89.243C112.587 91.9494 110.532 94.8491 108.614 97.5555" stroke="#E75D5C" stroke-width="1.5" stroke-miterlimit="10" stroke-linecap="round" stroke-linejoin="round"></path> </g> <defs> <clipPath id="clip0"> <rect width="203" height="1180" fill="white" transform="matrix(1 0 0 -1 0 1180)"></rect> </clipPath> </defs> </svg> 